G75*
%MOIN*%
%OFA0B0*%
%FSLAX25Y25*%
%IPPOS*%
%LPD*%
%AMOC8*
5,1,8,0,0,1.08239X$1,22.5*
%
%ADD10C,0.01600*%
%ADD11C,0.00600*%
%ADD12R,0.05118X0.05906*%
%ADD13R,0.04724X0.04724*%
%ADD14C,0.07400*%
%ADD15C,0.00000*%
%ADD16R,0.05906X0.05118*%
%ADD17C,0.06000*%
%ADD18C,0.13843*%
%ADD19R,0.08800X0.04800*%
%ADD20R,0.08661X0.14173*%
%ADD21R,0.07874X0.04724*%
%ADD22R,0.07874X0.03937*%
%ADD23R,0.05315X0.01575*%
%ADD24C,0.04756*%
%ADD25R,0.09843X0.09843*%
%ADD26R,0.07400X0.07400*%
%ADD27R,0.02756X0.02756*%
%ADD28C,0.01000*%
%ADD29R,0.03562X0.03562*%
%ADD30C,0.03600*%
D10*
X0011093Y0013715D02*
X0192195Y0013715D01*
X0200069Y0021589D01*
X0200069Y0202691D01*
X0192195Y0210565D01*
X0133140Y0210565D01*
X0133140Y0183006D01*
X0070148Y0183006D01*
X0070148Y0210565D01*
X0011093Y0210565D01*
X0003219Y0202691D01*
X0003219Y0021589D01*
X0011093Y0013715D01*
X0048258Y0068794D02*
X0048258Y0097455D01*
X0072667Y0121865D01*
X0070719Y0121215D02*
X0049675Y0142258D01*
X0049675Y0166215D01*
X0057628Y0166215D01*
X0057628Y0167731D01*
X0049675Y0166215D02*
X0038219Y0166215D01*
X0038057Y0165329D02*
X0036289Y0163561D01*
X0036289Y0160959D01*
X0035719Y0160388D01*
X0035719Y0143715D01*
X0034911Y0131825D02*
X0035719Y0131018D01*
X0035719Y0121215D01*
X0031762Y0117258D01*
X0023593Y0117258D01*
X0024085Y0125132D02*
X0014242Y0125132D01*
X0013061Y0126313D01*
X0012667Y0125920D01*
X0012667Y0115093D01*
X0023593Y0107022D02*
X0024085Y0106530D01*
X0024085Y0099148D01*
X0022904Y0097967D01*
X0013061Y0097967D01*
X0013061Y0097573D02*
X0022904Y0097573D01*
X0024478Y0099148D01*
X0035719Y0163715D02*
X0035719Y0166215D01*
X0015719Y0166215D01*
X0013655Y0156229D02*
X0014611Y0154567D01*
X0015607Y0152929D01*
X0016643Y0151315D01*
X0017717Y0149727D01*
X0018830Y0148166D01*
X0019980Y0146632D01*
X0021168Y0145127D01*
X0022391Y0143651D01*
X0023651Y0142205D01*
X0024945Y0140790D01*
X0026273Y0139407D01*
X0027634Y0138057D01*
X0029028Y0136741D01*
X0030453Y0135459D01*
X0031909Y0134211D01*
X0033396Y0133000D01*
X0034911Y0131825D01*
D11*
X0034114Y0186456D02*
X0033046Y0187523D01*
X0034114Y0186456D02*
X0036249Y0186456D01*
X0037316Y0187523D01*
X0037316Y0188591D01*
X0036249Y0189659D01*
X0034114Y0189659D01*
X0033046Y0190726D01*
X0033046Y0191794D01*
X0034114Y0192861D01*
X0036249Y0192861D01*
X0037316Y0191794D01*
X0039492Y0192861D02*
X0042694Y0192861D01*
X0043762Y0191794D01*
X0043762Y0190726D01*
X0042694Y0189659D01*
X0039492Y0189659D01*
X0042694Y0189659D02*
X0043762Y0188591D01*
X0043762Y0187523D01*
X0042694Y0186456D01*
X0039492Y0186456D01*
X0039492Y0192861D01*
X0135843Y0078831D02*
X0135109Y0078097D01*
X0135109Y0076629D01*
X0135843Y0075895D01*
X0138779Y0074327D02*
X0139513Y0074327D01*
X0139513Y0073593D01*
X0138779Y0073593D01*
X0138779Y0074327D01*
X0139513Y0075895D02*
X0136577Y0078831D01*
X0135843Y0078831D01*
X0139513Y0078831D02*
X0139513Y0075895D01*
X0142609Y0074994D02*
X0143343Y0073526D01*
X0144811Y0072058D01*
X0144811Y0074260D01*
X0145545Y0074994D01*
X0146279Y0074994D01*
X0147013Y0074260D01*
X0147013Y0072792D01*
X0146279Y0072058D01*
X0144811Y0072058D01*
X0147013Y0070390D02*
X0147013Y0067454D01*
X0147013Y0068922D02*
X0142609Y0068922D01*
X0144077Y0067454D01*
X0143343Y0065786D02*
X0142609Y0065052D01*
X0142609Y0063584D01*
X0143343Y0062850D01*
X0146279Y0062850D01*
X0143343Y0065786D01*
X0146279Y0065786D01*
X0147013Y0065052D01*
X0147013Y0063584D01*
X0146279Y0062850D01*
X0147013Y0061182D02*
X0147013Y0058246D01*
X0144077Y0061182D01*
X0143343Y0061182D01*
X0142609Y0060448D01*
X0142609Y0058980D01*
X0143343Y0058246D01*
X0139513Y0055177D02*
X0135109Y0055177D01*
X0135109Y0057379D01*
X0135843Y0058113D01*
X0137311Y0058113D01*
X0138045Y0057379D01*
X0138045Y0055177D01*
X0138045Y0053509D02*
X0138779Y0053509D01*
X0139513Y0052775D01*
X0139513Y0051307D01*
X0138779Y0050573D01*
X0137311Y0051307D02*
X0137311Y0052775D01*
X0138045Y0053509D01*
X0135843Y0053509D02*
X0135109Y0052775D01*
X0135109Y0051307D01*
X0135843Y0050573D01*
X0136577Y0050573D01*
X0137311Y0051307D01*
X0135109Y0048905D02*
X0135109Y0045969D01*
X0139513Y0045969D01*
X0139513Y0048905D01*
X0137311Y0047437D02*
X0137311Y0045969D01*
X0137311Y0039697D02*
X0139513Y0036761D01*
X0137311Y0035093D02*
X0137311Y0032157D01*
X0135109Y0036761D02*
X0137311Y0039697D01*
X0144077Y0038930D02*
X0147013Y0038930D01*
X0147013Y0036728D01*
X0146279Y0035994D01*
X0144077Y0035994D01*
X0144077Y0034359D02*
X0144077Y0033625D01*
X0145545Y0032157D01*
X0147013Y0032157D02*
X0144077Y0032157D01*
X0144811Y0030489D02*
X0144077Y0029755D01*
X0144077Y0027554D01*
X0142609Y0027554D02*
X0147013Y0027554D01*
X0147013Y0029755D01*
X0146279Y0030489D01*
X0144811Y0030489D01*
X0144811Y0025885D02*
X0145545Y0025885D01*
X0145545Y0022950D01*
X0146279Y0022950D02*
X0144811Y0022950D01*
X0144077Y0023684D01*
X0144077Y0025151D01*
X0144811Y0025885D01*
X0147013Y0025151D02*
X0147013Y0023684D01*
X0146279Y0022950D01*
X0144811Y0019814D02*
X0144811Y0018346D01*
X0142609Y0018346D02*
X0142609Y0021282D01*
X0139513Y0020548D02*
X0139513Y0018346D01*
X0140981Y0018346D02*
X0136577Y0018346D01*
X0136577Y0020548D01*
X0137311Y0021282D01*
X0138779Y0021282D01*
X0139513Y0020548D01*
X0139513Y0022950D02*
X0139513Y0025885D01*
X0139513Y0024418D02*
X0135109Y0024418D01*
X0136577Y0022950D01*
X0142609Y0018346D02*
X0147013Y0018346D01*
X0146279Y0040598D02*
X0145545Y0041332D01*
X0145545Y0043534D01*
X0144811Y0043534D02*
X0147013Y0043534D01*
X0147013Y0041332D01*
X0146279Y0040598D01*
X0144077Y0041332D02*
X0144077Y0042800D01*
X0144811Y0043534D01*
X0144077Y0045202D02*
X0147013Y0045202D01*
X0145545Y0045202D02*
X0144077Y0046670D01*
X0144077Y0047404D01*
X0144077Y0049038D02*
X0146279Y0049038D01*
X0147013Y0049772D01*
X0147013Y0051974D01*
X0147747Y0051974D02*
X0144077Y0051974D01*
X0147747Y0051974D02*
X0148481Y0051240D01*
X0148481Y0050506D01*
X0139513Y0065853D02*
X0136577Y0064385D01*
X0136577Y0067321D02*
X0139513Y0065853D01*
X0138779Y0068989D02*
X0135843Y0071925D01*
X0138779Y0071925D01*
X0139513Y0071191D01*
X0139513Y0069723D01*
X0138779Y0068989D01*
X0135843Y0068989D01*
X0135109Y0069723D01*
X0135109Y0071191D01*
X0135843Y0071925D01*
D12*
X0153022Y0108203D03*
X0160502Y0108203D03*
X0160502Y0120014D03*
X0153022Y0120014D03*
X0153022Y0131431D03*
X0160502Y0131431D03*
X0097510Y0088518D03*
X0090030Y0088518D03*
X0048258Y0068794D03*
X0040778Y0068794D03*
X0042392Y0131825D03*
X0034911Y0131825D03*
X0034911Y0143636D03*
X0042392Y0143636D03*
D13*
X0162982Y0204109D03*
X0171250Y0204109D03*
D14*
X0194163Y0137140D03*
X0194163Y0127140D03*
X0194163Y0117140D03*
X0194163Y0107140D03*
X0194163Y0097140D03*
X0129360Y0100329D03*
X0119360Y0100329D03*
X0109144Y0068400D03*
X0099144Y0068400D03*
X0089144Y0068400D03*
X0094144Y0058400D03*
X0104144Y0058400D03*
X0114144Y0058400D03*
D15*
X0115244Y0033400D02*
X0115246Y0033560D01*
X0115252Y0033719D01*
X0115262Y0033878D01*
X0115276Y0034037D01*
X0115294Y0034196D01*
X0115315Y0034354D01*
X0115341Y0034511D01*
X0115371Y0034668D01*
X0115404Y0034824D01*
X0115442Y0034979D01*
X0115483Y0035133D01*
X0115528Y0035286D01*
X0115577Y0035438D01*
X0115630Y0035589D01*
X0115686Y0035738D01*
X0115747Y0035886D01*
X0115810Y0036032D01*
X0115878Y0036177D01*
X0115949Y0036320D01*
X0116023Y0036461D01*
X0116101Y0036600D01*
X0116183Y0036737D01*
X0116268Y0036872D01*
X0116356Y0037005D01*
X0116448Y0037136D01*
X0116542Y0037264D01*
X0116640Y0037390D01*
X0116741Y0037514D01*
X0116845Y0037635D01*
X0116952Y0037753D01*
X0117062Y0037869D01*
X0117175Y0037982D01*
X0117291Y0038092D01*
X0117409Y0038199D01*
X0117530Y0038303D01*
X0117654Y0038404D01*
X0117780Y0038502D01*
X0117908Y0038596D01*
X0118039Y0038688D01*
X0118172Y0038776D01*
X0118307Y0038861D01*
X0118444Y0038943D01*
X0118583Y0039021D01*
X0118724Y0039095D01*
X0118867Y0039166D01*
X0119012Y0039234D01*
X0119158Y0039297D01*
X0119306Y0039358D01*
X0119455Y0039414D01*
X0119606Y0039467D01*
X0119758Y0039516D01*
X0119911Y0039561D01*
X0120065Y0039602D01*
X0120220Y0039640D01*
X0120376Y0039673D01*
X0120533Y0039703D01*
X0120690Y0039729D01*
X0120848Y0039750D01*
X0121007Y0039768D01*
X0121166Y0039782D01*
X0121325Y0039792D01*
X0121484Y0039798D01*
X0121644Y0039800D01*
X0121804Y0039798D01*
X0121963Y0039792D01*
X0122122Y0039782D01*
X0122281Y0039768D01*
X0122440Y0039750D01*
X0122598Y0039729D01*
X0122755Y0039703D01*
X0122912Y0039673D01*
X0123068Y0039640D01*
X0123223Y0039602D01*
X0123377Y0039561D01*
X0123530Y0039516D01*
X0123682Y0039467D01*
X0123833Y0039414D01*
X0123982Y0039358D01*
X0124130Y0039297D01*
X0124276Y0039234D01*
X0124421Y0039166D01*
X0124564Y0039095D01*
X0124705Y0039021D01*
X0124844Y0038943D01*
X0124981Y0038861D01*
X0125116Y0038776D01*
X0125249Y0038688D01*
X0125380Y0038596D01*
X0125508Y0038502D01*
X0125634Y0038404D01*
X0125758Y0038303D01*
X0125879Y0038199D01*
X0125997Y0038092D01*
X0126113Y0037982D01*
X0126226Y0037869D01*
X0126336Y0037753D01*
X0126443Y0037635D01*
X0126547Y0037514D01*
X0126648Y0037390D01*
X0126746Y0037264D01*
X0126840Y0037136D01*
X0126932Y0037005D01*
X0127020Y0036872D01*
X0127105Y0036737D01*
X0127187Y0036600D01*
X0127265Y0036461D01*
X0127339Y0036320D01*
X0127410Y0036177D01*
X0127478Y0036032D01*
X0127541Y0035886D01*
X0127602Y0035738D01*
X0127658Y0035589D01*
X0127711Y0035438D01*
X0127760Y0035286D01*
X0127805Y0035133D01*
X0127846Y0034979D01*
X0127884Y0034824D01*
X0127917Y0034668D01*
X0127947Y0034511D01*
X0127973Y0034354D01*
X0127994Y0034196D01*
X0128012Y0034037D01*
X0128026Y0033878D01*
X0128036Y0033719D01*
X0128042Y0033560D01*
X0128044Y0033400D01*
X0128042Y0033240D01*
X0128036Y0033081D01*
X0128026Y0032922D01*
X0128012Y0032763D01*
X0127994Y0032604D01*
X0127973Y0032446D01*
X0127947Y0032289D01*
X0127917Y0032132D01*
X0127884Y0031976D01*
X0127846Y0031821D01*
X0127805Y0031667D01*
X0127760Y0031514D01*
X0127711Y0031362D01*
X0127658Y0031211D01*
X0127602Y0031062D01*
X0127541Y0030914D01*
X0127478Y0030768D01*
X0127410Y0030623D01*
X0127339Y0030480D01*
X0127265Y0030339D01*
X0127187Y0030200D01*
X0127105Y0030063D01*
X0127020Y0029928D01*
X0126932Y0029795D01*
X0126840Y0029664D01*
X0126746Y0029536D01*
X0126648Y0029410D01*
X0126547Y0029286D01*
X0126443Y0029165D01*
X0126336Y0029047D01*
X0126226Y0028931D01*
X0126113Y0028818D01*
X0125997Y0028708D01*
X0125879Y0028601D01*
X0125758Y0028497D01*
X0125634Y0028396D01*
X0125508Y0028298D01*
X0125380Y0028204D01*
X0125249Y0028112D01*
X0125116Y0028024D01*
X0124981Y0027939D01*
X0124844Y0027857D01*
X0124705Y0027779D01*
X0124564Y0027705D01*
X0124421Y0027634D01*
X0124276Y0027566D01*
X0124130Y0027503D01*
X0123982Y0027442D01*
X0123833Y0027386D01*
X0123682Y0027333D01*
X0123530Y0027284D01*
X0123377Y0027239D01*
X0123223Y0027198D01*
X0123068Y0027160D01*
X0122912Y0027127D01*
X0122755Y0027097D01*
X0122598Y0027071D01*
X0122440Y0027050D01*
X0122281Y0027032D01*
X0122122Y0027018D01*
X0121963Y0027008D01*
X0121804Y0027002D01*
X0121644Y0027000D01*
X0121484Y0027002D01*
X0121325Y0027008D01*
X0121166Y0027018D01*
X0121007Y0027032D01*
X0120848Y0027050D01*
X0120690Y0027071D01*
X0120533Y0027097D01*
X0120376Y0027127D01*
X0120220Y0027160D01*
X0120065Y0027198D01*
X0119911Y0027239D01*
X0119758Y0027284D01*
X0119606Y0027333D01*
X0119455Y0027386D01*
X0119306Y0027442D01*
X0119158Y0027503D01*
X0119012Y0027566D01*
X0118867Y0027634D01*
X0118724Y0027705D01*
X0118583Y0027779D01*
X0118444Y0027857D01*
X0118307Y0027939D01*
X0118172Y0028024D01*
X0118039Y0028112D01*
X0117908Y0028204D01*
X0117780Y0028298D01*
X0117654Y0028396D01*
X0117530Y0028497D01*
X0117409Y0028601D01*
X0117291Y0028708D01*
X0117175Y0028818D01*
X0117062Y0028931D01*
X0116952Y0029047D01*
X0116845Y0029165D01*
X0116741Y0029286D01*
X0116640Y0029410D01*
X0116542Y0029536D01*
X0116448Y0029664D01*
X0116356Y0029795D01*
X0116268Y0029928D01*
X0116183Y0030063D01*
X0116101Y0030200D01*
X0116023Y0030339D01*
X0115949Y0030480D01*
X0115878Y0030623D01*
X0115810Y0030768D01*
X0115747Y0030914D01*
X0115686Y0031062D01*
X0115630Y0031211D01*
X0115577Y0031362D01*
X0115528Y0031514D01*
X0115483Y0031667D01*
X0115442Y0031821D01*
X0115404Y0031976D01*
X0115371Y0032132D01*
X0115341Y0032289D01*
X0115315Y0032446D01*
X0115294Y0032604D01*
X0115276Y0032763D01*
X0115262Y0032922D01*
X0115252Y0033081D01*
X0115246Y0033240D01*
X0115244Y0033400D01*
X0075244Y0033400D02*
X0075246Y0033560D01*
X0075252Y0033719D01*
X0075262Y0033878D01*
X0075276Y0034037D01*
X0075294Y0034196D01*
X0075315Y0034354D01*
X0075341Y0034511D01*
X0075371Y0034668D01*
X0075404Y0034824D01*
X0075442Y0034979D01*
X0075483Y0035133D01*
X0075528Y0035286D01*
X0075577Y0035438D01*
X0075630Y0035589D01*
X0075686Y0035738D01*
X0075747Y0035886D01*
X0075810Y0036032D01*
X0075878Y0036177D01*
X0075949Y0036320D01*
X0076023Y0036461D01*
X0076101Y0036600D01*
X0076183Y0036737D01*
X0076268Y0036872D01*
X0076356Y0037005D01*
X0076448Y0037136D01*
X0076542Y0037264D01*
X0076640Y0037390D01*
X0076741Y0037514D01*
X0076845Y0037635D01*
X0076952Y0037753D01*
X0077062Y0037869D01*
X0077175Y0037982D01*
X0077291Y0038092D01*
X0077409Y0038199D01*
X0077530Y0038303D01*
X0077654Y0038404D01*
X0077780Y0038502D01*
X0077908Y0038596D01*
X0078039Y0038688D01*
X0078172Y0038776D01*
X0078307Y0038861D01*
X0078444Y0038943D01*
X0078583Y0039021D01*
X0078724Y0039095D01*
X0078867Y0039166D01*
X0079012Y0039234D01*
X0079158Y0039297D01*
X0079306Y0039358D01*
X0079455Y0039414D01*
X0079606Y0039467D01*
X0079758Y0039516D01*
X0079911Y0039561D01*
X0080065Y0039602D01*
X0080220Y0039640D01*
X0080376Y0039673D01*
X0080533Y0039703D01*
X0080690Y0039729D01*
X0080848Y0039750D01*
X0081007Y0039768D01*
X0081166Y0039782D01*
X0081325Y0039792D01*
X0081484Y0039798D01*
X0081644Y0039800D01*
X0081804Y0039798D01*
X0081963Y0039792D01*
X0082122Y0039782D01*
X0082281Y0039768D01*
X0082440Y0039750D01*
X0082598Y0039729D01*
X0082755Y0039703D01*
X0082912Y0039673D01*
X0083068Y0039640D01*
X0083223Y0039602D01*
X0083377Y0039561D01*
X0083530Y0039516D01*
X0083682Y0039467D01*
X0083833Y0039414D01*
X0083982Y0039358D01*
X0084130Y0039297D01*
X0084276Y0039234D01*
X0084421Y0039166D01*
X0084564Y0039095D01*
X0084705Y0039021D01*
X0084844Y0038943D01*
X0084981Y0038861D01*
X0085116Y0038776D01*
X0085249Y0038688D01*
X0085380Y0038596D01*
X0085508Y0038502D01*
X0085634Y0038404D01*
X0085758Y0038303D01*
X0085879Y0038199D01*
X0085997Y0038092D01*
X0086113Y0037982D01*
X0086226Y0037869D01*
X0086336Y0037753D01*
X0086443Y0037635D01*
X0086547Y0037514D01*
X0086648Y0037390D01*
X0086746Y0037264D01*
X0086840Y0037136D01*
X0086932Y0037005D01*
X0087020Y0036872D01*
X0087105Y0036737D01*
X0087187Y0036600D01*
X0087265Y0036461D01*
X0087339Y0036320D01*
X0087410Y0036177D01*
X0087478Y0036032D01*
X0087541Y0035886D01*
X0087602Y0035738D01*
X0087658Y0035589D01*
X0087711Y0035438D01*
X0087760Y0035286D01*
X0087805Y0035133D01*
X0087846Y0034979D01*
X0087884Y0034824D01*
X0087917Y0034668D01*
X0087947Y0034511D01*
X0087973Y0034354D01*
X0087994Y0034196D01*
X0088012Y0034037D01*
X0088026Y0033878D01*
X0088036Y0033719D01*
X0088042Y0033560D01*
X0088044Y0033400D01*
X0088042Y0033240D01*
X0088036Y0033081D01*
X0088026Y0032922D01*
X0088012Y0032763D01*
X0087994Y0032604D01*
X0087973Y0032446D01*
X0087947Y0032289D01*
X0087917Y0032132D01*
X0087884Y0031976D01*
X0087846Y0031821D01*
X0087805Y0031667D01*
X0087760Y0031514D01*
X0087711Y0031362D01*
X0087658Y0031211D01*
X0087602Y0031062D01*
X0087541Y0030914D01*
X0087478Y0030768D01*
X0087410Y0030623D01*
X0087339Y0030480D01*
X0087265Y0030339D01*
X0087187Y0030200D01*
X0087105Y0030063D01*
X0087020Y0029928D01*
X0086932Y0029795D01*
X0086840Y0029664D01*
X0086746Y0029536D01*
X0086648Y0029410D01*
X0086547Y0029286D01*
X0086443Y0029165D01*
X0086336Y0029047D01*
X0086226Y0028931D01*
X0086113Y0028818D01*
X0085997Y0028708D01*
X0085879Y0028601D01*
X0085758Y0028497D01*
X0085634Y0028396D01*
X0085508Y0028298D01*
X0085380Y0028204D01*
X0085249Y0028112D01*
X0085116Y0028024D01*
X0084981Y0027939D01*
X0084844Y0027857D01*
X0084705Y0027779D01*
X0084564Y0027705D01*
X0084421Y0027634D01*
X0084276Y0027566D01*
X0084130Y0027503D01*
X0083982Y0027442D01*
X0083833Y0027386D01*
X0083682Y0027333D01*
X0083530Y0027284D01*
X0083377Y0027239D01*
X0083223Y0027198D01*
X0083068Y0027160D01*
X0082912Y0027127D01*
X0082755Y0027097D01*
X0082598Y0027071D01*
X0082440Y0027050D01*
X0082281Y0027032D01*
X0082122Y0027018D01*
X0081963Y0027008D01*
X0081804Y0027002D01*
X0081644Y0027000D01*
X0081484Y0027002D01*
X0081325Y0027008D01*
X0081166Y0027018D01*
X0081007Y0027032D01*
X0080848Y0027050D01*
X0080690Y0027071D01*
X0080533Y0027097D01*
X0080376Y0027127D01*
X0080220Y0027160D01*
X0080065Y0027198D01*
X0079911Y0027239D01*
X0079758Y0027284D01*
X0079606Y0027333D01*
X0079455Y0027386D01*
X0079306Y0027442D01*
X0079158Y0027503D01*
X0079012Y0027566D01*
X0078867Y0027634D01*
X0078724Y0027705D01*
X0078583Y0027779D01*
X0078444Y0027857D01*
X0078307Y0027939D01*
X0078172Y0028024D01*
X0078039Y0028112D01*
X0077908Y0028204D01*
X0077780Y0028298D01*
X0077654Y0028396D01*
X0077530Y0028497D01*
X0077409Y0028601D01*
X0077291Y0028708D01*
X0077175Y0028818D01*
X0077062Y0028931D01*
X0076952Y0029047D01*
X0076845Y0029165D01*
X0076741Y0029286D01*
X0076640Y0029410D01*
X0076542Y0029536D01*
X0076448Y0029664D01*
X0076356Y0029795D01*
X0076268Y0029928D01*
X0076183Y0030063D01*
X0076101Y0030200D01*
X0076023Y0030339D01*
X0075949Y0030480D01*
X0075878Y0030623D01*
X0075810Y0030768D01*
X0075747Y0030914D01*
X0075686Y0031062D01*
X0075630Y0031211D01*
X0075577Y0031362D01*
X0075528Y0031514D01*
X0075483Y0031667D01*
X0075442Y0031821D01*
X0075404Y0031976D01*
X0075371Y0032132D01*
X0075341Y0032289D01*
X0075315Y0032446D01*
X0075294Y0032604D01*
X0075276Y0032763D01*
X0075262Y0032922D01*
X0075252Y0033081D01*
X0075246Y0033240D01*
X0075244Y0033400D01*
X0014242Y0096786D02*
X0011880Y0096786D01*
X0011814Y0096794D01*
X0011750Y0096806D01*
X0011686Y0096822D01*
X0011623Y0096841D01*
X0011562Y0096865D01*
X0011502Y0096892D01*
X0011444Y0096922D01*
X0011388Y0096956D01*
X0011334Y0096993D01*
X0011282Y0097034D01*
X0011233Y0097078D01*
X0011186Y0097124D01*
X0011143Y0097173D01*
X0011102Y0097225D01*
X0011065Y0097279D01*
X0011031Y0097335D01*
X0011001Y0097393D01*
X0010974Y0097453D01*
X0010950Y0097514D01*
X0010931Y0097577D01*
X0010915Y0097641D01*
X0010903Y0097705D01*
X0010895Y0097771D01*
X0010891Y0097836D01*
X0010891Y0097902D01*
X0010895Y0097967D01*
X0010891Y0098032D01*
X0010891Y0098098D01*
X0010895Y0098163D01*
X0010903Y0098229D01*
X0010915Y0098293D01*
X0010931Y0098357D01*
X0010950Y0098420D01*
X0010974Y0098481D01*
X0011001Y0098541D01*
X0011031Y0098599D01*
X0011065Y0098655D01*
X0011102Y0098709D01*
X0011143Y0098761D01*
X0011186Y0098810D01*
X0011233Y0098856D01*
X0011282Y0098900D01*
X0011334Y0098941D01*
X0011388Y0098978D01*
X0011444Y0099012D01*
X0011502Y0099042D01*
X0011562Y0099069D01*
X0011623Y0099093D01*
X0011686Y0099112D01*
X0011750Y0099128D01*
X0011814Y0099140D01*
X0011880Y0099148D01*
X0014242Y0099148D01*
X0014305Y0099140D01*
X0014367Y0099129D01*
X0014429Y0099114D01*
X0014489Y0099096D01*
X0014549Y0099074D01*
X0014607Y0099049D01*
X0014663Y0099020D01*
X0014718Y0098988D01*
X0014770Y0098953D01*
X0014821Y0098915D01*
X0014869Y0098875D01*
X0014915Y0098831D01*
X0014958Y0098785D01*
X0014999Y0098736D01*
X0015037Y0098685D01*
X0015071Y0098633D01*
X0015103Y0098578D01*
X0015131Y0098521D01*
X0015156Y0098463D01*
X0015177Y0098403D01*
X0015195Y0098343D01*
X0015209Y0098281D01*
X0015220Y0098219D01*
X0015227Y0098156D01*
X0015231Y0098093D01*
X0015230Y0098030D01*
X0015227Y0097967D01*
X0015230Y0097904D01*
X0015231Y0097841D01*
X0015227Y0097778D01*
X0015220Y0097715D01*
X0015209Y0097653D01*
X0015195Y0097591D01*
X0015177Y0097531D01*
X0015156Y0097471D01*
X0015131Y0097413D01*
X0015103Y0097356D01*
X0015071Y0097301D01*
X0015037Y0097249D01*
X0014999Y0097198D01*
X0014958Y0097149D01*
X0014915Y0097103D01*
X0014869Y0097059D01*
X0014821Y0097019D01*
X0014770Y0096981D01*
X0014718Y0096946D01*
X0014663Y0096914D01*
X0014607Y0096885D01*
X0014549Y0096860D01*
X0014489Y0096838D01*
X0014429Y0096820D01*
X0014367Y0096805D01*
X0014305Y0096794D01*
X0014242Y0096786D01*
X0019163Y0104463D02*
X0019165Y0104537D01*
X0019171Y0104611D01*
X0019181Y0104684D01*
X0019195Y0104757D01*
X0019212Y0104829D01*
X0019234Y0104899D01*
X0019259Y0104969D01*
X0019288Y0105037D01*
X0019321Y0105103D01*
X0019357Y0105168D01*
X0019397Y0105230D01*
X0019439Y0105291D01*
X0019485Y0105349D01*
X0019534Y0105404D01*
X0019586Y0105457D01*
X0019641Y0105507D01*
X0019698Y0105553D01*
X0019758Y0105597D01*
X0019820Y0105637D01*
X0019884Y0105674D01*
X0019950Y0105708D01*
X0020018Y0105738D01*
X0020087Y0105764D01*
X0020158Y0105787D01*
X0020229Y0105805D01*
X0020302Y0105820D01*
X0020375Y0105831D01*
X0020449Y0105838D01*
X0020523Y0105841D01*
X0020596Y0105840D01*
X0020670Y0105835D01*
X0020744Y0105826D01*
X0020817Y0105813D01*
X0020889Y0105796D01*
X0020960Y0105776D01*
X0021030Y0105751D01*
X0021098Y0105723D01*
X0021165Y0105692D01*
X0021230Y0105656D01*
X0021293Y0105618D01*
X0021354Y0105576D01*
X0021413Y0105530D01*
X0021469Y0105482D01*
X0021522Y0105431D01*
X0021572Y0105377D01*
X0021620Y0105320D01*
X0021664Y0105261D01*
X0021706Y0105199D01*
X0021744Y0105136D01*
X0021778Y0105070D01*
X0021809Y0105003D01*
X0021836Y0104934D01*
X0021859Y0104864D01*
X0021879Y0104793D01*
X0021895Y0104720D01*
X0021907Y0104647D01*
X0021915Y0104574D01*
X0021919Y0104500D01*
X0021919Y0104426D01*
X0021915Y0104352D01*
X0021907Y0104279D01*
X0021895Y0104206D01*
X0021879Y0104133D01*
X0021859Y0104062D01*
X0021836Y0103992D01*
X0021809Y0103923D01*
X0021778Y0103856D01*
X0021744Y0103790D01*
X0021706Y0103727D01*
X0021664Y0103665D01*
X0021620Y0103606D01*
X0021572Y0103549D01*
X0021522Y0103495D01*
X0021469Y0103444D01*
X0021413Y0103396D01*
X0021354Y0103350D01*
X0021293Y0103308D01*
X0021230Y0103270D01*
X0021165Y0103234D01*
X0021098Y0103203D01*
X0021030Y0103175D01*
X0020960Y0103150D01*
X0020889Y0103130D01*
X0020817Y0103113D01*
X0020744Y0103100D01*
X0020670Y0103091D01*
X0020596Y0103086D01*
X0020523Y0103085D01*
X0020449Y0103088D01*
X0020375Y0103095D01*
X0020302Y0103106D01*
X0020229Y0103121D01*
X0020158Y0103139D01*
X0020087Y0103162D01*
X0020018Y0103188D01*
X0019950Y0103218D01*
X0019884Y0103252D01*
X0019820Y0103289D01*
X0019758Y0103329D01*
X0019698Y0103373D01*
X0019641Y0103419D01*
X0019586Y0103469D01*
X0019534Y0103522D01*
X0019485Y0103577D01*
X0019439Y0103635D01*
X0019397Y0103696D01*
X0019357Y0103758D01*
X0019321Y0103823D01*
X0019288Y0103889D01*
X0019259Y0103957D01*
X0019234Y0104027D01*
X0019212Y0104097D01*
X0019195Y0104169D01*
X0019181Y0104242D01*
X0019171Y0104315D01*
X0019165Y0104389D01*
X0019163Y0104463D01*
X0019163Y0119817D02*
X0019165Y0119891D01*
X0019171Y0119965D01*
X0019181Y0120038D01*
X0019195Y0120111D01*
X0019212Y0120183D01*
X0019234Y0120253D01*
X0019259Y0120323D01*
X0019288Y0120391D01*
X0019321Y0120457D01*
X0019357Y0120522D01*
X0019397Y0120584D01*
X0019439Y0120645D01*
X0019485Y0120703D01*
X0019534Y0120758D01*
X0019586Y0120811D01*
X0019641Y0120861D01*
X0019698Y0120907D01*
X0019758Y0120951D01*
X0019820Y0120991D01*
X0019884Y0121028D01*
X0019950Y0121062D01*
X0020018Y0121092D01*
X0020087Y0121118D01*
X0020158Y0121141D01*
X0020229Y0121159D01*
X0020302Y0121174D01*
X0020375Y0121185D01*
X0020449Y0121192D01*
X0020523Y0121195D01*
X0020596Y0121194D01*
X0020670Y0121189D01*
X0020744Y0121180D01*
X0020817Y0121167D01*
X0020889Y0121150D01*
X0020960Y0121130D01*
X0021030Y0121105D01*
X0021098Y0121077D01*
X0021165Y0121046D01*
X0021230Y0121010D01*
X0021293Y0120972D01*
X0021354Y0120930D01*
X0021413Y0120884D01*
X0021469Y0120836D01*
X0021522Y0120785D01*
X0021572Y0120731D01*
X0021620Y0120674D01*
X0021664Y0120615D01*
X0021706Y0120553D01*
X0021744Y0120490D01*
X0021778Y0120424D01*
X0021809Y0120357D01*
X0021836Y0120288D01*
X0021859Y0120218D01*
X0021879Y0120147D01*
X0021895Y0120074D01*
X0021907Y0120001D01*
X0021915Y0119928D01*
X0021919Y0119854D01*
X0021919Y0119780D01*
X0021915Y0119706D01*
X0021907Y0119633D01*
X0021895Y0119560D01*
X0021879Y0119487D01*
X0021859Y0119416D01*
X0021836Y0119346D01*
X0021809Y0119277D01*
X0021778Y0119210D01*
X0021744Y0119144D01*
X0021706Y0119081D01*
X0021664Y0119019D01*
X0021620Y0118960D01*
X0021572Y0118903D01*
X0021522Y0118849D01*
X0021469Y0118798D01*
X0021413Y0118750D01*
X0021354Y0118704D01*
X0021293Y0118662D01*
X0021230Y0118624D01*
X0021165Y0118588D01*
X0021098Y0118557D01*
X0021030Y0118529D01*
X0020960Y0118504D01*
X0020889Y0118484D01*
X0020817Y0118467D01*
X0020744Y0118454D01*
X0020670Y0118445D01*
X0020596Y0118440D01*
X0020523Y0118439D01*
X0020449Y0118442D01*
X0020375Y0118449D01*
X0020302Y0118460D01*
X0020229Y0118475D01*
X0020158Y0118493D01*
X0020087Y0118516D01*
X0020018Y0118542D01*
X0019950Y0118572D01*
X0019884Y0118606D01*
X0019820Y0118643D01*
X0019758Y0118683D01*
X0019698Y0118727D01*
X0019641Y0118773D01*
X0019586Y0118823D01*
X0019534Y0118876D01*
X0019485Y0118931D01*
X0019439Y0118989D01*
X0019397Y0119050D01*
X0019357Y0119112D01*
X0019321Y0119177D01*
X0019288Y0119243D01*
X0019259Y0119311D01*
X0019234Y0119381D01*
X0019212Y0119451D01*
X0019195Y0119523D01*
X0019181Y0119596D01*
X0019171Y0119669D01*
X0019165Y0119743D01*
X0019163Y0119817D01*
X0014242Y0125132D02*
X0011880Y0125132D01*
X0011814Y0125140D01*
X0011750Y0125152D01*
X0011686Y0125168D01*
X0011623Y0125187D01*
X0011562Y0125211D01*
X0011502Y0125238D01*
X0011444Y0125268D01*
X0011388Y0125302D01*
X0011334Y0125339D01*
X0011282Y0125380D01*
X0011233Y0125424D01*
X0011186Y0125470D01*
X0011143Y0125519D01*
X0011102Y0125571D01*
X0011065Y0125625D01*
X0011031Y0125681D01*
X0011001Y0125739D01*
X0010974Y0125799D01*
X0010950Y0125860D01*
X0010931Y0125923D01*
X0010915Y0125987D01*
X0010903Y0126051D01*
X0010895Y0126117D01*
X0010891Y0126182D01*
X0010891Y0126248D01*
X0010895Y0126313D01*
X0010895Y0126314D02*
X0010891Y0126379D01*
X0010891Y0126445D01*
X0010895Y0126510D01*
X0010903Y0126576D01*
X0010915Y0126640D01*
X0010931Y0126704D01*
X0010950Y0126767D01*
X0010974Y0126828D01*
X0011001Y0126888D01*
X0011031Y0126946D01*
X0011065Y0127002D01*
X0011102Y0127056D01*
X0011143Y0127108D01*
X0011186Y0127157D01*
X0011233Y0127203D01*
X0011282Y0127247D01*
X0011334Y0127288D01*
X0011388Y0127325D01*
X0011444Y0127359D01*
X0011502Y0127389D01*
X0011562Y0127416D01*
X0011623Y0127440D01*
X0011686Y0127459D01*
X0011750Y0127475D01*
X0011814Y0127487D01*
X0011880Y0127495D01*
X0011880Y0127494D02*
X0014242Y0127494D01*
X0014242Y0127495D02*
X0014305Y0127487D01*
X0014367Y0127476D01*
X0014429Y0127461D01*
X0014489Y0127443D01*
X0014549Y0127421D01*
X0014607Y0127396D01*
X0014663Y0127367D01*
X0014718Y0127335D01*
X0014770Y0127300D01*
X0014821Y0127262D01*
X0014869Y0127222D01*
X0014915Y0127178D01*
X0014958Y0127132D01*
X0014999Y0127083D01*
X0015037Y0127032D01*
X0015071Y0126980D01*
X0015103Y0126925D01*
X0015131Y0126868D01*
X0015156Y0126810D01*
X0015177Y0126750D01*
X0015195Y0126690D01*
X0015209Y0126628D01*
X0015220Y0126566D01*
X0015227Y0126503D01*
X0015231Y0126440D01*
X0015230Y0126377D01*
X0015227Y0126314D01*
X0015227Y0126313D02*
X0015230Y0126250D01*
X0015231Y0126187D01*
X0015227Y0126124D01*
X0015220Y0126061D01*
X0015209Y0125999D01*
X0015195Y0125937D01*
X0015177Y0125877D01*
X0015156Y0125817D01*
X0015131Y0125759D01*
X0015103Y0125702D01*
X0015071Y0125647D01*
X0015037Y0125595D01*
X0014999Y0125544D01*
X0014958Y0125495D01*
X0014915Y0125449D01*
X0014869Y0125405D01*
X0014821Y0125365D01*
X0014770Y0125327D01*
X0014718Y0125292D01*
X0014663Y0125260D01*
X0014607Y0125231D01*
X0014549Y0125206D01*
X0014489Y0125184D01*
X0014429Y0125166D01*
X0014367Y0125151D01*
X0014305Y0125140D01*
X0014242Y0125132D01*
D16*
X0057628Y0160250D03*
X0057628Y0167731D03*
X0148179Y0190369D03*
X0148179Y0197849D03*
D17*
X0151670Y0178206D02*
X0157670Y0178206D01*
X0157670Y0160406D02*
X0151670Y0160406D01*
X0177270Y0160406D02*
X0183270Y0160406D01*
X0183270Y0178206D02*
X0177270Y0178206D01*
X0060869Y0052064D02*
X0054869Y0052064D01*
X0054869Y0034264D02*
X0060869Y0034264D01*
X0035269Y0034264D02*
X0029269Y0034264D01*
X0029269Y0052064D02*
X0035269Y0052064D01*
D18*
X0015030Y0025526D03*
X0015030Y0198754D03*
X0188258Y0198754D03*
X0188258Y0025526D03*
D19*
X0013656Y0156229D03*
X0013656Y0165329D03*
X0013656Y0174429D03*
D20*
X0038057Y0165329D03*
D21*
X0072667Y0169109D03*
X0072667Y0176983D03*
X0072667Y0161235D03*
X0072667Y0153361D03*
X0072667Y0145487D03*
X0072667Y0137613D03*
X0072667Y0129739D03*
X0072667Y0121865D03*
X0131722Y0121865D03*
X0131722Y0129739D03*
X0131722Y0137613D03*
X0131722Y0145487D03*
X0131722Y0153361D03*
X0131722Y0161235D03*
X0131722Y0169109D03*
X0131722Y0176983D03*
D22*
X0012667Y0115093D03*
X0012667Y0109187D03*
D23*
X0023593Y0109581D03*
X0023593Y0107022D03*
X0023593Y0112140D03*
X0023593Y0114699D03*
X0023593Y0117258D03*
D24*
X0024085Y0125132D02*
X0024085Y0129888D01*
X0024085Y0099148D02*
X0024085Y0094392D01*
D25*
X0013061Y0097967D03*
X0013061Y0126313D03*
D26*
X0194163Y0087140D03*
D27*
X0156073Y0085959D03*
X0156073Y0091077D03*
X0148789Y0088518D03*
D28*
X0148219Y0088715D01*
X0125719Y0111215D01*
X0125719Y0133715D01*
X0150719Y0133715D01*
X0153022Y0131431D01*
X0155719Y0126215D02*
X0135719Y0126215D01*
X0133219Y0128715D01*
X0131722Y0129739D01*
X0131722Y0137613D02*
X0133219Y0138715D01*
X0140719Y0138715D01*
X0138013Y0141524D02*
X0137080Y0141524D01*
X0137054Y0141550D02*
X0137759Y0142255D01*
X0137759Y0147079D01*
X0147191Y0156511D01*
X0147923Y0157242D01*
X0148098Y0157666D01*
X0148238Y0157474D01*
X0148739Y0156973D01*
X0149312Y0156557D01*
X0149943Y0156235D01*
X0150617Y0156016D01*
X0151316Y0155906D01*
X0154170Y0155906D01*
X0154170Y0159905D01*
X0155170Y0159905D01*
X0155170Y0155906D01*
X0158025Y0155906D01*
X0158724Y0156016D01*
X0159398Y0156235D01*
X0160029Y0156557D01*
X0160602Y0156973D01*
X0161103Y0157474D01*
X0161519Y0158047D01*
X0161841Y0158678D01*
X0162060Y0159352D01*
X0162147Y0159906D01*
X0155171Y0159906D01*
X0155171Y0160905D01*
X0162147Y0160905D01*
X0162060Y0161459D01*
X0161841Y0162133D01*
X0161519Y0162764D01*
X0161103Y0163337D01*
X0160602Y0163838D01*
X0160029Y0164254D01*
X0159398Y0164576D01*
X0158724Y0164795D01*
X0158025Y0164905D01*
X0155170Y0164905D01*
X0155170Y0160906D01*
X0154170Y0160906D01*
X0154170Y0164905D01*
X0151316Y0164905D01*
X0150617Y0164795D01*
X0149943Y0164576D01*
X0149312Y0164254D01*
X0148739Y0163838D01*
X0148318Y0163417D01*
X0148318Y0174345D01*
X0148782Y0173882D01*
X0150656Y0173106D01*
X0158685Y0173106D01*
X0160559Y0173882D01*
X0161994Y0175317D01*
X0162770Y0177191D01*
X0162770Y0179220D01*
X0161994Y0181094D01*
X0160559Y0182529D01*
X0158685Y0183305D01*
X0152305Y0183305D01*
X0150818Y0184792D01*
X0150818Y0185709D01*
X0152002Y0185709D01*
X0153232Y0186940D01*
X0153232Y0193797D01*
X0152921Y0194109D01*
X0153232Y0194420D01*
X0153232Y0200051D01*
X0154295Y0201115D01*
X0158520Y0201115D01*
X0158520Y0200877D01*
X0159750Y0199646D01*
X0166214Y0199646D01*
X0167116Y0200548D01*
X0168018Y0199646D01*
X0168119Y0199646D01*
X0168119Y0144792D01*
X0164246Y0140919D01*
X0163514Y0140188D01*
X0159811Y0136484D01*
X0159126Y0136484D01*
X0152118Y0143492D01*
X0152118Y0144491D01*
X0151525Y0145924D01*
X0150428Y0147021D01*
X0148994Y0147615D01*
X0147443Y0147615D01*
X0146009Y0147021D01*
X0144912Y0145924D01*
X0144319Y0144491D01*
X0144319Y0142939D01*
X0144912Y0141506D01*
X0146009Y0140409D01*
X0147443Y0139815D01*
X0148442Y0139815D01*
X0151772Y0136484D01*
X0149593Y0136484D01*
X0149423Y0136315D01*
X0143834Y0136315D01*
X0144025Y0136506D01*
X0144618Y0137939D01*
X0144618Y0139491D01*
X0144025Y0140924D01*
X0142928Y0142021D01*
X0141494Y0142615D01*
X0139943Y0142615D01*
X0138509Y0142021D01*
X0137803Y0141315D01*
X0137289Y0141315D01*
X0137054Y0141550D01*
X0137759Y0142523D02*
X0139721Y0142523D01*
X0141716Y0142523D02*
X0144491Y0142523D01*
X0144319Y0143521D02*
X0137759Y0143521D01*
X0137759Y0144520D02*
X0144331Y0144520D01*
X0144744Y0145518D02*
X0137759Y0145518D01*
X0137759Y0146517D02*
X0145505Y0146517D01*
X0147203Y0147515D02*
X0138196Y0147515D01*
X0139194Y0148514D02*
X0168119Y0148514D01*
X0168119Y0149513D02*
X0140193Y0149513D01*
X0141191Y0150511D02*
X0168119Y0150511D01*
X0168119Y0151510D02*
X0142190Y0151510D01*
X0143189Y0152508D02*
X0168119Y0152508D01*
X0168119Y0153507D02*
X0144187Y0153507D01*
X0145186Y0154505D02*
X0168119Y0154505D01*
X0168119Y0155504D02*
X0146184Y0155504D01*
X0147183Y0156502D02*
X0149419Y0156502D01*
X0148219Y0157501D02*
X0148030Y0157501D01*
X0145719Y0158715D02*
X0145719Y0188715D01*
X0148179Y0190369D01*
X0148219Y0188715D01*
X0148219Y0183715D01*
X0153219Y0178715D01*
X0154670Y0178206D01*
X0149760Y0173477D02*
X0148318Y0173477D01*
X0148318Y0172478D02*
X0168119Y0172478D01*
X0168119Y0171480D02*
X0148318Y0171480D01*
X0148318Y0170481D02*
X0168119Y0170481D01*
X0168119Y0169483D02*
X0148318Y0169483D01*
X0148318Y0168484D02*
X0168119Y0168484D01*
X0168119Y0167486D02*
X0148318Y0167486D01*
X0148318Y0166487D02*
X0168119Y0166487D01*
X0168119Y0165489D02*
X0148318Y0165489D01*
X0148318Y0164490D02*
X0149775Y0164490D01*
X0148393Y0163492D02*
X0148318Y0163492D01*
X0145719Y0158715D02*
X0133219Y0146215D01*
X0131722Y0145487D01*
X0143424Y0141524D02*
X0144905Y0141524D01*
X0144190Y0140526D02*
X0145892Y0140526D01*
X0144603Y0139527D02*
X0148729Y0139527D01*
X0149728Y0138529D02*
X0144618Y0138529D01*
X0144449Y0137530D02*
X0150726Y0137530D01*
X0151725Y0136532D02*
X0144036Y0136532D01*
X0148219Y0143715D02*
X0160502Y0131431D01*
X0160719Y0133715D01*
X0165719Y0138715D01*
X0165719Y0113715D01*
X0160719Y0108715D01*
X0160502Y0108203D01*
X0165161Y0108574D02*
X0188479Y0108574D01*
X0188363Y0108294D02*
X0189246Y0110426D01*
X0190878Y0112057D01*
X0191078Y0112140D01*
X0190878Y0112223D01*
X0189246Y0113855D01*
X0188363Y0115986D01*
X0188363Y0118294D01*
X0189246Y0120426D01*
X0190878Y0122057D01*
X0191078Y0122140D01*
X0190878Y0122223D01*
X0189246Y0123855D01*
X0188363Y0125986D01*
X0188363Y0128294D01*
X0189246Y0130426D01*
X0190878Y0132057D01*
X0191875Y0132470D01*
X0191438Y0132693D01*
X0190776Y0133174D01*
X0190197Y0133753D01*
X0189716Y0134415D01*
X0189344Y0135144D01*
X0189091Y0135922D01*
X0188978Y0136640D01*
X0193663Y0136640D01*
X0193663Y0137640D01*
X0188978Y0137640D01*
X0189091Y0138358D01*
X0189344Y0139136D01*
X0189716Y0139866D01*
X0190197Y0140528D01*
X0190776Y0141106D01*
X0191438Y0141588D01*
X0192167Y0141959D01*
X0192946Y0142212D01*
X0193663Y0142326D01*
X0193663Y0137640D01*
X0194663Y0137640D01*
X0194663Y0142326D01*
X0195381Y0142212D01*
X0196159Y0141959D01*
X0196889Y0141588D01*
X0197169Y0141384D01*
X0197169Y0194372D01*
X0195355Y0191657D01*
X0192099Y0189481D01*
X0188258Y0188717D01*
X0184417Y0189481D01*
X0181161Y0191657D01*
X0178985Y0194913D01*
X0178221Y0198754D01*
X0178985Y0202595D01*
X0181161Y0205852D01*
X0183875Y0207665D01*
X0175388Y0207665D01*
X0175712Y0207341D01*
X0175712Y0200877D01*
X0174482Y0199646D01*
X0173318Y0199646D01*
X0173318Y0181466D01*
X0174382Y0182529D01*
X0176256Y0183305D01*
X0184285Y0183305D01*
X0186159Y0182529D01*
X0187594Y0181094D01*
X0188370Y0179220D01*
X0188370Y0177191D01*
X0187594Y0175317D01*
X0186159Y0173882D01*
X0184285Y0173106D01*
X0176256Y0173106D01*
X0174382Y0173882D01*
X0173318Y0174945D01*
X0173318Y0162561D01*
X0173422Y0162764D01*
X0173838Y0163337D01*
X0174339Y0163838D01*
X0174912Y0164254D01*
X0175543Y0164576D01*
X0176217Y0164795D01*
X0176916Y0164905D01*
X0179770Y0164905D01*
X0179770Y0160906D01*
X0180770Y0160906D01*
X0180770Y0164905D01*
X0183625Y0164905D01*
X0184324Y0164795D01*
X0184998Y0164576D01*
X0185629Y0164254D01*
X0186202Y0163838D01*
X0186703Y0163337D01*
X0187119Y0162764D01*
X0187441Y0162133D01*
X0187660Y0161459D01*
X0187747Y0160905D01*
X0180771Y0160905D01*
X0180771Y0159906D01*
X0187747Y0159906D01*
X0187660Y0159352D01*
X0187441Y0158678D01*
X0187119Y0158047D01*
X0186703Y0157474D01*
X0186202Y0156973D01*
X0185629Y0156557D01*
X0184998Y0156235D01*
X0184324Y0156016D01*
X0183625Y0155906D01*
X0180770Y0155906D01*
X0180770Y0159905D01*
X0179770Y0159905D01*
X0179770Y0155906D01*
X0176916Y0155906D01*
X0176217Y0156016D01*
X0175543Y0156235D01*
X0174912Y0156557D01*
X0174339Y0156973D01*
X0173838Y0157474D01*
X0173422Y0158047D01*
X0173318Y0158250D01*
X0173318Y0143198D01*
X0172923Y0142242D01*
X0168318Y0137638D01*
X0168318Y0113198D01*
X0167923Y0112242D01*
X0167191Y0111511D01*
X0165161Y0109481D01*
X0165161Y0104381D01*
X0163931Y0103150D01*
X0157073Y0103150D01*
X0156762Y0103462D01*
X0156451Y0103150D01*
X0149593Y0103150D01*
X0148363Y0104381D01*
X0148363Y0107394D01*
X0140942Y0114815D01*
X0139943Y0114815D01*
X0138509Y0115409D01*
X0137412Y0116506D01*
X0136819Y0117939D01*
X0136819Y0118540D01*
X0136580Y0118302D01*
X0136238Y0118105D01*
X0135857Y0118002D01*
X0132222Y0118002D01*
X0132222Y0121365D01*
X0131222Y0121365D01*
X0131222Y0118002D01*
X0128318Y0118002D01*
X0128318Y0112292D01*
X0148614Y0091996D01*
X0151037Y0091996D01*
X0152267Y0090766D01*
X0152267Y0088635D01*
X0152701Y0088815D01*
X0153203Y0088815D01*
X0153374Y0088986D01*
X0153297Y0089120D01*
X0153195Y0089502D01*
X0153195Y0090888D01*
X0155884Y0090888D01*
X0155884Y0091266D01*
X0153195Y0091266D01*
X0153195Y0092653D01*
X0153297Y0093034D01*
X0153495Y0093376D01*
X0153774Y0093655D01*
X0154116Y0093853D01*
X0154497Y0093955D01*
X0155884Y0093955D01*
X0155884Y0091266D01*
X0156262Y0091266D01*
X0158951Y0091266D01*
X0158951Y0092653D01*
X0158849Y0093034D01*
X0158651Y0093376D01*
X0158372Y0093655D01*
X0158030Y0093853D01*
X0157648Y0093955D01*
X0156262Y0093955D01*
X0156262Y0091266D01*
X0156262Y0090888D01*
X0158951Y0090888D01*
X0158951Y0089502D01*
X0158849Y0089120D01*
X0158771Y0088986D01*
X0159551Y0088207D01*
X0159551Y0083711D01*
X0158321Y0082481D01*
X0153825Y0082481D01*
X0153493Y0082813D01*
X0152923Y0082242D01*
X0152191Y0081511D01*
X0151236Y0081115D01*
X0140269Y0081115D01*
X0140872Y0080865D01*
X0141548Y0080190D01*
X0141913Y0079308D01*
X0141913Y0077329D01*
X0141963Y0077354D01*
X0142915Y0077422D01*
X0143821Y0077120D01*
X0144065Y0076908D01*
X0144175Y0077018D01*
X0144186Y0077029D01*
X0144186Y0077029D01*
X0144544Y0077177D01*
X0145068Y0077394D01*
X0146756Y0077394D01*
X0147266Y0077183D01*
X0147639Y0077029D01*
X0148314Y0076353D01*
X0148314Y0076353D01*
X0148372Y0076295D01*
X0148372Y0076295D01*
X0149048Y0075619D01*
X0149048Y0075619D01*
X0149048Y0075619D01*
X0149115Y0075458D01*
X0149413Y0074737D01*
X0149413Y0072315D01*
X0149113Y0071591D01*
X0149413Y0070867D01*
X0149413Y0066977D01*
X0149113Y0066253D01*
X0149413Y0065530D01*
X0149413Y0063107D01*
X0149113Y0062383D01*
X0149413Y0061660D01*
X0149413Y0057769D01*
X0149048Y0056887D01*
X0148372Y0056212D01*
X0147490Y0055846D01*
X0146536Y0055846D01*
X0145653Y0056212D01*
X0145178Y0056687D01*
X0144703Y0056212D01*
X0143821Y0055846D01*
X0142866Y0055846D01*
X0141984Y0056212D01*
X0140575Y0057621D01*
X0140209Y0058503D01*
X0140209Y0060926D01*
X0140516Y0061667D01*
X0140575Y0061808D01*
X0140575Y0061808D01*
X0140783Y0062016D01*
X0140575Y0062225D01*
X0140209Y0063107D01*
X0140209Y0063518D01*
X0137223Y0062025D01*
X0136271Y0061957D01*
X0135365Y0062259D01*
X0134644Y0062885D01*
X0134217Y0063739D01*
X0134149Y0064691D01*
X0134451Y0065597D01*
X0134673Y0065853D01*
X0134451Y0066109D01*
X0134149Y0067015D01*
X0134168Y0067270D01*
X0133750Y0067688D01*
X0133075Y0068363D01*
X0132709Y0069245D01*
X0132709Y0071668D01*
X0133008Y0072388D01*
X0133075Y0072550D01*
X0133075Y0072550D01*
X0133750Y0073225D01*
X0133809Y0073284D01*
X0133809Y0073284D01*
X0134434Y0073910D01*
X0133075Y0075269D01*
X0132709Y0076151D01*
X0132709Y0078574D01*
X0133016Y0079315D01*
X0133075Y0079456D01*
X0133075Y0079456D01*
X0133075Y0079456D01*
X0133750Y0080131D01*
X0133750Y0080131D01*
X0133809Y0080190D01*
X0133809Y0080190D01*
X0134473Y0080854D01*
X0134484Y0080865D01*
X0134484Y0080865D01*
X0134842Y0081013D01*
X0135087Y0081115D01*
X0126795Y0081115D01*
X0115423Y0069742D01*
X0114944Y0069263D01*
X0114944Y0067246D01*
X0114061Y0065115D01*
X0113146Y0064200D01*
X0115297Y0064200D01*
X0117429Y0063317D01*
X0119061Y0061685D01*
X0119944Y0059554D01*
X0119944Y0057246D01*
X0119061Y0055115D01*
X0117429Y0053483D01*
X0115297Y0052600D01*
X0112990Y0052600D01*
X0110858Y0053483D01*
X0109227Y0055115D01*
X0109144Y0055315D01*
X0109061Y0055115D01*
X0107429Y0053483D01*
X0105297Y0052600D01*
X0102990Y0052600D01*
X0100858Y0053483D01*
X0099227Y0055115D01*
X0099144Y0055315D01*
X0099061Y0055115D01*
X0097429Y0053483D01*
X0095297Y0052600D01*
X0092990Y0052600D01*
X0090858Y0053483D01*
X0089227Y0055115D01*
X0088344Y0057246D01*
X0088344Y0057413D01*
X0081014Y0064742D01*
X0080619Y0065698D01*
X0080619Y0071732D01*
X0081014Y0072688D01*
X0081746Y0073419D01*
X0085619Y0077292D01*
X0085619Y0084447D01*
X0085370Y0084695D01*
X0085370Y0092341D01*
X0086601Y0093571D01*
X0093458Y0093571D01*
X0093770Y0093260D01*
X0094081Y0093571D01*
X0100939Y0093571D01*
X0102169Y0092341D01*
X0102169Y0085941D01*
X0113219Y0074892D01*
X0124246Y0085919D01*
X0125201Y0086315D01*
X0129719Y0086315D01*
X0129246Y0086511D01*
X0121018Y0094738D01*
X0120514Y0094529D01*
X0118207Y0094529D01*
X0116075Y0095412D01*
X0115789Y0095698D01*
X0115729Y0089515D01*
X0116407Y0088838D01*
X0117000Y0087404D01*
X0117000Y0085853D01*
X0116407Y0084419D01*
X0115310Y0083322D01*
X0113876Y0082728D01*
X0112325Y0082728D01*
X0110891Y0083322D01*
X0109794Y0084419D01*
X0109200Y0085853D01*
X0109200Y0087404D01*
X0109794Y0088838D01*
X0110529Y0089572D01*
X0110619Y0098727D01*
X0110619Y0161732D01*
X0111014Y0162688D01*
X0111746Y0163419D01*
X0125685Y0177359D01*
X0125685Y0180106D01*
X0078704Y0180106D01*
X0078704Y0176906D01*
X0102191Y0153419D01*
X0102923Y0152688D01*
X0103318Y0151732D01*
X0103318Y0113198D01*
X0102923Y0112242D01*
X0043318Y0052638D01*
X0043318Y0052292D01*
X0056247Y0039364D01*
X0061883Y0039364D01*
X0063758Y0038587D01*
X0065192Y0037153D01*
X0065969Y0035278D01*
X0065969Y0033249D01*
X0065192Y0031375D01*
X0063758Y0029940D01*
X0061883Y0029164D01*
X0053854Y0029164D01*
X0051980Y0029940D01*
X0050545Y0031375D01*
X0049769Y0033249D01*
X0049769Y0035278D01*
X0050545Y0037153D01*
X0050825Y0037432D01*
X0043318Y0044938D01*
X0043318Y0043198D01*
X0042923Y0042242D01*
X0038713Y0038032D01*
X0039592Y0037153D01*
X0040369Y0035278D01*
X0040369Y0033249D01*
X0039592Y0031375D01*
X0038158Y0029940D01*
X0036283Y0029164D01*
X0028254Y0029164D01*
X0026380Y0029940D01*
X0024945Y0031375D01*
X0024169Y0033249D01*
X0024169Y0035278D01*
X0024945Y0037153D01*
X0026380Y0038587D01*
X0028254Y0039364D01*
X0032690Y0039364D01*
X0038119Y0044792D01*
X0038119Y0048572D01*
X0037627Y0048215D01*
X0036996Y0047893D01*
X0036323Y0047675D01*
X0035623Y0047564D01*
X0032769Y0047564D01*
X0032769Y0051564D01*
X0031769Y0051564D01*
X0024792Y0051564D01*
X0024880Y0051010D01*
X0025099Y0050336D01*
X0025420Y0049705D01*
X0025836Y0049132D01*
X0026337Y0048631D01*
X0026910Y0048215D01*
X0027541Y0047893D01*
X0028215Y0047675D01*
X0028915Y0047564D01*
X0031769Y0047564D01*
X0031769Y0051564D01*
X0031769Y0052564D01*
X0031769Y0056564D01*
X0028915Y0056564D01*
X0028215Y0056453D01*
X0027541Y0056234D01*
X0026910Y0055913D01*
X0026337Y0055496D01*
X0025836Y0054995D01*
X0025420Y0054422D01*
X0025099Y0053791D01*
X0024880Y0053118D01*
X0024792Y0052564D01*
X0031769Y0052564D01*
X0032769Y0052564D01*
X0032769Y0056564D01*
X0035623Y0056564D01*
X0036323Y0056453D01*
X0036996Y0056234D01*
X0037627Y0055913D01*
X0038119Y0055556D01*
X0038119Y0063741D01*
X0037349Y0063741D01*
X0036119Y0064971D01*
X0036119Y0072616D01*
X0037349Y0073846D01*
X0044206Y0073846D01*
X0044518Y0073535D01*
X0044829Y0073846D01*
X0045358Y0073846D01*
X0045358Y0098032D01*
X0045799Y0099098D01*
X0066630Y0119929D01*
X0066630Y0121202D01*
X0048032Y0139800D01*
X0047217Y0140616D01*
X0046775Y0141681D01*
X0046775Y0163315D01*
X0044488Y0163315D01*
X0044488Y0157373D01*
X0043258Y0156143D01*
X0038618Y0156143D01*
X0038618Y0148411D01*
X0039120Y0147909D01*
X0039254Y0147987D01*
X0039635Y0148089D01*
X0041892Y0148089D01*
X0041892Y0144136D01*
X0042892Y0144136D01*
X0046451Y0144136D01*
X0046451Y0146786D01*
X0046349Y0147168D01*
X0046151Y0147510D01*
X0045872Y0147789D01*
X0045530Y0147987D01*
X0045148Y0148089D01*
X0042892Y0148089D01*
X0042892Y0144136D01*
X0042892Y0143136D01*
X0046451Y0143136D01*
X0046451Y0140486D01*
X0046349Y0140104D01*
X0046151Y0139762D01*
X0045872Y0139483D01*
X0045530Y0139286D01*
X0045148Y0139183D01*
X0042892Y0139183D01*
X0042892Y0143136D01*
X0041892Y0143136D01*
X0041892Y0139183D01*
X0039635Y0139183D01*
X0039254Y0139286D01*
X0039120Y0139363D01*
X0038340Y0138583D01*
X0031483Y0138583D01*
X0030252Y0139814D01*
X0030252Y0147459D01*
X0031483Y0148689D01*
X0032819Y0148689D01*
X0032819Y0156181D01*
X0031626Y0157373D01*
X0031626Y0163315D01*
X0020156Y0163315D01*
X0020156Y0162059D01*
X0018926Y0160829D01*
X0008386Y0160829D01*
X0007156Y0162059D01*
X0007156Y0168599D01*
X0008386Y0169829D01*
X0018926Y0169829D01*
X0019640Y0169115D01*
X0031626Y0169115D01*
X0031626Y0173286D01*
X0032857Y0174516D01*
X0043258Y0174516D01*
X0044488Y0173286D01*
X0044488Y0169115D01*
X0052575Y0169115D01*
X0052575Y0171160D01*
X0053805Y0172390D01*
X0061451Y0172390D01*
X0062681Y0171160D01*
X0062681Y0164302D01*
X0062369Y0163991D01*
X0062545Y0163815D01*
X0066630Y0163815D01*
X0066630Y0164467D01*
X0067335Y0165172D01*
X0066630Y0165877D01*
X0066630Y0172341D01*
X0067335Y0173046D01*
X0066630Y0173751D01*
X0066630Y0180215D01*
X0067734Y0181319D01*
X0067689Y0181364D01*
X0067248Y0182429D01*
X0067248Y0207665D01*
X0019412Y0207665D01*
X0022127Y0205852D01*
X0024302Y0202595D01*
X0025067Y0198754D01*
X0024302Y0194913D01*
X0022127Y0191657D01*
X0018871Y0189481D01*
X0015030Y0188717D01*
X0011189Y0189481D01*
X0007932Y0191657D01*
X0006118Y0194372D01*
X0006118Y0029909D01*
X0007932Y0032623D01*
X0011189Y0034799D01*
X0015030Y0035563D01*
X0018871Y0034799D01*
X0022127Y0032623D01*
X0024302Y0029367D01*
X0025067Y0025526D01*
X0024302Y0021685D01*
X0022127Y0018429D01*
X0019412Y0016615D01*
X0134914Y0016615D01*
X0134543Y0016986D01*
X0134177Y0017868D01*
X0134177Y0021025D01*
X0134450Y0021683D01*
X0133750Y0022383D01*
X0133750Y0022383D01*
X0133075Y0023058D01*
X0132709Y0023940D01*
X0132709Y0024895D01*
X0133075Y0025777D01*
X0133750Y0026452D01*
X0134632Y0026817D01*
X0137301Y0026817D01*
X0137478Y0027245D01*
X0138153Y0027920D01*
X0139036Y0028285D01*
X0139990Y0028285D01*
X0140267Y0028171D01*
X0140575Y0028913D01*
X0141250Y0029588D01*
X0141677Y0029765D01*
X0141677Y0030233D01*
X0141977Y0030956D01*
X0141677Y0031680D01*
X0141677Y0032635D01*
X0141783Y0032891D01*
X0141677Y0033148D01*
X0141677Y0034837D01*
X0141818Y0035177D01*
X0141677Y0035517D01*
X0141677Y0035706D01*
X0141335Y0035128D01*
X0140571Y0034555D01*
X0139711Y0034335D01*
X0139711Y0031680D01*
X0139346Y0030798D01*
X0138671Y0030123D01*
X0137789Y0029757D01*
X0136834Y0029757D01*
X0135952Y0030123D01*
X0135277Y0030798D01*
X0134911Y0031680D01*
X0134911Y0034335D01*
X0134051Y0034555D01*
X0133287Y0035128D01*
X0132801Y0035949D01*
X0132666Y0036895D01*
X0132903Y0037819D01*
X0135313Y0041032D01*
X0135489Y0041331D01*
X0135597Y0041412D01*
X0135678Y0041519D01*
X0135976Y0041696D01*
X0136253Y0041904D01*
X0136383Y0041937D01*
X0136499Y0042006D01*
X0136842Y0042055D01*
X0137178Y0042141D01*
X0137311Y0042122D01*
X0137444Y0042141D01*
X0137780Y0042055D01*
X0138123Y0042006D01*
X0138239Y0041937D01*
X0138369Y0041904D01*
X0138646Y0041696D01*
X0138945Y0041519D01*
X0139025Y0041411D01*
X0139133Y0041331D01*
X0139310Y0041033D01*
X0141719Y0037819D01*
X0141917Y0037050D01*
X0142043Y0037354D01*
X0142151Y0037462D01*
X0142043Y0037570D01*
X0141677Y0038452D01*
X0141677Y0039407D01*
X0141977Y0040131D01*
X0141677Y0040855D01*
X0141677Y0043277D01*
X0141977Y0044001D01*
X0141677Y0044724D01*
X0141677Y0044923D01*
X0141548Y0044610D01*
X0140872Y0043935D01*
X0139990Y0043569D01*
X0134632Y0043569D01*
X0133750Y0043935D01*
X0133075Y0044610D01*
X0132709Y0045492D01*
X0132709Y0049382D01*
X0133009Y0050106D01*
X0132709Y0050830D01*
X0132709Y0053252D01*
X0133009Y0053976D01*
X0132709Y0054700D01*
X0132709Y0057856D01*
X0133008Y0058577D01*
X0133075Y0058738D01*
X0133075Y0058738D01*
X0133075Y0058738D01*
X0133750Y0059414D01*
X0133809Y0059472D01*
X0133809Y0059472D01*
X0134484Y0060148D01*
X0134856Y0060302D01*
X0135366Y0060513D01*
X0137789Y0060513D01*
X0138313Y0060296D01*
X0138671Y0060148D01*
X0138671Y0060148D01*
X0138681Y0060137D01*
X0139346Y0059472D01*
X0139346Y0059472D01*
X0139405Y0059414D01*
X0140080Y0058738D01*
X0140080Y0058738D01*
X0140080Y0058738D01*
X0140138Y0058597D01*
X0140445Y0057856D01*
X0140445Y0057389D01*
X0140872Y0057212D01*
X0141548Y0056537D01*
X0141913Y0055654D01*
X0141913Y0054700D01*
X0141613Y0053976D01*
X0141913Y0053252D01*
X0141913Y0053021D01*
X0142043Y0053334D01*
X0142718Y0054009D01*
X0143600Y0054374D01*
X0148224Y0054374D01*
X0148748Y0054157D01*
X0149106Y0054009D01*
X0149106Y0054009D01*
X0149117Y0053998D01*
X0149782Y0053334D01*
X0149782Y0053334D01*
X0149840Y0053275D01*
X0150516Y0052600D01*
X0150516Y0052600D01*
X0150516Y0052600D01*
X0150574Y0052459D01*
X0150881Y0051718D01*
X0150881Y0050029D01*
X0150516Y0049147D01*
X0149840Y0048472D01*
X0148958Y0048106D01*
X0148741Y0048106D01*
X0148372Y0047738D01*
X0148018Y0047383D01*
X0148372Y0047237D01*
X0149048Y0046561D01*
X0149413Y0045679D01*
X0149413Y0044724D01*
X0149265Y0044368D01*
X0149413Y0044011D01*
X0149413Y0040855D01*
X0149113Y0040131D01*
X0149413Y0039407D01*
X0149413Y0036251D01*
X0149048Y0035369D01*
X0148018Y0034339D01*
X0148372Y0034192D01*
X0149048Y0033517D01*
X0149413Y0032635D01*
X0149413Y0031680D01*
X0149113Y0030956D01*
X0149115Y0030953D01*
X0149413Y0030233D01*
X0149413Y0027076D01*
X0149113Y0026352D01*
X0149413Y0025629D01*
X0149413Y0023206D01*
X0149048Y0022324D01*
X0148314Y0021590D01*
X0147639Y0020915D01*
X0147230Y0020746D01*
X0147490Y0020746D01*
X0148372Y0020380D01*
X0149048Y0019705D01*
X0149413Y0018823D01*
X0149413Y0017868D01*
X0149048Y0016986D01*
X0148676Y0016615D01*
X0183875Y0016615D01*
X0181161Y0018429D01*
X0178985Y0021685D01*
X0178221Y0025526D01*
X0178985Y0029367D01*
X0181161Y0032623D01*
X0184417Y0034799D01*
X0188258Y0035563D01*
X0192099Y0034799D01*
X0195355Y0032623D01*
X0197169Y0029909D01*
X0197169Y0081340D01*
X0189594Y0081340D01*
X0188363Y0082570D01*
X0188363Y0091710D01*
X0189594Y0092940D01*
X0190161Y0092940D01*
X0189246Y0093855D01*
X0188363Y0095986D01*
X0188363Y0098294D01*
X0189246Y0100426D01*
X0190878Y0102057D01*
X0191078Y0102140D01*
X0190878Y0102223D01*
X0189246Y0103855D01*
X0188363Y0105986D01*
X0188363Y0108294D01*
X0188363Y0107575D02*
X0165161Y0107575D01*
X0165161Y0106577D02*
X0188363Y0106577D01*
X0188533Y0105578D02*
X0165161Y0105578D01*
X0165161Y0104579D02*
X0188946Y0104579D01*
X0189520Y0103581D02*
X0164361Y0103581D01*
X0165253Y0109572D02*
X0188893Y0109572D01*
X0189391Y0110571D02*
X0166251Y0110571D01*
X0167250Y0111569D02*
X0190390Y0111569D01*
X0190534Y0112568D02*
X0168057Y0112568D01*
X0168318Y0113566D02*
X0189535Y0113566D01*
X0188952Y0114565D02*
X0168318Y0114565D01*
X0168318Y0115563D02*
X0188539Y0115563D01*
X0188363Y0116562D02*
X0168318Y0116562D01*
X0168318Y0117560D02*
X0188363Y0117560D01*
X0188473Y0118559D02*
X0168318Y0118559D01*
X0168318Y0119557D02*
X0188887Y0119557D01*
X0189376Y0120556D02*
X0168318Y0120556D01*
X0168318Y0121554D02*
X0190375Y0121554D01*
X0190548Y0122553D02*
X0168318Y0122553D01*
X0168318Y0123551D02*
X0189550Y0123551D01*
X0188959Y0124550D02*
X0168318Y0124550D01*
X0168318Y0125548D02*
X0188545Y0125548D01*
X0188363Y0126547D02*
X0168318Y0126547D01*
X0168318Y0127545D02*
X0188363Y0127545D01*
X0188467Y0128544D02*
X0168318Y0128544D01*
X0168318Y0129542D02*
X0188881Y0129542D01*
X0189362Y0130541D02*
X0168318Y0130541D01*
X0168318Y0131539D02*
X0190360Y0131539D01*
X0191742Y0132538D02*
X0168318Y0132538D01*
X0168318Y0133536D02*
X0190413Y0133536D01*
X0189655Y0134535D02*
X0168318Y0134535D01*
X0168318Y0135533D02*
X0189218Y0135533D01*
X0188995Y0136532D02*
X0168318Y0136532D01*
X0168318Y0137530D02*
X0193663Y0137530D01*
X0193663Y0138529D02*
X0194663Y0138529D01*
X0194663Y0139527D02*
X0193663Y0139527D01*
X0193663Y0140526D02*
X0194663Y0140526D01*
X0194663Y0141524D02*
X0193663Y0141524D01*
X0191351Y0141524D02*
X0172205Y0141524D01*
X0173039Y0142523D02*
X0197169Y0142523D01*
X0197169Y0143521D02*
X0173318Y0143521D01*
X0173318Y0144520D02*
X0197169Y0144520D01*
X0197169Y0145518D02*
X0173318Y0145518D01*
X0173318Y0146517D02*
X0197169Y0146517D01*
X0197169Y0147515D02*
X0173318Y0147515D01*
X0173318Y0148514D02*
X0197169Y0148514D01*
X0197169Y0149513D02*
X0173318Y0149513D01*
X0173318Y0150511D02*
X0197169Y0150511D01*
X0197169Y0151510D02*
X0173318Y0151510D01*
X0173318Y0152508D02*
X0197169Y0152508D01*
X0197169Y0153507D02*
X0173318Y0153507D01*
X0173318Y0154505D02*
X0197169Y0154505D01*
X0197169Y0155504D02*
X0173318Y0155504D01*
X0173318Y0156502D02*
X0175019Y0156502D01*
X0173819Y0157501D02*
X0173318Y0157501D01*
X0168119Y0157501D02*
X0161122Y0157501D01*
X0161750Y0158499D02*
X0168119Y0158499D01*
X0168119Y0159498D02*
X0162083Y0159498D01*
X0162048Y0161495D02*
X0168119Y0161495D01*
X0168119Y0162493D02*
X0161657Y0162493D01*
X0160948Y0163492D02*
X0168119Y0163492D01*
X0168119Y0164490D02*
X0159566Y0164490D01*
X0155170Y0164490D02*
X0154170Y0164490D01*
X0154170Y0163492D02*
X0155170Y0163492D01*
X0155170Y0162493D02*
X0154170Y0162493D01*
X0154170Y0161495D02*
X0155170Y0161495D01*
X0155171Y0160496D02*
X0168119Y0160496D01*
X0168119Y0156502D02*
X0159922Y0156502D01*
X0155170Y0156502D02*
X0154170Y0156502D01*
X0154170Y0157501D02*
X0155170Y0157501D01*
X0155170Y0158499D02*
X0154170Y0158499D01*
X0154170Y0159498D02*
X0155170Y0159498D01*
X0149234Y0147515D02*
X0168119Y0147515D01*
X0168119Y0146517D02*
X0150932Y0146517D01*
X0151693Y0145518D02*
X0168119Y0145518D01*
X0167847Y0144520D02*
X0152106Y0144520D01*
X0152118Y0143521D02*
X0166848Y0143521D01*
X0165850Y0142523D02*
X0153087Y0142523D01*
X0154086Y0141524D02*
X0164851Y0141524D01*
X0163852Y0140526D02*
X0155084Y0140526D01*
X0156083Y0139527D02*
X0162854Y0139527D01*
X0161855Y0138529D02*
X0157082Y0138529D01*
X0158080Y0137530D02*
X0160857Y0137530D01*
X0159858Y0136532D02*
X0159079Y0136532D01*
X0165719Y0138715D02*
X0170719Y0143715D01*
X0170719Y0203715D01*
X0171250Y0204109D01*
X0175712Y0204431D02*
X0180211Y0204431D01*
X0180878Y0205429D02*
X0175712Y0205429D01*
X0175712Y0206428D02*
X0182023Y0206428D01*
X0183517Y0207426D02*
X0175627Y0207426D01*
X0175712Y0203432D02*
X0179544Y0203432D01*
X0178953Y0202434D02*
X0175712Y0202434D01*
X0175712Y0201435D02*
X0178754Y0201435D01*
X0178555Y0200437D02*
X0175272Y0200437D01*
X0173318Y0199438D02*
X0178357Y0199438D01*
X0178283Y0198440D02*
X0173318Y0198440D01*
X0173318Y0197441D02*
X0178482Y0197441D01*
X0178681Y0196443D02*
X0173318Y0196443D01*
X0173318Y0195444D02*
X0178879Y0195444D01*
X0179297Y0194446D02*
X0173318Y0194446D01*
X0173318Y0193447D02*
X0179965Y0193447D01*
X0180632Y0192448D02*
X0173318Y0192448D01*
X0173318Y0191450D02*
X0181471Y0191450D01*
X0182965Y0190451D02*
X0173318Y0190451D01*
X0173318Y0189453D02*
X0184560Y0189453D01*
X0191956Y0189453D02*
X0197169Y0189453D01*
X0197169Y0190451D02*
X0193551Y0190451D01*
X0195045Y0191450D02*
X0197169Y0191450D01*
X0197169Y0192448D02*
X0195884Y0192448D01*
X0196551Y0193447D02*
X0197169Y0193447D01*
X0197169Y0188454D02*
X0173318Y0188454D01*
X0173318Y0187456D02*
X0197169Y0187456D01*
X0197169Y0186457D02*
X0173318Y0186457D01*
X0173318Y0185459D02*
X0197169Y0185459D01*
X0197169Y0184460D02*
X0173318Y0184460D01*
X0173318Y0183462D02*
X0197169Y0183462D01*
X0197169Y0182463D02*
X0186225Y0182463D01*
X0187224Y0181465D02*
X0197169Y0181465D01*
X0197169Y0180466D02*
X0187854Y0180466D01*
X0188268Y0179468D02*
X0197169Y0179468D01*
X0197169Y0178469D02*
X0188370Y0178469D01*
X0188370Y0177471D02*
X0197169Y0177471D01*
X0197169Y0176472D02*
X0188073Y0176472D01*
X0187659Y0175474D02*
X0197169Y0175474D01*
X0197169Y0174475D02*
X0186753Y0174475D01*
X0185181Y0173477D02*
X0197169Y0173477D01*
X0197169Y0172478D02*
X0173318Y0172478D01*
X0173318Y0171480D02*
X0197169Y0171480D01*
X0197169Y0170481D02*
X0173318Y0170481D01*
X0173318Y0169483D02*
X0197169Y0169483D01*
X0197169Y0168484D02*
X0173318Y0168484D01*
X0173318Y0167486D02*
X0197169Y0167486D01*
X0197169Y0166487D02*
X0173318Y0166487D01*
X0173318Y0165489D02*
X0197169Y0165489D01*
X0197169Y0164490D02*
X0185166Y0164490D01*
X0186548Y0163492D02*
X0197169Y0163492D01*
X0197169Y0162493D02*
X0187257Y0162493D01*
X0187648Y0161495D02*
X0197169Y0161495D01*
X0197169Y0160496D02*
X0180771Y0160496D01*
X0180770Y0159498D02*
X0179770Y0159498D01*
X0179770Y0158499D02*
X0180770Y0158499D01*
X0180770Y0157501D02*
X0179770Y0157501D01*
X0179770Y0156502D02*
X0180770Y0156502D01*
X0185522Y0156502D02*
X0197169Y0156502D01*
X0197169Y0157501D02*
X0186722Y0157501D01*
X0187350Y0158499D02*
X0197169Y0158499D01*
X0197169Y0159498D02*
X0187683Y0159498D01*
X0180770Y0161495D02*
X0179770Y0161495D01*
X0179770Y0162493D02*
X0180770Y0162493D01*
X0180770Y0163492D02*
X0179770Y0163492D01*
X0179770Y0164490D02*
X0180770Y0164490D01*
X0175375Y0164490D02*
X0173318Y0164490D01*
X0173318Y0163492D02*
X0173993Y0163492D01*
X0173318Y0173477D02*
X0175360Y0173477D01*
X0173788Y0174475D02*
X0173318Y0174475D01*
X0168119Y0174475D02*
X0161153Y0174475D01*
X0162059Y0175474D02*
X0168119Y0175474D01*
X0168119Y0176472D02*
X0162473Y0176472D01*
X0162770Y0177471D02*
X0168119Y0177471D01*
X0168119Y0178469D02*
X0162770Y0178469D01*
X0162668Y0179468D02*
X0168119Y0179468D01*
X0168119Y0180466D02*
X0162254Y0180466D01*
X0161624Y0181465D02*
X0168119Y0181465D01*
X0168119Y0182463D02*
X0160625Y0182463D01*
X0168119Y0183462D02*
X0152149Y0183462D01*
X0151150Y0184460D02*
X0168119Y0184460D01*
X0168119Y0185459D02*
X0150818Y0185459D01*
X0152750Y0186457D02*
X0168119Y0186457D01*
X0168119Y0187456D02*
X0153232Y0187456D01*
X0153232Y0188454D02*
X0168119Y0188454D01*
X0168119Y0189453D02*
X0153232Y0189453D01*
X0153232Y0190451D02*
X0168119Y0190451D01*
X0168119Y0191450D02*
X0153232Y0191450D01*
X0153232Y0192448D02*
X0168119Y0192448D01*
X0168119Y0193447D02*
X0153232Y0193447D01*
X0153232Y0194446D02*
X0168119Y0194446D01*
X0168119Y0195444D02*
X0153232Y0195444D01*
X0153232Y0196443D02*
X0168119Y0196443D01*
X0168119Y0197441D02*
X0153232Y0197441D01*
X0153232Y0198440D02*
X0168119Y0198440D01*
X0168119Y0199438D02*
X0153232Y0199438D01*
X0153617Y0200437D02*
X0158960Y0200437D01*
X0160719Y0203715D02*
X0162982Y0204109D01*
X0160719Y0203715D02*
X0153219Y0203715D01*
X0148219Y0198715D01*
X0148179Y0197849D01*
X0167004Y0200437D02*
X0167228Y0200437D01*
X0173318Y0182463D02*
X0174316Y0182463D01*
X0168119Y0173477D02*
X0159581Y0173477D01*
X0131722Y0176983D02*
X0130719Y0176215D01*
X0128219Y0176215D01*
X0113219Y0161215D01*
X0113219Y0098715D01*
X0113100Y0086628D01*
X0110603Y0083611D02*
X0104500Y0083611D01*
X0105498Y0082612D02*
X0120939Y0082612D01*
X0119940Y0081614D02*
X0106497Y0081614D01*
X0107495Y0080615D02*
X0118942Y0080615D01*
X0117943Y0079617D02*
X0108494Y0079617D01*
X0109492Y0078618D02*
X0116945Y0078618D01*
X0115946Y0077620D02*
X0110491Y0077620D01*
X0111489Y0076621D02*
X0114948Y0076621D01*
X0113949Y0075623D02*
X0112488Y0075623D01*
X0113219Y0071215D02*
X0098219Y0086215D01*
X0097510Y0088518D01*
X0102169Y0088603D02*
X0109697Y0088603D01*
X0109284Y0087605D02*
X0102169Y0087605D01*
X0102169Y0086606D02*
X0109200Y0086606D01*
X0109302Y0085608D02*
X0102503Y0085608D01*
X0103501Y0084609D02*
X0109715Y0084609D01*
X0110529Y0089602D02*
X0102169Y0089602D01*
X0102169Y0090600D02*
X0110539Y0090600D01*
X0110549Y0091599D02*
X0102169Y0091599D01*
X0101912Y0092597D02*
X0110559Y0092597D01*
X0110568Y0093596D02*
X0084276Y0093596D01*
X0083278Y0092597D02*
X0085627Y0092597D01*
X0085370Y0091599D02*
X0082279Y0091599D01*
X0081281Y0090600D02*
X0085370Y0090600D01*
X0085370Y0089602D02*
X0080282Y0089602D01*
X0079284Y0088603D02*
X0085370Y0088603D01*
X0085370Y0087605D02*
X0078285Y0087605D01*
X0077287Y0086606D02*
X0085370Y0086606D01*
X0085370Y0085608D02*
X0076288Y0085608D01*
X0075290Y0084609D02*
X0085457Y0084609D01*
X0085619Y0083611D02*
X0074291Y0083611D01*
X0073293Y0082612D02*
X0085619Y0082612D01*
X0085619Y0081614D02*
X0072294Y0081614D01*
X0071296Y0080615D02*
X0085619Y0080615D01*
X0085619Y0079617D02*
X0070297Y0079617D01*
X0069299Y0078618D02*
X0085619Y0078618D01*
X0085619Y0077620D02*
X0068300Y0077620D01*
X0067302Y0076621D02*
X0084948Y0076621D01*
X0083949Y0075623D02*
X0066303Y0075623D01*
X0065305Y0074624D02*
X0082951Y0074624D01*
X0081952Y0073626D02*
X0064306Y0073626D01*
X0063308Y0072627D02*
X0080989Y0072627D01*
X0080619Y0071629D02*
X0062309Y0071629D01*
X0061311Y0070630D02*
X0080619Y0070630D01*
X0080619Y0069632D02*
X0060312Y0069632D01*
X0059314Y0068633D02*
X0080619Y0068633D01*
X0080619Y0067635D02*
X0058315Y0067635D01*
X0057317Y0066636D02*
X0080619Y0066636D01*
X0080643Y0065638D02*
X0056318Y0065638D01*
X0055320Y0064639D02*
X0081117Y0064639D01*
X0082116Y0063641D02*
X0054321Y0063641D01*
X0053323Y0062642D02*
X0083114Y0062642D01*
X0084113Y0061644D02*
X0052324Y0061644D01*
X0051325Y0060645D02*
X0085112Y0060645D01*
X0086110Y0059646D02*
X0050327Y0059646D01*
X0049328Y0058648D02*
X0087109Y0058648D01*
X0088107Y0057649D02*
X0048330Y0057649D01*
X0047331Y0056651D02*
X0088590Y0056651D01*
X0089004Y0055652D02*
X0063585Y0055652D01*
X0063800Y0055496D02*
X0063227Y0055913D01*
X0062596Y0056234D01*
X0061923Y0056453D01*
X0061223Y0056564D01*
X0058369Y0056564D01*
X0058369Y0052564D01*
X0057369Y0052564D01*
X0057369Y0056564D01*
X0054515Y0056564D01*
X0053815Y0056453D01*
X0053141Y0056234D01*
X0052510Y0055913D01*
X0051937Y0055496D01*
X0051436Y0054995D01*
X0051020Y0054422D01*
X0050699Y0053791D01*
X0050480Y0053118D01*
X0050392Y0052564D01*
X0057369Y0052564D01*
X0057369Y0051564D01*
X0050392Y0051564D01*
X0050480Y0051010D01*
X0050699Y0050336D01*
X0051020Y0049705D01*
X0051436Y0049132D01*
X0051937Y0048631D01*
X0052510Y0048215D01*
X0053141Y0047893D01*
X0053815Y0047675D01*
X0054515Y0047564D01*
X0057369Y0047564D01*
X0057369Y0051564D01*
X0058369Y0051564D01*
X0058369Y0052564D01*
X0065346Y0052564D01*
X0065258Y0053118D01*
X0065039Y0053791D01*
X0064718Y0054422D01*
X0064301Y0054995D01*
X0063800Y0055496D01*
X0064549Y0054654D02*
X0089687Y0054654D01*
X0090686Y0053655D02*
X0065083Y0053655D01*
X0065331Y0052657D02*
X0092853Y0052657D01*
X0095435Y0052657D02*
X0102853Y0052657D01*
X0100686Y0053655D02*
X0097602Y0053655D01*
X0098600Y0054654D02*
X0099687Y0054654D01*
X0093219Y0056215D02*
X0094144Y0058400D01*
X0093219Y0056215D02*
X0083219Y0066215D01*
X0083219Y0071215D01*
X0088219Y0076215D01*
X0088219Y0086215D01*
X0090030Y0088518D01*
X0090818Y0083465D02*
X0093458Y0083465D01*
X0093770Y0083777D01*
X0094081Y0083465D01*
X0097291Y0083465D01*
X0106976Y0073780D01*
X0105858Y0073317D01*
X0104227Y0071685D01*
X0103814Y0070688D01*
X0103591Y0071125D01*
X0103110Y0071788D01*
X0102531Y0072366D01*
X0101869Y0072847D01*
X0101140Y0073219D01*
X0100361Y0073472D01*
X0099644Y0073586D01*
X0099644Y0068900D01*
X0098644Y0068900D01*
X0098644Y0073586D01*
X0097926Y0073472D01*
X0097148Y0073219D01*
X0096418Y0072847D01*
X0095756Y0072366D01*
X0095177Y0071788D01*
X0094696Y0071125D01*
X0094474Y0070688D01*
X0094061Y0071685D01*
X0092429Y0073317D01*
X0090297Y0074200D01*
X0089880Y0074200D01*
X0090423Y0074742D01*
X0090818Y0075698D01*
X0090818Y0083465D01*
X0090818Y0082612D02*
X0098144Y0082612D01*
X0099143Y0081614D02*
X0090818Y0081614D01*
X0090818Y0080615D02*
X0100141Y0080615D01*
X0101140Y0079617D02*
X0090818Y0079617D01*
X0090818Y0078618D02*
X0102138Y0078618D01*
X0103137Y0077620D02*
X0090818Y0077620D01*
X0090818Y0076621D02*
X0104135Y0076621D01*
X0105134Y0075623D02*
X0090787Y0075623D01*
X0090305Y0074624D02*
X0106132Y0074624D01*
X0106603Y0073626D02*
X0091684Y0073626D01*
X0093119Y0072627D02*
X0096115Y0072627D01*
X0095062Y0071629D02*
X0094084Y0071629D01*
X0094474Y0066112D02*
X0094696Y0065675D01*
X0095177Y0065012D01*
X0095756Y0064434D01*
X0096418Y0063953D01*
X0097148Y0063581D01*
X0097926Y0063328D01*
X0098644Y0063214D01*
X0098644Y0067900D01*
X0099644Y0067900D01*
X0099644Y0063214D01*
X0100361Y0063328D01*
X0101140Y0063581D01*
X0101869Y0063953D01*
X0102531Y0064434D01*
X0103110Y0065012D01*
X0103591Y0065675D01*
X0103814Y0066112D01*
X0104227Y0065115D01*
X0105141Y0064200D01*
X0102990Y0064200D01*
X0103219Y0063715D01*
X0102990Y0064200D02*
X0100858Y0063317D01*
X0099227Y0061685D01*
X0099144Y0061485D01*
X0099061Y0061685D01*
X0097429Y0063317D01*
X0095297Y0064200D01*
X0093146Y0064200D01*
X0094061Y0065115D01*
X0094474Y0066112D01*
X0094277Y0065638D02*
X0094723Y0065638D01*
X0095551Y0064639D02*
X0093585Y0064639D01*
X0096648Y0063641D02*
X0097031Y0063641D01*
X0098104Y0062642D02*
X0100183Y0062642D01*
X0099644Y0063641D02*
X0098644Y0063641D01*
X0098644Y0064639D02*
X0099644Y0064639D01*
X0099644Y0065638D02*
X0098644Y0065638D01*
X0098644Y0066636D02*
X0099644Y0066636D01*
X0099644Y0067635D02*
X0098644Y0067635D01*
X0098644Y0069632D02*
X0099644Y0069632D01*
X0099644Y0070630D02*
X0098644Y0070630D01*
X0098644Y0071629D02*
X0099644Y0071629D01*
X0099644Y0072627D02*
X0098644Y0072627D01*
X0102172Y0072627D02*
X0105168Y0072627D01*
X0104203Y0071629D02*
X0103226Y0071629D01*
X0103564Y0065638D02*
X0104010Y0065638D01*
X0104702Y0064639D02*
X0102737Y0064639D01*
X0101639Y0063641D02*
X0101257Y0063641D01*
X0099209Y0061644D02*
X0099078Y0061644D01*
X0107602Y0053655D02*
X0110686Y0053655D01*
X0109687Y0054654D02*
X0108600Y0054654D01*
X0105435Y0052657D02*
X0112853Y0052657D01*
X0115435Y0052657D02*
X0132709Y0052657D01*
X0132709Y0051658D02*
X0058369Y0051658D01*
X0058369Y0051564D02*
X0065346Y0051564D01*
X0065258Y0051010D01*
X0065039Y0050336D01*
X0064718Y0049705D01*
X0064301Y0049132D01*
X0063800Y0048631D01*
X0063227Y0048215D01*
X0062596Y0047893D01*
X0061923Y0047675D01*
X0061223Y0047564D01*
X0058369Y0047564D01*
X0058369Y0051564D01*
X0058369Y0050660D02*
X0057369Y0050660D01*
X0057369Y0051658D02*
X0043952Y0051658D01*
X0043337Y0052657D02*
X0050407Y0052657D01*
X0050654Y0053655D02*
X0044336Y0053655D01*
X0045334Y0054654D02*
X0051188Y0054654D01*
X0052152Y0055652D02*
X0046333Y0055652D01*
X0044951Y0050660D02*
X0050593Y0050660D01*
X0051052Y0049661D02*
X0045949Y0049661D01*
X0046948Y0048663D02*
X0051906Y0048663D01*
X0053880Y0047664D02*
X0047946Y0047664D01*
X0048945Y0046666D02*
X0132709Y0046666D01*
X0132709Y0047664D02*
X0061858Y0047664D01*
X0063832Y0048663D02*
X0132709Y0048663D01*
X0132825Y0049661D02*
X0064686Y0049661D01*
X0065144Y0050660D02*
X0132780Y0050660D01*
X0132876Y0053655D02*
X0117602Y0053655D01*
X0118600Y0054654D02*
X0132728Y0054654D01*
X0132709Y0055652D02*
X0119283Y0055652D01*
X0119697Y0056651D02*
X0132709Y0056651D01*
X0132709Y0057649D02*
X0119944Y0057649D01*
X0119944Y0058648D02*
X0133037Y0058648D01*
X0133983Y0059646D02*
X0119905Y0059646D01*
X0119492Y0060645D02*
X0140209Y0060645D01*
X0140209Y0059646D02*
X0139172Y0059646D01*
X0140117Y0058648D02*
X0140209Y0058648D01*
X0140445Y0057649D02*
X0140563Y0057649D01*
X0141433Y0056651D02*
X0141544Y0056651D01*
X0141913Y0055652D02*
X0197169Y0055652D01*
X0197169Y0054654D02*
X0141894Y0054654D01*
X0141746Y0053655D02*
X0142364Y0053655D01*
X0145142Y0056651D02*
X0145214Y0056651D01*
X0148812Y0056651D02*
X0197169Y0056651D01*
X0197169Y0057649D02*
X0149363Y0057649D01*
X0149413Y0058648D02*
X0197169Y0058648D01*
X0197169Y0059646D02*
X0149413Y0059646D01*
X0149413Y0060645D02*
X0197169Y0060645D01*
X0197169Y0061644D02*
X0149413Y0061644D01*
X0149220Y0062642D02*
X0197169Y0062642D01*
X0197169Y0063641D02*
X0149413Y0063641D01*
X0149413Y0064639D02*
X0197169Y0064639D01*
X0197169Y0065638D02*
X0149368Y0065638D01*
X0149272Y0066636D02*
X0197169Y0066636D01*
X0197169Y0067635D02*
X0149413Y0067635D01*
X0149413Y0068633D02*
X0197169Y0068633D01*
X0197169Y0069632D02*
X0149413Y0069632D01*
X0149413Y0070630D02*
X0197169Y0070630D01*
X0197169Y0071629D02*
X0149129Y0071629D01*
X0149413Y0072627D02*
X0197169Y0072627D01*
X0197169Y0073626D02*
X0149413Y0073626D01*
X0149413Y0074624D02*
X0197169Y0074624D01*
X0197169Y0075623D02*
X0149044Y0075623D01*
X0148046Y0076621D02*
X0197169Y0076621D01*
X0197169Y0077620D02*
X0141913Y0077620D01*
X0141913Y0078618D02*
X0197169Y0078618D01*
X0197169Y0079617D02*
X0141785Y0079617D01*
X0141122Y0080615D02*
X0197169Y0080615D01*
X0189320Y0081614D02*
X0152294Y0081614D01*
X0153293Y0082612D02*
X0153694Y0082612D01*
X0150719Y0083715D02*
X0153219Y0086215D01*
X0155719Y0086215D01*
X0156073Y0085959D01*
X0159154Y0088603D02*
X0188363Y0088603D01*
X0188363Y0087605D02*
X0159551Y0087605D01*
X0159551Y0086606D02*
X0188363Y0086606D01*
X0188363Y0085608D02*
X0159551Y0085608D01*
X0159551Y0084609D02*
X0188363Y0084609D01*
X0188363Y0083611D02*
X0159450Y0083611D01*
X0158452Y0082612D02*
X0188363Y0082612D01*
X0188363Y0089602D02*
X0158951Y0089602D01*
X0158951Y0090600D02*
X0188363Y0090600D01*
X0188363Y0091599D02*
X0158951Y0091599D01*
X0158951Y0092597D02*
X0189251Y0092597D01*
X0189505Y0093596D02*
X0158431Y0093596D01*
X0156262Y0093596D02*
X0155884Y0093596D01*
X0155884Y0092597D02*
X0156262Y0092597D01*
X0156262Y0091599D02*
X0155884Y0091599D01*
X0153714Y0093596D02*
X0147015Y0093596D01*
X0148013Y0092597D02*
X0153195Y0092597D01*
X0153195Y0091599D02*
X0151434Y0091599D01*
X0152267Y0090600D02*
X0153195Y0090600D01*
X0153195Y0089602D02*
X0152267Y0089602D01*
X0148219Y0088715D02*
X0130719Y0088715D01*
X0120719Y0098715D01*
X0119360Y0100329D01*
X0115894Y0095593D02*
X0115788Y0095593D01*
X0115778Y0094594D02*
X0118049Y0094594D01*
X0115769Y0093596D02*
X0122161Y0093596D01*
X0123159Y0092597D02*
X0115759Y0092597D01*
X0115749Y0091599D02*
X0124158Y0091599D01*
X0125156Y0090600D02*
X0115739Y0090600D01*
X0115730Y0089602D02*
X0126155Y0089602D01*
X0127153Y0088603D02*
X0116504Y0088603D01*
X0116917Y0087605D02*
X0128152Y0087605D01*
X0129150Y0086606D02*
X0117000Y0086606D01*
X0116899Y0085608D02*
X0123934Y0085608D01*
X0122936Y0084609D02*
X0116485Y0084609D01*
X0115598Y0083611D02*
X0121937Y0083611D01*
X0125719Y0083715D02*
X0113219Y0071215D01*
X0110719Y0068715D01*
X0109144Y0068400D01*
X0113585Y0064639D02*
X0134153Y0064639D01*
X0134266Y0063641D02*
X0116648Y0063641D01*
X0118104Y0062642D02*
X0134924Y0062642D01*
X0134487Y0065638D02*
X0114277Y0065638D01*
X0114691Y0066636D02*
X0134276Y0066636D01*
X0133803Y0067635D02*
X0114944Y0067635D01*
X0114944Y0068633D02*
X0132963Y0068633D01*
X0132709Y0069632D02*
X0115312Y0069632D01*
X0116311Y0070630D02*
X0132709Y0070630D01*
X0132709Y0071629D02*
X0117309Y0071629D01*
X0118308Y0072627D02*
X0133152Y0072627D01*
X0134150Y0073626D02*
X0119306Y0073626D01*
X0120305Y0074624D02*
X0133720Y0074624D01*
X0132928Y0075623D02*
X0121303Y0075623D01*
X0122302Y0076621D02*
X0132709Y0076621D01*
X0132709Y0077620D02*
X0123300Y0077620D01*
X0124299Y0078618D02*
X0132728Y0078618D01*
X0133235Y0079617D02*
X0125297Y0079617D01*
X0126296Y0080615D02*
X0134234Y0080615D01*
X0125719Y0083715D02*
X0150719Y0083715D01*
X0146016Y0094594D02*
X0188940Y0094594D01*
X0188526Y0095593D02*
X0145018Y0095593D01*
X0144019Y0096591D02*
X0188363Y0096591D01*
X0188363Y0097590D02*
X0143020Y0097590D01*
X0142022Y0098588D02*
X0188485Y0098588D01*
X0188899Y0099587D02*
X0141023Y0099587D01*
X0140025Y0100585D02*
X0189406Y0100585D01*
X0190405Y0101584D02*
X0139026Y0101584D01*
X0138028Y0102582D02*
X0190519Y0102582D01*
X0163119Y0114792D02*
X0161582Y0113256D01*
X0157073Y0113256D01*
X0156762Y0112945D01*
X0156451Y0113256D01*
X0149855Y0113256D01*
X0144618Y0118492D01*
X0144618Y0119491D01*
X0144025Y0120924D01*
X0142928Y0122021D01*
X0141494Y0122615D01*
X0139943Y0122615D01*
X0138509Y0122021D01*
X0137412Y0120924D01*
X0137159Y0120314D01*
X0137159Y0121365D01*
X0132222Y0121365D01*
X0132222Y0122365D01*
X0137159Y0122365D01*
X0137159Y0123615D01*
X0149105Y0123615D01*
X0149065Y0123546D01*
X0148963Y0123164D01*
X0148963Y0120514D01*
X0152522Y0120514D01*
X0152522Y0119514D01*
X0153522Y0119514D01*
X0153522Y0115561D01*
X0155778Y0115561D01*
X0156160Y0115664D01*
X0156294Y0115741D01*
X0157073Y0114961D01*
X0163119Y0114961D01*
X0163119Y0114792D01*
X0162891Y0114565D02*
X0148546Y0114565D01*
X0147547Y0115563D02*
X0150259Y0115563D01*
X0150265Y0115561D02*
X0152522Y0115561D01*
X0152522Y0119514D01*
X0148963Y0119514D01*
X0148963Y0116864D01*
X0149065Y0116482D01*
X0149262Y0116140D01*
X0149542Y0115861D01*
X0149884Y0115664D01*
X0150265Y0115561D01*
X0149044Y0116562D02*
X0146549Y0116562D01*
X0145550Y0117560D02*
X0148963Y0117560D01*
X0148963Y0118559D02*
X0144618Y0118559D01*
X0144591Y0119557D02*
X0152522Y0119557D01*
X0152522Y0118559D02*
X0153522Y0118559D01*
X0153522Y0117560D02*
X0152522Y0117560D01*
X0152522Y0116562D02*
X0153522Y0116562D01*
X0153522Y0115563D02*
X0152522Y0115563D01*
X0149544Y0113566D02*
X0161893Y0113566D01*
X0156471Y0115563D02*
X0155785Y0115563D01*
X0158219Y0121215D02*
X0160502Y0120014D01*
X0158219Y0121215D02*
X0158219Y0123715D01*
X0155719Y0126215D01*
X0149068Y0123551D02*
X0137159Y0123551D01*
X0137159Y0122553D02*
X0139792Y0122553D01*
X0141645Y0122553D02*
X0148963Y0122553D01*
X0148963Y0121554D02*
X0143395Y0121554D01*
X0144177Y0120556D02*
X0148963Y0120556D01*
X0142190Y0113566D02*
X0128318Y0113566D01*
X0128318Y0112568D02*
X0143189Y0112568D01*
X0144187Y0111569D02*
X0129041Y0111569D01*
X0130040Y0110571D02*
X0145186Y0110571D01*
X0146184Y0109572D02*
X0131038Y0109572D01*
X0132037Y0108574D02*
X0147183Y0108574D01*
X0148181Y0107575D02*
X0133035Y0107575D01*
X0134034Y0106577D02*
X0148363Y0106577D01*
X0148363Y0105578D02*
X0135032Y0105578D01*
X0136031Y0104579D02*
X0148363Y0104579D01*
X0149162Y0103581D02*
X0137029Y0103581D01*
X0129360Y0100329D02*
X0128219Y0101215D01*
X0123219Y0106215D01*
X0123219Y0161215D01*
X0130719Y0168715D01*
X0131722Y0169109D01*
X0124799Y0176472D02*
X0079138Y0176472D01*
X0078704Y0177471D02*
X0125685Y0177471D01*
X0125685Y0178469D02*
X0078704Y0178469D01*
X0078704Y0179468D02*
X0125685Y0179468D01*
X0123800Y0175474D02*
X0080137Y0175474D01*
X0081135Y0174475D02*
X0122802Y0174475D01*
X0121803Y0173477D02*
X0082134Y0173477D01*
X0083132Y0172478D02*
X0120805Y0172478D01*
X0119806Y0171480D02*
X0084131Y0171480D01*
X0085129Y0170481D02*
X0118808Y0170481D01*
X0117809Y0169483D02*
X0086128Y0169483D01*
X0087126Y0168484D02*
X0116811Y0168484D01*
X0115812Y0167486D02*
X0088125Y0167486D01*
X0089123Y0166487D02*
X0114814Y0166487D01*
X0113815Y0165489D02*
X0090122Y0165489D01*
X0091120Y0164490D02*
X0112817Y0164490D01*
X0111818Y0163492D02*
X0092119Y0163492D01*
X0093117Y0162493D02*
X0110934Y0162493D01*
X0110619Y0161495D02*
X0094116Y0161495D01*
X0095114Y0160496D02*
X0110619Y0160496D01*
X0110619Y0159498D02*
X0096113Y0159498D01*
X0097111Y0158499D02*
X0110619Y0158499D01*
X0110619Y0157501D02*
X0098110Y0157501D01*
X0099108Y0156502D02*
X0110619Y0156502D01*
X0110619Y0155504D02*
X0100107Y0155504D01*
X0101105Y0154505D02*
X0110619Y0154505D01*
X0110619Y0153507D02*
X0102104Y0153507D01*
X0102997Y0152508D02*
X0110619Y0152508D01*
X0110619Y0151510D02*
X0103318Y0151510D01*
X0103318Y0150511D02*
X0110619Y0150511D01*
X0110619Y0149513D02*
X0103318Y0149513D01*
X0103318Y0148514D02*
X0110619Y0148514D01*
X0110619Y0147515D02*
X0103318Y0147515D01*
X0103318Y0146517D02*
X0110619Y0146517D01*
X0110619Y0145518D02*
X0103318Y0145518D01*
X0103318Y0144520D02*
X0110619Y0144520D01*
X0110619Y0143521D02*
X0103318Y0143521D01*
X0103318Y0142523D02*
X0110619Y0142523D01*
X0110619Y0141524D02*
X0103318Y0141524D01*
X0103318Y0140526D02*
X0110619Y0140526D01*
X0110619Y0139527D02*
X0103318Y0139527D01*
X0103318Y0138529D02*
X0110619Y0138529D01*
X0110619Y0137530D02*
X0103318Y0137530D01*
X0103318Y0136532D02*
X0110619Y0136532D01*
X0110619Y0135533D02*
X0103318Y0135533D01*
X0103318Y0134535D02*
X0110619Y0134535D01*
X0110619Y0133536D02*
X0103318Y0133536D01*
X0103318Y0132538D02*
X0110619Y0132538D01*
X0110619Y0131539D02*
X0103318Y0131539D01*
X0103318Y0130541D02*
X0110619Y0130541D01*
X0110619Y0129542D02*
X0103318Y0129542D01*
X0103318Y0128544D02*
X0110619Y0128544D01*
X0110619Y0127545D02*
X0103318Y0127545D01*
X0103318Y0126547D02*
X0110619Y0126547D01*
X0110619Y0125548D02*
X0103318Y0125548D01*
X0103318Y0124550D02*
X0110619Y0124550D01*
X0110619Y0123551D02*
X0103318Y0123551D01*
X0103318Y0122553D02*
X0110619Y0122553D01*
X0110619Y0121554D02*
X0103318Y0121554D01*
X0103318Y0120556D02*
X0110619Y0120556D01*
X0110619Y0119557D02*
X0103318Y0119557D01*
X0103318Y0118559D02*
X0110619Y0118559D01*
X0110619Y0117560D02*
X0103318Y0117560D01*
X0103318Y0116562D02*
X0110619Y0116562D01*
X0110619Y0115563D02*
X0103318Y0115563D01*
X0103318Y0114565D02*
X0110619Y0114565D01*
X0110619Y0113566D02*
X0103318Y0113566D01*
X0103057Y0112568D02*
X0110619Y0112568D01*
X0110619Y0111569D02*
X0102250Y0111569D01*
X0101251Y0110571D02*
X0110619Y0110571D01*
X0110619Y0109572D02*
X0100253Y0109572D01*
X0099254Y0108574D02*
X0110619Y0108574D01*
X0110619Y0107575D02*
X0098256Y0107575D01*
X0097257Y0106577D02*
X0110619Y0106577D01*
X0110619Y0105578D02*
X0096258Y0105578D01*
X0095260Y0104579D02*
X0110619Y0104579D01*
X0110619Y0103581D02*
X0094261Y0103581D01*
X0093263Y0102582D02*
X0110619Y0102582D01*
X0110619Y0101584D02*
X0092264Y0101584D01*
X0091266Y0100585D02*
X0110619Y0100585D01*
X0110619Y0099587D02*
X0090267Y0099587D01*
X0089269Y0098588D02*
X0110617Y0098588D01*
X0110607Y0097590D02*
X0088270Y0097590D01*
X0087272Y0096591D02*
X0110598Y0096591D01*
X0110588Y0095593D02*
X0086273Y0095593D01*
X0085275Y0094594D02*
X0110578Y0094594D01*
X0120671Y0094594D02*
X0121162Y0094594D01*
X0128318Y0114565D02*
X0141192Y0114565D01*
X0138355Y0115563D02*
X0128318Y0115563D01*
X0128318Y0116562D02*
X0137389Y0116562D01*
X0136976Y0117560D02*
X0128318Y0117560D01*
X0131222Y0118559D02*
X0132222Y0118559D01*
X0132222Y0119557D02*
X0131222Y0119557D01*
X0131222Y0120556D02*
X0132222Y0120556D01*
X0132222Y0121554D02*
X0138042Y0121554D01*
X0137260Y0120556D02*
X0137159Y0120556D01*
X0140719Y0118715D02*
X0150719Y0108715D01*
X0153022Y0108203D01*
X0169209Y0138529D02*
X0189147Y0138529D01*
X0189544Y0139527D02*
X0170208Y0139527D01*
X0171206Y0140526D02*
X0190196Y0140526D01*
X0196976Y0141524D02*
X0197169Y0141524D01*
X0140402Y0062642D02*
X0138458Y0062642D01*
X0140575Y0061808D02*
X0140575Y0061808D01*
X0140507Y0061644D02*
X0119078Y0061644D01*
X0132709Y0045667D02*
X0049943Y0045667D01*
X0050942Y0044669D02*
X0133050Y0044669D01*
X0134388Y0043670D02*
X0051940Y0043670D01*
X0052939Y0042672D02*
X0141677Y0042672D01*
X0141677Y0041673D02*
X0138684Y0041673D01*
X0139578Y0040675D02*
X0141752Y0040675D01*
X0141789Y0039676D02*
X0140327Y0039676D01*
X0141076Y0038678D02*
X0141677Y0038678D01*
X0141755Y0037679D02*
X0141997Y0037679D01*
X0141677Y0035682D02*
X0141663Y0035682D01*
X0141677Y0034684D02*
X0140743Y0034684D01*
X0141677Y0033685D02*
X0139711Y0033685D01*
X0139711Y0032687D02*
X0141699Y0032687D01*
X0141677Y0031688D02*
X0139711Y0031688D01*
X0139237Y0030690D02*
X0141866Y0030690D01*
X0141498Y0029691D02*
X0129308Y0029691D01*
X0128894Y0028693D02*
X0140483Y0028693D01*
X0137928Y0027694D02*
X0127959Y0027694D01*
X0128850Y0028585D02*
X0130144Y0031709D01*
X0130144Y0035091D01*
X0128850Y0038215D01*
X0126459Y0040606D01*
X0123334Y0041900D01*
X0119953Y0041900D01*
X0116829Y0040606D01*
X0114438Y0038215D01*
X0113144Y0035091D01*
X0113144Y0031709D01*
X0114438Y0028585D01*
X0116829Y0026194D01*
X0119953Y0024900D01*
X0123334Y0024900D01*
X0126459Y0026194D01*
X0128850Y0028585D01*
X0129721Y0030690D02*
X0135385Y0030690D01*
X0134911Y0031688D02*
X0130135Y0031688D01*
X0130144Y0032687D02*
X0134911Y0032687D01*
X0134911Y0033685D02*
X0130144Y0033685D01*
X0130144Y0034684D02*
X0133879Y0034684D01*
X0132959Y0035682D02*
X0129899Y0035682D01*
X0129485Y0036681D02*
X0132696Y0036681D01*
X0132867Y0037679D02*
X0129072Y0037679D01*
X0128387Y0038678D02*
X0133547Y0038678D01*
X0134295Y0039676D02*
X0127388Y0039676D01*
X0126292Y0040675D02*
X0135044Y0040675D01*
X0135938Y0041673D02*
X0123882Y0041673D01*
X0119406Y0041673D02*
X0083882Y0041673D01*
X0083334Y0041900D02*
X0079953Y0041900D01*
X0076829Y0040606D01*
X0074438Y0038215D01*
X0073144Y0035091D01*
X0073144Y0031709D01*
X0074438Y0028585D01*
X0076829Y0026194D01*
X0079953Y0024900D01*
X0083334Y0024900D01*
X0086459Y0026194D01*
X0088850Y0028585D01*
X0090144Y0031709D01*
X0090144Y0035091D01*
X0088850Y0038215D01*
X0086459Y0040606D01*
X0083334Y0041900D01*
X0086292Y0040675D02*
X0116995Y0040675D01*
X0115899Y0039676D02*
X0087388Y0039676D01*
X0088387Y0038678D02*
X0114901Y0038678D01*
X0114216Y0037679D02*
X0089072Y0037679D01*
X0089485Y0036681D02*
X0113802Y0036681D01*
X0113389Y0035682D02*
X0089899Y0035682D01*
X0090144Y0034684D02*
X0113144Y0034684D01*
X0113144Y0033685D02*
X0090144Y0033685D01*
X0090144Y0032687D02*
X0113144Y0032687D01*
X0113152Y0031688D02*
X0090135Y0031688D01*
X0089721Y0030690D02*
X0113566Y0030690D01*
X0113980Y0029691D02*
X0089308Y0029691D01*
X0088894Y0028693D02*
X0114393Y0028693D01*
X0115329Y0027694D02*
X0087959Y0027694D01*
X0086960Y0026696D02*
X0116327Y0026696D01*
X0118029Y0025697D02*
X0085259Y0025697D01*
X0078029Y0025697D02*
X0025032Y0025697D01*
X0024902Y0024699D02*
X0132709Y0024699D01*
X0132809Y0023700D02*
X0024703Y0023700D01*
X0024505Y0022702D02*
X0133431Y0022702D01*
X0134430Y0021703D02*
X0024306Y0021703D01*
X0023647Y0020705D02*
X0134177Y0020705D01*
X0134177Y0019706D02*
X0022980Y0019706D01*
X0022313Y0018708D02*
X0134177Y0018708D01*
X0134243Y0017709D02*
X0021050Y0017709D01*
X0019555Y0016710D02*
X0134818Y0016710D01*
X0133042Y0025697D02*
X0125259Y0025697D01*
X0126960Y0026696D02*
X0134338Y0026696D01*
X0147590Y0020705D02*
X0179640Y0020705D01*
X0178981Y0021703D02*
X0148427Y0021703D01*
X0149204Y0022702D02*
X0178783Y0022702D01*
X0178584Y0023700D02*
X0149413Y0023700D01*
X0149413Y0024699D02*
X0178385Y0024699D01*
X0178255Y0025697D02*
X0149385Y0025697D01*
X0149255Y0026696D02*
X0178454Y0026696D01*
X0178652Y0027694D02*
X0149413Y0027694D01*
X0149413Y0028693D02*
X0178851Y0028693D01*
X0179202Y0029691D02*
X0149413Y0029691D01*
X0149224Y0030690D02*
X0179869Y0030690D01*
X0180536Y0031688D02*
X0149413Y0031688D01*
X0149392Y0032687D02*
X0181256Y0032687D01*
X0182750Y0033685D02*
X0148879Y0033685D01*
X0148363Y0034684D02*
X0184244Y0034684D01*
X0192271Y0034684D02*
X0197169Y0034684D01*
X0197169Y0035682D02*
X0149178Y0035682D01*
X0149413Y0036681D02*
X0197169Y0036681D01*
X0197169Y0037679D02*
X0149413Y0037679D01*
X0149413Y0038678D02*
X0197169Y0038678D01*
X0197169Y0039676D02*
X0149302Y0039676D01*
X0149339Y0040675D02*
X0197169Y0040675D01*
X0197169Y0041673D02*
X0149413Y0041673D01*
X0149413Y0042672D02*
X0197169Y0042672D01*
X0197169Y0043670D02*
X0149413Y0043670D01*
X0149390Y0044669D02*
X0197169Y0044669D01*
X0197169Y0045667D02*
X0149413Y0045667D01*
X0148943Y0046666D02*
X0197169Y0046666D01*
X0197169Y0047664D02*
X0148299Y0047664D01*
X0150031Y0048663D02*
X0197169Y0048663D01*
X0197169Y0049661D02*
X0150729Y0049661D01*
X0150881Y0050660D02*
X0197169Y0050660D01*
X0197169Y0051658D02*
X0150881Y0051658D01*
X0150458Y0052657D02*
X0197169Y0052657D01*
X0197169Y0053655D02*
X0149460Y0053655D01*
X0141700Y0044669D02*
X0141572Y0044669D01*
X0141840Y0043670D02*
X0140234Y0043670D01*
X0149047Y0019706D02*
X0180307Y0019706D01*
X0180974Y0018708D02*
X0149413Y0018708D01*
X0149347Y0017709D02*
X0182238Y0017709D01*
X0183732Y0016710D02*
X0148772Y0016710D01*
X0193766Y0033685D02*
X0197169Y0033685D01*
X0197169Y0032687D02*
X0195260Y0032687D01*
X0195980Y0031688D02*
X0197169Y0031688D01*
X0197169Y0030690D02*
X0196647Y0030690D01*
X0100719Y0113715D02*
X0040719Y0053715D01*
X0040719Y0068715D01*
X0040778Y0068794D01*
X0036119Y0068633D02*
X0006118Y0068633D01*
X0006118Y0067635D02*
X0036119Y0067635D01*
X0036119Y0066636D02*
X0006118Y0066636D01*
X0006118Y0065638D02*
X0036119Y0065638D01*
X0036451Y0064639D02*
X0006118Y0064639D01*
X0006118Y0063641D02*
X0038119Y0063641D01*
X0038119Y0062642D02*
X0006118Y0062642D01*
X0006118Y0061644D02*
X0038119Y0061644D01*
X0038119Y0060645D02*
X0006118Y0060645D01*
X0006118Y0059646D02*
X0038119Y0059646D01*
X0038119Y0058648D02*
X0006118Y0058648D01*
X0006118Y0057649D02*
X0038119Y0057649D01*
X0038119Y0056651D02*
X0006118Y0056651D01*
X0006118Y0055652D02*
X0026552Y0055652D01*
X0025588Y0054654D02*
X0006118Y0054654D01*
X0006118Y0053655D02*
X0025054Y0053655D01*
X0024807Y0052657D02*
X0006118Y0052657D01*
X0006118Y0051658D02*
X0031769Y0051658D01*
X0031769Y0050660D02*
X0032769Y0050660D01*
X0032769Y0049661D02*
X0031769Y0049661D01*
X0031769Y0048663D02*
X0032769Y0048663D01*
X0032769Y0047664D02*
X0031769Y0047664D01*
X0028280Y0047664D02*
X0006118Y0047664D01*
X0006118Y0046666D02*
X0038119Y0046666D01*
X0038119Y0047664D02*
X0036258Y0047664D01*
X0038119Y0045667D02*
X0006118Y0045667D01*
X0006118Y0044669D02*
X0037995Y0044669D01*
X0036997Y0043670D02*
X0006118Y0043670D01*
X0006118Y0042672D02*
X0035998Y0042672D01*
X0035000Y0041673D02*
X0006118Y0041673D01*
X0006118Y0040675D02*
X0034001Y0040675D01*
X0033003Y0039676D02*
X0006118Y0039676D01*
X0006118Y0038678D02*
X0026598Y0038678D01*
X0025472Y0037679D02*
X0006118Y0037679D01*
X0006118Y0036681D02*
X0024750Y0036681D01*
X0024336Y0035682D02*
X0006118Y0035682D01*
X0006118Y0034684D02*
X0011016Y0034684D01*
X0009522Y0033685D02*
X0006118Y0033685D01*
X0006118Y0032687D02*
X0008027Y0032687D01*
X0007308Y0031688D02*
X0006118Y0031688D01*
X0006118Y0030690D02*
X0006640Y0030690D01*
X0019043Y0034684D02*
X0024169Y0034684D01*
X0024169Y0033685D02*
X0020537Y0033685D01*
X0022032Y0032687D02*
X0024402Y0032687D01*
X0024816Y0031688D02*
X0022752Y0031688D01*
X0023419Y0030690D02*
X0025631Y0030690D01*
X0026981Y0029691D02*
X0024086Y0029691D01*
X0024437Y0028693D02*
X0074393Y0028693D01*
X0073980Y0029691D02*
X0063157Y0029691D01*
X0064507Y0030690D02*
X0073566Y0030690D01*
X0073152Y0031688D02*
X0065322Y0031688D01*
X0065736Y0032687D02*
X0073144Y0032687D01*
X0073144Y0033685D02*
X0065969Y0033685D01*
X0065969Y0034684D02*
X0073144Y0034684D01*
X0073389Y0035682D02*
X0065802Y0035682D01*
X0065388Y0036681D02*
X0073802Y0036681D01*
X0074216Y0037679D02*
X0064666Y0037679D01*
X0063540Y0038678D02*
X0074901Y0038678D01*
X0075899Y0039676D02*
X0055934Y0039676D01*
X0054936Y0040675D02*
X0076995Y0040675D01*
X0079406Y0041673D02*
X0053937Y0041673D01*
X0050577Y0037679D02*
X0039066Y0037679D01*
X0039358Y0038678D02*
X0049579Y0038678D01*
X0048580Y0039676D02*
X0040357Y0039676D01*
X0041355Y0040675D02*
X0047582Y0040675D01*
X0046583Y0041673D02*
X0042354Y0041673D01*
X0043101Y0042672D02*
X0045585Y0042672D01*
X0044586Y0043670D02*
X0043318Y0043670D01*
X0043318Y0044669D02*
X0043588Y0044669D01*
X0040719Y0043715D02*
X0033219Y0036215D01*
X0032269Y0034264D01*
X0037557Y0029691D02*
X0052581Y0029691D01*
X0051231Y0030690D02*
X0038907Y0030690D01*
X0039722Y0031688D02*
X0050416Y0031688D01*
X0050002Y0032687D02*
X0040136Y0032687D01*
X0040369Y0033685D02*
X0049769Y0033685D01*
X0049769Y0034684D02*
X0040369Y0034684D01*
X0040202Y0035682D02*
X0049936Y0035682D01*
X0050350Y0036681D02*
X0039788Y0036681D01*
X0040719Y0043715D02*
X0040719Y0051215D01*
X0055719Y0036215D01*
X0057869Y0034264D01*
X0057369Y0047664D02*
X0058369Y0047664D01*
X0058369Y0048663D02*
X0057369Y0048663D01*
X0057369Y0049661D02*
X0058369Y0049661D01*
X0058369Y0052657D02*
X0057369Y0052657D01*
X0057369Y0053655D02*
X0058369Y0053655D01*
X0058369Y0054654D02*
X0057369Y0054654D01*
X0057369Y0055652D02*
X0058369Y0055652D01*
X0044608Y0073626D02*
X0044427Y0073626D01*
X0045358Y0074624D02*
X0006118Y0074624D01*
X0006118Y0073626D02*
X0037128Y0073626D01*
X0036129Y0072627D02*
X0006118Y0072627D01*
X0006118Y0071629D02*
X0036119Y0071629D01*
X0036119Y0070630D02*
X0006118Y0070630D01*
X0006118Y0069632D02*
X0036119Y0069632D01*
X0045358Y0075623D02*
X0006118Y0075623D01*
X0006118Y0076621D02*
X0045358Y0076621D01*
X0045358Y0077620D02*
X0006118Y0077620D01*
X0006118Y0078618D02*
X0045358Y0078618D01*
X0045358Y0079617D02*
X0006118Y0079617D01*
X0006118Y0080615D02*
X0045358Y0080615D01*
X0045358Y0081614D02*
X0006118Y0081614D01*
X0006118Y0082612D02*
X0045358Y0082612D01*
X0045358Y0083611D02*
X0006118Y0083611D01*
X0006118Y0084609D02*
X0045358Y0084609D01*
X0045358Y0085608D02*
X0006118Y0085608D01*
X0006118Y0086606D02*
X0045358Y0086606D01*
X0045358Y0087605D02*
X0006118Y0087605D01*
X0006118Y0088603D02*
X0045358Y0088603D01*
X0045358Y0089602D02*
X0006118Y0089602D01*
X0006118Y0090600D02*
X0023270Y0090600D01*
X0022953Y0090663D02*
X0023703Y0090514D01*
X0023896Y0090514D01*
X0023896Y0094845D01*
X0024274Y0095002D01*
X0024274Y0090514D01*
X0024467Y0090514D01*
X0025216Y0090663D01*
X0025922Y0090956D01*
X0026557Y0091380D01*
X0027097Y0091920D01*
X0027521Y0092555D01*
X0027814Y0093261D01*
X0027963Y0094010D01*
X0027963Y0098959D01*
X0027378Y0098959D01*
X0027378Y0099337D01*
X0027963Y0099337D01*
X0027963Y0099530D01*
X0027814Y0100279D01*
X0027521Y0100985D01*
X0027097Y0101620D01*
X0026557Y0102160D01*
X0025922Y0102585D01*
X0025216Y0102877D01*
X0024467Y0103026D01*
X0024274Y0103026D01*
X0024274Y0102048D01*
X0023901Y0102048D01*
X0023896Y0102046D01*
X0023896Y0103026D01*
X0023711Y0103026D01*
X0024019Y0103771D01*
X0024019Y0104735D01*
X0026447Y0104735D01*
X0026829Y0104837D01*
X0027171Y0105034D01*
X0027450Y0105314D01*
X0027648Y0105656D01*
X0027750Y0106037D01*
X0027750Y0107022D01*
X0027448Y0107022D01*
X0027448Y0107022D01*
X0027750Y0107022D01*
X0027750Y0107324D01*
X0028350Y0107924D01*
X0028350Y0114358D01*
X0032339Y0114358D01*
X0033405Y0114800D01*
X0035920Y0117315D01*
X0036494Y0117315D01*
X0037928Y0117909D01*
X0039025Y0119006D01*
X0039618Y0120439D01*
X0039618Y0121991D01*
X0039025Y0123424D01*
X0038618Y0123830D01*
X0038618Y0127051D01*
X0039120Y0127552D01*
X0039254Y0127475D01*
X0039635Y0127372D01*
X0041892Y0127372D01*
X0041892Y0131325D01*
X0042892Y0131325D01*
X0042892Y0132325D01*
X0046451Y0132325D01*
X0046451Y0134975D01*
X0046349Y0135357D01*
X0046151Y0135699D01*
X0045872Y0135978D01*
X0045530Y0136176D01*
X0045148Y0136278D01*
X0042892Y0136278D01*
X0042892Y0132325D01*
X0041892Y0132325D01*
X0041892Y0136278D01*
X0039635Y0136278D01*
X0039254Y0136176D01*
X0039120Y0136098D01*
X0038340Y0136878D01*
X0033279Y0136878D01*
X0027857Y0141937D01*
X0022704Y0147853D01*
X0019543Y0152346D01*
X0020156Y0152959D01*
X0020156Y0159499D01*
X0018926Y0160729D01*
X0008386Y0160729D01*
X0007156Y0159499D01*
X0007156Y0152959D01*
X0008386Y0151729D01*
X0012849Y0151729D01*
X0013188Y0151124D01*
X0013188Y0151124D01*
X0018054Y0144208D01*
X0018054Y0144208D01*
X0023607Y0137831D01*
X0029790Y0132062D01*
X0030252Y0131712D01*
X0030252Y0128003D01*
X0031483Y0126772D01*
X0032819Y0126772D01*
X0032819Y0123830D01*
X0032412Y0123424D01*
X0031819Y0121991D01*
X0031819Y0121416D01*
X0030561Y0120158D01*
X0024019Y0120158D01*
X0024019Y0120509D01*
X0023711Y0121254D01*
X0023896Y0121254D01*
X0023896Y0124943D01*
X0024274Y0124943D01*
X0024274Y0125321D01*
X0027963Y0125321D01*
X0027963Y0130270D01*
X0027814Y0131019D01*
X0027521Y0131725D01*
X0027097Y0132360D01*
X0026557Y0132900D01*
X0025922Y0133325D01*
X0025216Y0133617D01*
X0024467Y0133766D01*
X0024274Y0133766D01*
X0024274Y0125321D01*
X0023896Y0125321D01*
X0023896Y0124943D01*
X0020207Y0124943D01*
X0020207Y0124750D01*
X0020356Y0124001D01*
X0020648Y0123295D01*
X0019850Y0123295D01*
X0019482Y0123143D01*
X0019482Y0126223D01*
X0017343Y0126223D01*
X0017335Y0126313D01*
X0017343Y0126404D01*
X0019482Y0126404D01*
X0019482Y0131432D01*
X0019380Y0131814D01*
X0019183Y0132156D01*
X0018903Y0132435D01*
X0018561Y0132632D01*
X0018180Y0132735D01*
X0013152Y0132735D01*
X0013152Y0129594D01*
X0012970Y0129594D01*
X0012970Y0132735D01*
X0007942Y0132735D01*
X0007561Y0132632D01*
X0007219Y0132435D01*
X0006939Y0132156D01*
X0006742Y0131814D01*
X0006640Y0131432D01*
X0006640Y0126404D01*
X0008779Y0126404D01*
X0008787Y0126313D01*
X0008779Y0126223D01*
X0006640Y0126223D01*
X0006640Y0121195D01*
X0006742Y0120813D01*
X0006939Y0120471D01*
X0007219Y0120192D01*
X0007561Y0119994D01*
X0007942Y0119892D01*
X0012970Y0119892D01*
X0012970Y0123032D01*
X0013152Y0123032D01*
X0013152Y0119892D01*
X0017063Y0119892D01*
X0017063Y0119126D01*
X0017388Y0118341D01*
X0017183Y0118459D01*
X0016802Y0118561D01*
X0013152Y0118561D01*
X0013152Y0115577D01*
X0018104Y0115577D01*
X0018104Y0117259D01*
X0018076Y0117364D01*
X0018571Y0116869D01*
X0018835Y0116760D01*
X0018835Y0107924D01*
X0019120Y0107639D01*
X0018571Y0107411D01*
X0018076Y0106916D01*
X0018104Y0107021D01*
X0018104Y0108703D01*
X0013152Y0108703D01*
X0013152Y0109672D01*
X0018104Y0109672D01*
X0018104Y0111353D01*
X0018002Y0111735D01*
X0017805Y0112077D01*
X0017741Y0112140D01*
X0017805Y0112203D01*
X0018002Y0112545D01*
X0018104Y0112927D01*
X0018104Y0114609D01*
X0013152Y0114609D01*
X0013152Y0115577D01*
X0012183Y0115577D01*
X0012183Y0114609D01*
X0007230Y0114609D01*
X0007230Y0112927D01*
X0007333Y0112545D01*
X0007530Y0112203D01*
X0007593Y0112140D01*
X0007530Y0112077D01*
X0007333Y0111735D01*
X0007230Y0111353D01*
X0007230Y0109672D01*
X0012183Y0109672D01*
X0012183Y0112656D01*
X0012183Y0114609D01*
X0013152Y0114609D01*
X0013152Y0109672D01*
X0012183Y0109672D01*
X0012183Y0108703D01*
X0013152Y0108703D01*
X0013152Y0105719D01*
X0016802Y0105719D01*
X0017183Y0105821D01*
X0017388Y0105940D01*
X0017063Y0105155D01*
X0017063Y0104388D01*
X0013152Y0104388D01*
X0013152Y0101248D01*
X0012970Y0101248D01*
X0012970Y0104388D01*
X0007942Y0104388D01*
X0007561Y0104286D01*
X0007219Y0104088D01*
X0006939Y0103809D01*
X0006742Y0103467D01*
X0006640Y0103086D01*
X0006640Y0098057D01*
X0008779Y0098057D01*
X0008787Y0097967D01*
X0008779Y0097876D01*
X0006640Y0097876D01*
X0006640Y0092848D01*
X0006742Y0092467D01*
X0006939Y0092125D01*
X0007219Y0091845D01*
X0007561Y0091648D01*
X0007942Y0091546D01*
X0012970Y0091546D01*
X0012970Y0094673D01*
X0013152Y0094673D01*
X0013152Y0091546D01*
X0018180Y0091546D01*
X0018561Y0091648D01*
X0018903Y0091845D01*
X0019183Y0092125D01*
X0019380Y0092467D01*
X0019482Y0092848D01*
X0019482Y0094673D01*
X0020207Y0094673D01*
X0020207Y0094010D01*
X0020356Y0093261D01*
X0020648Y0092555D01*
X0021072Y0091920D01*
X0021613Y0091380D01*
X0022248Y0090956D01*
X0022953Y0090663D01*
X0023896Y0090600D02*
X0024274Y0090600D01*
X0024900Y0090600D02*
X0045358Y0090600D01*
X0045358Y0091599D02*
X0026776Y0091599D01*
X0027539Y0092597D02*
X0045358Y0092597D01*
X0045358Y0093596D02*
X0027880Y0093596D01*
X0027963Y0094594D02*
X0045358Y0094594D01*
X0045358Y0095593D02*
X0027963Y0095593D01*
X0027963Y0096591D02*
X0045358Y0096591D01*
X0045358Y0097590D02*
X0027963Y0097590D01*
X0027963Y0098588D02*
X0045588Y0098588D01*
X0046288Y0099587D02*
X0027951Y0099587D01*
X0027687Y0100585D02*
X0047287Y0100585D01*
X0048285Y0101584D02*
X0027121Y0101584D01*
X0025925Y0102582D02*
X0049284Y0102582D01*
X0050283Y0103581D02*
X0023940Y0103581D01*
X0023896Y0102582D02*
X0024274Y0102582D01*
X0024019Y0104579D02*
X0051281Y0104579D01*
X0052280Y0105578D02*
X0027603Y0105578D01*
X0027750Y0106577D02*
X0053278Y0106577D01*
X0054277Y0107575D02*
X0028001Y0107575D01*
X0028350Y0108574D02*
X0055275Y0108574D01*
X0056274Y0109572D02*
X0028350Y0109572D01*
X0028350Y0110571D02*
X0057272Y0110571D01*
X0058271Y0111569D02*
X0028350Y0111569D01*
X0028350Y0112568D02*
X0059269Y0112568D01*
X0060268Y0113566D02*
X0028350Y0113566D01*
X0032837Y0114565D02*
X0061266Y0114565D01*
X0062265Y0115563D02*
X0034168Y0115563D01*
X0035166Y0116562D02*
X0063263Y0116562D01*
X0064262Y0117560D02*
X0037086Y0117560D01*
X0038578Y0118559D02*
X0065260Y0118559D01*
X0066259Y0119557D02*
X0039253Y0119557D01*
X0039618Y0120556D02*
X0066630Y0120556D01*
X0066278Y0121554D02*
X0039618Y0121554D01*
X0039386Y0122553D02*
X0065280Y0122553D01*
X0064281Y0123551D02*
X0038898Y0123551D01*
X0038618Y0124550D02*
X0063283Y0124550D01*
X0062284Y0125548D02*
X0038618Y0125548D01*
X0038618Y0126547D02*
X0061285Y0126547D01*
X0060287Y0127545D02*
X0045652Y0127545D01*
X0045530Y0127475D02*
X0045872Y0127672D01*
X0046151Y0127951D01*
X0046349Y0128293D01*
X0046451Y0128675D01*
X0046451Y0131325D01*
X0042892Y0131325D01*
X0042892Y0127372D01*
X0045148Y0127372D01*
X0045530Y0127475D01*
X0046416Y0128544D02*
X0059288Y0128544D01*
X0058290Y0129542D02*
X0046451Y0129542D01*
X0046451Y0130541D02*
X0057291Y0130541D01*
X0056293Y0131539D02*
X0042892Y0131539D01*
X0042892Y0130541D02*
X0041892Y0130541D01*
X0041892Y0129542D02*
X0042892Y0129542D01*
X0042892Y0128544D02*
X0041892Y0128544D01*
X0041892Y0127545D02*
X0042892Y0127545D01*
X0039131Y0127545D02*
X0039113Y0127545D01*
X0035719Y0131215D02*
X0034911Y0131825D01*
X0030710Y0127545D02*
X0027963Y0127545D01*
X0027963Y0126547D02*
X0032819Y0126547D01*
X0032819Y0125548D02*
X0027963Y0125548D01*
X0027963Y0124943D02*
X0024274Y0124943D01*
X0024274Y0121254D01*
X0024467Y0121254D01*
X0025216Y0121403D01*
X0025922Y0121696D01*
X0026557Y0122120D01*
X0027097Y0122660D01*
X0027521Y0123295D01*
X0027814Y0124001D01*
X0027963Y0124750D01*
X0027963Y0124943D01*
X0027923Y0124550D02*
X0032819Y0124550D01*
X0032539Y0123551D02*
X0027627Y0123551D01*
X0026989Y0122553D02*
X0032051Y0122553D01*
X0031819Y0121554D02*
X0025580Y0121554D01*
X0024274Y0121554D02*
X0023896Y0121554D01*
X0023896Y0122553D02*
X0024274Y0122553D01*
X0024274Y0123551D02*
X0023896Y0123551D01*
X0023896Y0124550D02*
X0024274Y0124550D01*
X0023896Y0125321D02*
X0020207Y0125321D01*
X0020207Y0130270D01*
X0020356Y0131019D01*
X0020648Y0131725D01*
X0021072Y0132360D01*
X0021613Y0132900D01*
X0022248Y0133325D01*
X0022953Y0133617D01*
X0023703Y0133766D01*
X0023896Y0133766D01*
X0023896Y0125321D01*
X0023896Y0125548D02*
X0024274Y0125548D01*
X0024274Y0126547D02*
X0023896Y0126547D01*
X0023896Y0127545D02*
X0024274Y0127545D01*
X0024274Y0128544D02*
X0023896Y0128544D01*
X0023896Y0129542D02*
X0024274Y0129542D01*
X0024274Y0130541D02*
X0023896Y0130541D01*
X0023896Y0131539D02*
X0024274Y0131539D01*
X0024274Y0132538D02*
X0023896Y0132538D01*
X0023896Y0133536D02*
X0024274Y0133536D01*
X0025411Y0133536D02*
X0028210Y0133536D01*
X0029280Y0132538D02*
X0026919Y0132538D01*
X0027598Y0131539D02*
X0030252Y0131539D01*
X0029790Y0132062D02*
X0029790Y0132062D01*
X0030252Y0130541D02*
X0027909Y0130541D01*
X0027963Y0129542D02*
X0030252Y0129542D01*
X0030252Y0128544D02*
X0027963Y0128544D01*
X0022758Y0133536D02*
X0006118Y0133536D01*
X0006118Y0132538D02*
X0007397Y0132538D01*
X0006668Y0131539D02*
X0006118Y0131539D01*
X0006118Y0130541D02*
X0006640Y0130541D01*
X0006640Y0129542D02*
X0006118Y0129542D01*
X0006118Y0128544D02*
X0006640Y0128544D01*
X0006640Y0127545D02*
X0006118Y0127545D01*
X0006118Y0126547D02*
X0006640Y0126547D01*
X0006640Y0125548D02*
X0006118Y0125548D01*
X0006118Y0124550D02*
X0006640Y0124550D01*
X0006640Y0123551D02*
X0006118Y0123551D01*
X0006118Y0122553D02*
X0006640Y0122553D01*
X0006640Y0121554D02*
X0006118Y0121554D01*
X0006118Y0120556D02*
X0006891Y0120556D01*
X0006118Y0119557D02*
X0017063Y0119557D01*
X0017298Y0118559D02*
X0016812Y0118559D01*
X0018104Y0116562D02*
X0018835Y0116562D01*
X0018835Y0115563D02*
X0013152Y0115563D01*
X0012183Y0115563D02*
X0006118Y0115563D01*
X0006118Y0114565D02*
X0007230Y0114565D01*
X0007230Y0113566D02*
X0006118Y0113566D01*
X0006118Y0112568D02*
X0007327Y0112568D01*
X0007288Y0111569D02*
X0006118Y0111569D01*
X0006118Y0110571D02*
X0007230Y0110571D01*
X0006118Y0109572D02*
X0012183Y0109572D01*
X0012183Y0108703D02*
X0007230Y0108703D01*
X0007230Y0107021D01*
X0007333Y0106640D01*
X0007530Y0106298D01*
X0007809Y0106019D01*
X0008151Y0105821D01*
X0008533Y0105719D01*
X0012183Y0105719D01*
X0012183Y0108703D01*
X0012183Y0108574D02*
X0013152Y0108574D01*
X0013152Y0109572D02*
X0018835Y0109572D01*
X0018835Y0108574D02*
X0018104Y0108574D01*
X0018104Y0107575D02*
X0018966Y0107575D01*
X0017239Y0105578D02*
X0006118Y0105578D01*
X0006118Y0104579D02*
X0017063Y0104579D01*
X0013152Y0103581D02*
X0012970Y0103581D01*
X0012970Y0102582D02*
X0013152Y0102582D01*
X0013152Y0101584D02*
X0012970Y0101584D01*
X0013152Y0106577D02*
X0012183Y0106577D01*
X0012183Y0107575D02*
X0013152Y0107575D01*
X0013152Y0110571D02*
X0012183Y0110571D01*
X0012183Y0111569D02*
X0013152Y0111569D01*
X0013152Y0112568D02*
X0012183Y0112568D01*
X0012183Y0113566D02*
X0013152Y0113566D01*
X0013152Y0114565D02*
X0012183Y0114565D01*
X0012183Y0115577D02*
X0007230Y0115577D01*
X0007230Y0117259D01*
X0007333Y0117640D01*
X0007530Y0117982D01*
X0007809Y0118262D01*
X0008151Y0118459D01*
X0008533Y0118561D01*
X0012183Y0118561D01*
X0012183Y0115577D01*
X0012183Y0116562D02*
X0013152Y0116562D01*
X0013152Y0117560D02*
X0012183Y0117560D01*
X0012183Y0118559D02*
X0013152Y0118559D01*
X0013152Y0120556D02*
X0012970Y0120556D01*
X0012970Y0121554D02*
X0013152Y0121554D01*
X0013152Y0122553D02*
X0012970Y0122553D01*
X0008523Y0118559D02*
X0006118Y0118559D01*
X0006118Y0117560D02*
X0007311Y0117560D01*
X0007230Y0116562D02*
X0006118Y0116562D01*
X0006118Y0108574D02*
X0007230Y0108574D01*
X0007230Y0107575D02*
X0006118Y0107575D01*
X0006118Y0106577D02*
X0007369Y0106577D01*
X0006808Y0103581D02*
X0006118Y0103581D01*
X0006118Y0102582D02*
X0006640Y0102582D01*
X0006640Y0101584D02*
X0006118Y0101584D01*
X0006118Y0100585D02*
X0006640Y0100585D01*
X0006640Y0099587D02*
X0006118Y0099587D01*
X0006118Y0098588D02*
X0006640Y0098588D01*
X0006640Y0097590D02*
X0006118Y0097590D01*
X0006118Y0096591D02*
X0006640Y0096591D01*
X0006640Y0095593D02*
X0006118Y0095593D01*
X0006118Y0094594D02*
X0006640Y0094594D01*
X0006640Y0093596D02*
X0006118Y0093596D01*
X0006118Y0092597D02*
X0006707Y0092597D01*
X0006118Y0091599D02*
X0007744Y0091599D01*
X0012970Y0091599D02*
X0013152Y0091599D01*
X0013152Y0092597D02*
X0012970Y0092597D01*
X0012970Y0093596D02*
X0013152Y0093596D01*
X0013152Y0094594D02*
X0012970Y0094594D01*
X0018378Y0091599D02*
X0021394Y0091599D01*
X0020631Y0092597D02*
X0019415Y0092597D01*
X0019482Y0093596D02*
X0020289Y0093596D01*
X0020207Y0094594D02*
X0019482Y0094594D01*
X0023896Y0094594D02*
X0024274Y0094594D01*
X0024274Y0093596D02*
X0023896Y0093596D01*
X0023896Y0092597D02*
X0024274Y0092597D01*
X0024274Y0091599D02*
X0023896Y0091599D01*
X0018835Y0110571D02*
X0018104Y0110571D01*
X0018047Y0111569D02*
X0018835Y0111569D01*
X0018835Y0112568D02*
X0018008Y0112568D01*
X0018104Y0113566D02*
X0018835Y0113566D01*
X0018835Y0114565D02*
X0018104Y0114565D01*
X0024000Y0120556D02*
X0030958Y0120556D01*
X0020648Y0123295D02*
X0020648Y0123295D01*
X0020542Y0123551D02*
X0019482Y0123551D01*
X0019482Y0124550D02*
X0020247Y0124550D01*
X0020207Y0125548D02*
X0019482Y0125548D01*
X0019482Y0126547D02*
X0020207Y0126547D01*
X0020207Y0127545D02*
X0019482Y0127545D01*
X0019482Y0128544D02*
X0020207Y0128544D01*
X0020207Y0129542D02*
X0019482Y0129542D01*
X0019482Y0130541D02*
X0020261Y0130541D01*
X0020571Y0131539D02*
X0019454Y0131539D01*
X0018725Y0132538D02*
X0021250Y0132538D01*
X0025000Y0136532D02*
X0006118Y0136532D01*
X0006118Y0137530D02*
X0023930Y0137530D01*
X0023607Y0137831D02*
X0023607Y0137831D01*
X0023000Y0138529D02*
X0006118Y0138529D01*
X0006118Y0139527D02*
X0022130Y0139527D01*
X0021260Y0140526D02*
X0006118Y0140526D01*
X0006118Y0141524D02*
X0020391Y0141524D01*
X0019521Y0142523D02*
X0006118Y0142523D01*
X0006118Y0143521D02*
X0018651Y0143521D01*
X0017834Y0144520D02*
X0006118Y0144520D01*
X0006118Y0145518D02*
X0017131Y0145518D01*
X0016429Y0146517D02*
X0006118Y0146517D01*
X0006118Y0147515D02*
X0015726Y0147515D01*
X0015024Y0148514D02*
X0006118Y0148514D01*
X0006118Y0149513D02*
X0014321Y0149513D01*
X0013619Y0150511D02*
X0006118Y0150511D01*
X0006118Y0151510D02*
X0012972Y0151510D01*
X0007608Y0152508D02*
X0006118Y0152508D01*
X0006118Y0153507D02*
X0007156Y0153507D01*
X0007156Y0154505D02*
X0006118Y0154505D01*
X0006118Y0155504D02*
X0007156Y0155504D01*
X0007156Y0156502D02*
X0006118Y0156502D01*
X0006118Y0157501D02*
X0007156Y0157501D01*
X0007156Y0158499D02*
X0006118Y0158499D01*
X0006118Y0159498D02*
X0007156Y0159498D01*
X0008153Y0160496D02*
X0006118Y0160496D01*
X0006118Y0161495D02*
X0007721Y0161495D01*
X0007156Y0162493D02*
X0006118Y0162493D01*
X0006118Y0163492D02*
X0007156Y0163492D01*
X0007156Y0164490D02*
X0006118Y0164490D01*
X0006118Y0165489D02*
X0007156Y0165489D01*
X0007156Y0166487D02*
X0006118Y0166487D01*
X0006118Y0167486D02*
X0007156Y0167486D01*
X0007156Y0168484D02*
X0006118Y0168484D01*
X0006118Y0169483D02*
X0008040Y0169483D01*
X0008677Y0170631D02*
X0009059Y0170529D01*
X0013156Y0170529D01*
X0013156Y0173929D01*
X0007756Y0173929D01*
X0007756Y0171832D01*
X0007859Y0171450D01*
X0008056Y0171108D01*
X0008335Y0170829D01*
X0008677Y0170631D01*
X0007851Y0171480D02*
X0006118Y0171480D01*
X0006118Y0172478D02*
X0007756Y0172478D01*
X0007756Y0173477D02*
X0006118Y0173477D01*
X0006118Y0174475D02*
X0013156Y0174475D01*
X0013156Y0174929D02*
X0013156Y0173929D01*
X0014156Y0173929D01*
X0014156Y0170529D01*
X0018254Y0170529D01*
X0018635Y0170631D01*
X0018977Y0170829D01*
X0019257Y0171108D01*
X0019454Y0171450D01*
X0019556Y0171832D01*
X0019556Y0173929D01*
X0014156Y0173929D01*
X0014156Y0174929D01*
X0013156Y0174929D01*
X0007756Y0174929D01*
X0007756Y0177027D01*
X0007859Y0177408D01*
X0008056Y0177750D01*
X0008335Y0178029D01*
X0008677Y0178227D01*
X0009059Y0178329D01*
X0013156Y0178329D01*
X0013156Y0174929D01*
X0013156Y0175474D02*
X0014156Y0175474D01*
X0014156Y0174929D02*
X0014156Y0178329D01*
X0018254Y0178329D01*
X0018635Y0178227D01*
X0018977Y0178029D01*
X0019257Y0177750D01*
X0019454Y0177408D01*
X0019556Y0177027D01*
X0019556Y0174929D01*
X0014156Y0174929D01*
X0014156Y0174475D02*
X0032816Y0174475D01*
X0031818Y0173477D02*
X0019556Y0173477D01*
X0019556Y0172478D02*
X0031626Y0172478D01*
X0031626Y0171480D02*
X0019462Y0171480D01*
X0019273Y0169483D02*
X0031626Y0169483D01*
X0031626Y0170481D02*
X0006118Y0170481D01*
X0006118Y0175474D02*
X0007756Y0175474D01*
X0007756Y0176472D02*
X0006118Y0176472D01*
X0006118Y0177471D02*
X0007895Y0177471D01*
X0006118Y0178469D02*
X0066630Y0178469D01*
X0066630Y0177471D02*
X0019418Y0177471D01*
X0019556Y0176472D02*
X0066630Y0176472D01*
X0066630Y0175474D02*
X0019556Y0175474D01*
X0014156Y0176472D02*
X0013156Y0176472D01*
X0013156Y0177471D02*
X0014156Y0177471D01*
X0014156Y0173477D02*
X0013156Y0173477D01*
X0013156Y0172478D02*
X0014156Y0172478D01*
X0014156Y0171480D02*
X0013156Y0171480D01*
X0015719Y0166215D02*
X0013656Y0165329D01*
X0019592Y0161495D02*
X0031626Y0161495D01*
X0031626Y0162493D02*
X0020156Y0162493D01*
X0019159Y0160496D02*
X0031626Y0160496D01*
X0031626Y0159498D02*
X0020156Y0159498D01*
X0020156Y0158499D02*
X0031626Y0158499D01*
X0031626Y0157501D02*
X0020156Y0157501D01*
X0020156Y0156502D02*
X0032497Y0156502D01*
X0032819Y0155504D02*
X0020156Y0155504D01*
X0020156Y0154505D02*
X0032819Y0154505D01*
X0032819Y0153507D02*
X0020156Y0153507D01*
X0019705Y0152508D02*
X0032819Y0152508D01*
X0032819Y0151510D02*
X0020132Y0151510D01*
X0020834Y0150511D02*
X0032819Y0150511D01*
X0032819Y0149513D02*
X0021537Y0149513D01*
X0022239Y0148514D02*
X0031308Y0148514D01*
X0030309Y0147515D02*
X0022999Y0147515D01*
X0023868Y0146517D02*
X0030252Y0146517D01*
X0030252Y0145518D02*
X0024738Y0145518D01*
X0025608Y0144520D02*
X0030252Y0144520D01*
X0030252Y0143521D02*
X0026477Y0143521D01*
X0027347Y0142523D02*
X0030252Y0142523D01*
X0030252Y0141524D02*
X0028299Y0141524D01*
X0029370Y0140526D02*
X0030252Y0140526D01*
X0030440Y0139527D02*
X0030539Y0139527D01*
X0031510Y0138529D02*
X0049303Y0138529D01*
X0048305Y0139527D02*
X0045916Y0139527D01*
X0046451Y0140526D02*
X0047306Y0140526D01*
X0046840Y0141524D02*
X0046451Y0141524D01*
X0046451Y0142523D02*
X0046775Y0142523D01*
X0046775Y0143521D02*
X0042892Y0143521D01*
X0042892Y0142523D02*
X0041892Y0142523D01*
X0041892Y0141524D02*
X0042892Y0141524D01*
X0042892Y0140526D02*
X0041892Y0140526D01*
X0041892Y0139527D02*
X0042892Y0139527D01*
X0042892Y0135533D02*
X0041892Y0135533D01*
X0041892Y0134535D02*
X0042892Y0134535D01*
X0042892Y0133536D02*
X0041892Y0133536D01*
X0041892Y0132538D02*
X0042892Y0132538D01*
X0046451Y0132538D02*
X0055294Y0132538D01*
X0054296Y0133536D02*
X0046451Y0133536D01*
X0046451Y0134535D02*
X0053297Y0134535D01*
X0052299Y0135533D02*
X0046247Y0135533D01*
X0050302Y0137530D02*
X0032580Y0137530D01*
X0027140Y0134535D02*
X0006118Y0134535D01*
X0006118Y0135533D02*
X0026070Y0135533D01*
X0034911Y0143636D02*
X0035719Y0143715D01*
X0038618Y0148514D02*
X0046775Y0148514D01*
X0046775Y0149513D02*
X0038618Y0149513D01*
X0038618Y0150511D02*
X0046775Y0150511D01*
X0046775Y0151510D02*
X0038618Y0151510D01*
X0038618Y0152508D02*
X0046775Y0152508D01*
X0046775Y0153507D02*
X0038618Y0153507D01*
X0038618Y0154505D02*
X0046775Y0154505D01*
X0046775Y0155504D02*
X0038618Y0155504D01*
X0043617Y0156502D02*
X0046775Y0156502D01*
X0046775Y0157501D02*
X0044488Y0157501D01*
X0044488Y0158499D02*
X0046775Y0158499D01*
X0046775Y0159498D02*
X0044488Y0159498D01*
X0044488Y0160496D02*
X0046775Y0160496D01*
X0046775Y0161495D02*
X0044488Y0161495D01*
X0044488Y0162493D02*
X0046775Y0162493D01*
X0044488Y0169483D02*
X0052575Y0169483D01*
X0052575Y0170481D02*
X0044488Y0170481D01*
X0044488Y0171480D02*
X0052895Y0171480D01*
X0055719Y0166215D02*
X0057628Y0167731D01*
X0062681Y0167486D02*
X0066630Y0167486D01*
X0066630Y0168484D02*
X0062681Y0168484D01*
X0062681Y0169483D02*
X0066630Y0169483D01*
X0066630Y0170481D02*
X0062681Y0170481D01*
X0062361Y0171480D02*
X0066630Y0171480D01*
X0066768Y0172478D02*
X0044488Y0172478D01*
X0044297Y0173477D02*
X0066904Y0173477D01*
X0066630Y0174475D02*
X0043298Y0174475D01*
X0043172Y0184056D02*
X0039014Y0184056D01*
X0038132Y0184421D01*
X0037870Y0184683D01*
X0037622Y0184435D01*
X0037608Y0184421D01*
X0037608Y0184421D01*
X0037102Y0184212D01*
X0036726Y0184056D01*
X0033636Y0184056D01*
X0032754Y0184421D01*
X0031011Y0186164D01*
X0030646Y0187046D01*
X0030646Y0188001D01*
X0031011Y0188883D01*
X0031253Y0189125D01*
X0031011Y0189367D01*
X0030793Y0189894D01*
X0030646Y0190249D01*
X0030646Y0192271D01*
X0031011Y0193153D01*
X0031687Y0193828D01*
X0032754Y0194896D01*
X0033636Y0195261D01*
X0036726Y0195261D01*
X0037102Y0195106D01*
X0037608Y0194896D01*
X0037608Y0194896D01*
X0037622Y0194883D01*
X0037870Y0194634D01*
X0038132Y0194896D01*
X0039014Y0195261D01*
X0043172Y0195261D01*
X0043527Y0195114D01*
X0044054Y0194896D01*
X0045796Y0193153D01*
X0046162Y0192271D01*
X0046162Y0190249D01*
X0045917Y0189659D01*
X0046162Y0189068D01*
X0046162Y0187046D01*
X0045796Y0186164D01*
X0044067Y0184435D01*
X0044054Y0184421D01*
X0044054Y0184421D01*
X0043547Y0184212D01*
X0043172Y0184056D01*
X0044093Y0184460D02*
X0067248Y0184460D01*
X0067248Y0183462D02*
X0006118Y0183462D01*
X0006118Y0184460D02*
X0032715Y0184460D01*
X0031717Y0185459D02*
X0006118Y0185459D01*
X0006118Y0186457D02*
X0030890Y0186457D01*
X0030646Y0187456D02*
X0006118Y0187456D01*
X0006118Y0188454D02*
X0030834Y0188454D01*
X0030976Y0189453D02*
X0018728Y0189453D01*
X0020322Y0190451D02*
X0030646Y0190451D01*
X0030646Y0191450D02*
X0021817Y0191450D01*
X0022656Y0192448D02*
X0030720Y0192448D01*
X0031305Y0193447D02*
X0023323Y0193447D01*
X0023990Y0194446D02*
X0032304Y0194446D01*
X0024607Y0196443D02*
X0067248Y0196443D01*
X0067248Y0197441D02*
X0024805Y0197441D01*
X0025004Y0198440D02*
X0067248Y0198440D01*
X0067248Y0199438D02*
X0024931Y0199438D01*
X0024732Y0200437D02*
X0067248Y0200437D01*
X0067248Y0201435D02*
X0024533Y0201435D01*
X0024335Y0202434D02*
X0067248Y0202434D01*
X0067248Y0203432D02*
X0023743Y0203432D01*
X0023076Y0204431D02*
X0067248Y0204431D01*
X0067248Y0205429D02*
X0022409Y0205429D01*
X0021265Y0206428D02*
X0067248Y0206428D01*
X0067248Y0207426D02*
X0019770Y0207426D01*
X0024408Y0195444D02*
X0067248Y0195444D01*
X0067248Y0194446D02*
X0044504Y0194446D01*
X0045503Y0193447D02*
X0067248Y0193447D01*
X0067248Y0192448D02*
X0046088Y0192448D01*
X0046162Y0191450D02*
X0067248Y0191450D01*
X0067248Y0190451D02*
X0046162Y0190451D01*
X0046003Y0189453D02*
X0067248Y0189453D01*
X0067248Y0188454D02*
X0046162Y0188454D01*
X0046162Y0187456D02*
X0067248Y0187456D01*
X0067248Y0186457D02*
X0045918Y0186457D01*
X0045091Y0185459D02*
X0067248Y0185459D01*
X0067248Y0182463D02*
X0006118Y0182463D01*
X0006118Y0181465D02*
X0067647Y0181465D01*
X0066882Y0180466D02*
X0006118Y0180466D01*
X0006118Y0179468D02*
X0066630Y0179468D01*
X0072667Y0176983D02*
X0073219Y0176215D01*
X0075719Y0176215D01*
X0100719Y0151215D01*
X0100719Y0113715D01*
X0073219Y0121215D02*
X0095719Y0143715D01*
X0072667Y0161235D02*
X0070719Y0161215D01*
X0058219Y0161215D01*
X0057628Y0160250D01*
X0062681Y0164490D02*
X0066654Y0164490D01*
X0067018Y0165489D02*
X0062681Y0165489D01*
X0062681Y0166487D02*
X0066630Y0166487D01*
X0046775Y0147515D02*
X0046146Y0147515D01*
X0046451Y0146517D02*
X0046775Y0146517D01*
X0046775Y0145518D02*
X0046451Y0145518D01*
X0046451Y0144520D02*
X0046775Y0144520D01*
X0042892Y0144520D02*
X0041892Y0144520D01*
X0041892Y0145518D02*
X0042892Y0145518D01*
X0042892Y0146517D02*
X0041892Y0146517D01*
X0041892Y0147515D02*
X0042892Y0147515D01*
X0038686Y0136532D02*
X0051300Y0136532D01*
X0070719Y0121215D02*
X0072667Y0121865D01*
X0073219Y0121215D01*
X0093604Y0083611D02*
X0093936Y0083611D01*
X0075329Y0027694D02*
X0024635Y0027694D01*
X0024834Y0026696D02*
X0076327Y0026696D01*
X0040719Y0051215D02*
X0040719Y0053715D01*
X0038119Y0055652D02*
X0037985Y0055652D01*
X0032769Y0055652D02*
X0031769Y0055652D01*
X0031769Y0054654D02*
X0032769Y0054654D01*
X0032769Y0053655D02*
X0031769Y0053655D01*
X0031769Y0052657D02*
X0032769Y0052657D01*
X0026306Y0048663D02*
X0006118Y0048663D01*
X0006118Y0049661D02*
X0025452Y0049661D01*
X0024993Y0050660D02*
X0006118Y0050660D01*
X0012970Y0130541D02*
X0013152Y0130541D01*
X0013152Y0131539D02*
X0012970Y0131539D01*
X0012970Y0132538D02*
X0013152Y0132538D01*
X0035719Y0163715D02*
X0038057Y0165329D01*
X0035719Y0166215D01*
X0038219Y0166215D02*
X0038057Y0165329D01*
X0038093Y0184460D02*
X0037647Y0184460D01*
X0011331Y0189453D02*
X0006118Y0189453D01*
X0006118Y0190451D02*
X0009737Y0190451D01*
X0008242Y0191450D02*
X0006118Y0191450D01*
X0006118Y0192448D02*
X0007403Y0192448D01*
X0006736Y0193447D02*
X0006118Y0193447D01*
D29*
X0024872Y0184975D03*
X0054006Y0184975D03*
D30*
X0095719Y0143715D03*
X0140719Y0138715D03*
X0148219Y0143715D03*
X0140719Y0118715D03*
X0113100Y0086628D03*
X0035719Y0121215D03*
M02*
