%
M48
M72
T01C0.02362
T02C0.02400
T03C0.02756
T04C0.04000
T05C0.09843
T06C0.12800
%
T01
X13061Y97967
X13061Y126313
X24872Y184975
X54006Y184975
T02
X113100Y86628
X140719Y118715
X140719Y138715
X148219Y143715
X95719Y143715
X35719Y121215
T03
X24085Y99148
X20541Y104463
X20541Y119817
X24085Y125132
T04
X32269Y34264
X32269Y52064
X57869Y52064
X57869Y34264
X94144Y58400
X104144Y58400
X114144Y58400
X109144Y68400
X99144Y68400
X89144Y68400
X119360Y100329
X129360Y100329
X154670Y160406
X154670Y178206
X180270Y178206
X180270Y160406
X194163Y137140
X194163Y127140
X194163Y117140
X194163Y107140
X194163Y97140
X194163Y87140
T05
X15030Y25526
X188258Y25526
X188258Y198754
X15030Y198754
T06
X81644Y33400
X121644Y33400
M30
