G75*
%MOIN*%
%OFA0B0*%
%FSLAX25Y25*%
%IPPOS*%
%LPD*%
%AMOC8*
5,1,8,0,0,1.08239X$1,22.5*
%
%ADD10C,0.01600*%
%ADD11C,0.00300*%
%ADD12C,0.00600*%
%ADD13C,0.01200*%
%ADD14R,0.00750X0.03500*%
%ADD15C,0.00800*%
%ADD16C,0.00000*%
%ADD17C,0.00100*%
%ADD18C,0.00500*%
%ADD19C,0.00700*%
D10*
X0011093Y0013715D02*
X0192195Y0013715D01*
X0200069Y0021589D01*
X0200069Y0202691D01*
X0192195Y0210565D01*
X0133140Y0210565D01*
X0133140Y0183006D01*
X0070148Y0183006D01*
X0070148Y0210565D01*
X0011093Y0210565D01*
X0003219Y0202691D01*
X0003219Y0021589D01*
X0011093Y0013715D01*
D11*
X0054550Y0067015D02*
X0056485Y0067015D01*
X0055517Y0067015D02*
X0055517Y0069917D01*
X0054550Y0068950D01*
X0057496Y0069433D02*
X0057496Y0067498D01*
X0059431Y0069433D01*
X0059431Y0067498D01*
X0058947Y0067015D01*
X0057980Y0067015D01*
X0057496Y0067498D01*
X0057496Y0069433D02*
X0057980Y0069917D01*
X0058947Y0069917D01*
X0059431Y0069433D01*
X0060443Y0069917D02*
X0060443Y0067015D01*
X0060443Y0067982D02*
X0062378Y0069917D01*
X0060926Y0068466D02*
X0062378Y0067015D01*
X0070453Y0064794D02*
X0072388Y0064794D01*
X0072872Y0065278D01*
X0070937Y0065278D02*
X0070937Y0064310D01*
X0070937Y0063306D02*
X0070937Y0062822D01*
X0071904Y0061855D01*
X0070937Y0061855D02*
X0072872Y0061855D01*
X0072388Y0060843D02*
X0071420Y0060843D01*
X0070937Y0060359D01*
X0070937Y0059392D01*
X0071420Y0058908D01*
X0072388Y0058908D01*
X0072872Y0059392D01*
X0072872Y0060359D01*
X0072388Y0060843D01*
X0072388Y0057897D02*
X0071420Y0057897D01*
X0070937Y0057413D01*
X0070937Y0056445D01*
X0071420Y0055962D01*
X0072388Y0055962D01*
X0072872Y0056445D01*
X0072872Y0057413D01*
X0072388Y0057897D01*
X0072388Y0054950D02*
X0071420Y0054950D01*
X0070937Y0054466D01*
X0070937Y0053015D01*
X0073839Y0053015D01*
X0072872Y0053015D02*
X0072872Y0054466D01*
X0072388Y0054950D01*
X0072872Y0049057D02*
X0072872Y0047122D01*
X0072872Y0048090D02*
X0069969Y0048090D01*
X0070937Y0047122D01*
X0071420Y0046111D02*
X0071904Y0045627D01*
X0071904Y0044176D01*
X0072872Y0044176D02*
X0069969Y0044176D01*
X0069969Y0045627D01*
X0070453Y0046111D01*
X0071420Y0046111D01*
X0071420Y0040218D02*
X0071420Y0038283D01*
X0072872Y0034325D02*
X0072872Y0032390D01*
X0072872Y0033357D02*
X0069969Y0033357D01*
X0070937Y0032390D01*
X0072872Y0031378D02*
X0072872Y0029443D01*
X0072872Y0030411D02*
X0069969Y0030411D01*
X0070937Y0029443D01*
X0069969Y0028431D02*
X0069969Y0027464D01*
X0069969Y0027948D02*
X0072388Y0027948D01*
X0072872Y0027464D01*
X0072872Y0026980D01*
X0072388Y0026497D01*
X0072872Y0025485D02*
X0071904Y0024517D01*
X0071904Y0025001D02*
X0071904Y0023550D01*
X0072872Y0023550D02*
X0069969Y0023550D01*
X0069969Y0025001D01*
X0070453Y0025485D01*
X0071420Y0025485D01*
X0071904Y0025001D01*
X0079353Y0080400D02*
X0079353Y0084104D01*
X0081204Y0084104D01*
X0081822Y0083486D01*
X0081822Y0082252D01*
X0081204Y0081635D01*
X0079353Y0081635D01*
X0083036Y0082869D02*
X0084270Y0084104D01*
X0084270Y0080400D01*
X0083036Y0080400D02*
X0085505Y0080400D01*
X0090402Y0080400D02*
X0092254Y0080400D01*
X0092871Y0081018D01*
X0092871Y0082252D01*
X0092254Y0082869D01*
X0090402Y0082869D01*
X0090402Y0079166D01*
X0094085Y0081018D02*
X0094703Y0080400D01*
X0096554Y0080400D01*
X0096554Y0082869D01*
X0097768Y0084104D02*
X0098386Y0084104D01*
X0098386Y0080400D01*
X0099003Y0080400D02*
X0097768Y0080400D01*
X0100224Y0080400D02*
X0101458Y0080400D01*
X0100841Y0080400D02*
X0100841Y0084104D01*
X0100224Y0084104D01*
X0102679Y0082869D02*
X0102679Y0081018D01*
X0103297Y0080400D01*
X0105148Y0080400D01*
X0105148Y0082869D01*
X0106362Y0082869D02*
X0108214Y0082869D01*
X0108831Y0082252D01*
X0108831Y0081018D01*
X0108214Y0080400D01*
X0106362Y0080400D01*
X0106362Y0079166D02*
X0106362Y0082869D01*
X0106675Y0086700D02*
X0105224Y0088151D01*
X0104740Y0087667D02*
X0106675Y0089602D01*
X0107687Y0089118D02*
X0108170Y0089602D01*
X0109138Y0089602D01*
X0109622Y0089118D01*
X0109622Y0088635D01*
X0107687Y0086700D01*
X0109622Y0086700D01*
X0104740Y0086700D02*
X0104740Y0089602D01*
X0103729Y0089118D02*
X0103245Y0089602D01*
X0102277Y0089602D01*
X0101794Y0089118D01*
X0103729Y0089118D02*
X0103729Y0088635D01*
X0101794Y0086700D01*
X0103729Y0086700D01*
X0112817Y0090637D02*
X0112817Y0094340D01*
X0114669Y0094340D01*
X0115286Y0093723D01*
X0115286Y0092488D01*
X0114669Y0091871D01*
X0112817Y0091871D01*
X0116500Y0090637D02*
X0118969Y0090637D01*
X0117735Y0090637D02*
X0117735Y0094340D01*
X0116500Y0093105D01*
X0123867Y0092488D02*
X0123867Y0091254D01*
X0124484Y0090637D01*
X0125718Y0090637D01*
X0126336Y0091871D02*
X0123867Y0091871D01*
X0123867Y0092488D02*
X0124484Y0093105D01*
X0125718Y0093105D01*
X0126336Y0092488D01*
X0126336Y0091871D01*
X0127550Y0090637D02*
X0127550Y0093105D01*
X0129401Y0093105D01*
X0130019Y0092488D01*
X0130019Y0090637D01*
X0131233Y0091254D02*
X0131850Y0091871D01*
X0133702Y0091871D01*
X0133702Y0092488D02*
X0133702Y0090637D01*
X0131850Y0090637D01*
X0131233Y0091254D01*
X0131850Y0093105D02*
X0133085Y0093105D01*
X0133702Y0092488D01*
X0134916Y0093105D02*
X0136768Y0093105D01*
X0137385Y0092488D01*
X0137385Y0091254D01*
X0136768Y0090637D01*
X0134916Y0090637D01*
X0134916Y0094340D01*
X0138599Y0094340D02*
X0139217Y0094340D01*
X0139217Y0090637D01*
X0139834Y0090637D02*
X0138599Y0090637D01*
X0140096Y0089155D02*
X0140579Y0089638D01*
X0141547Y0089638D01*
X0142031Y0089155D01*
X0142031Y0087220D01*
X0141547Y0086736D01*
X0140579Y0086736D01*
X0140096Y0087220D01*
X0140096Y0089155D01*
X0141063Y0087703D02*
X0142031Y0086736D01*
X0143042Y0086736D02*
X0144977Y0086736D01*
X0144010Y0086736D02*
X0144010Y0089638D01*
X0143042Y0088671D01*
X0142906Y0090637D02*
X0141672Y0090637D01*
X0141055Y0091254D01*
X0141055Y0092488D01*
X0141672Y0093105D01*
X0142906Y0093105D01*
X0143524Y0092488D01*
X0143524Y0091871D01*
X0141055Y0091871D01*
X0156225Y0089424D02*
X0156709Y0089908D01*
X0157676Y0089908D01*
X0158160Y0089424D01*
X0158160Y0088940D01*
X0156225Y0087006D01*
X0158160Y0087006D01*
X0159171Y0087006D02*
X0159171Y0089908D01*
X0161106Y0087006D01*
X0161106Y0089908D01*
X0162118Y0089908D02*
X0164053Y0089908D01*
X0164053Y0089424D01*
X0162118Y0087489D01*
X0162118Y0087006D01*
X0165064Y0087489D02*
X0166999Y0089424D01*
X0166999Y0087489D01*
X0166516Y0087006D01*
X0165548Y0087006D01*
X0165064Y0087489D01*
X0165064Y0089424D01*
X0165548Y0089908D01*
X0166516Y0089908D01*
X0166999Y0089424D01*
X0168011Y0089424D02*
X0168011Y0087489D01*
X0169946Y0089424D01*
X0169946Y0087489D01*
X0169462Y0087006D01*
X0168495Y0087006D01*
X0168011Y0087489D01*
X0168011Y0089424D02*
X0168495Y0089908D01*
X0169462Y0089908D01*
X0169946Y0089424D01*
X0170957Y0089424D02*
X0171441Y0089908D01*
X0172409Y0089908D01*
X0172892Y0089424D01*
X0172892Y0088940D01*
X0170957Y0087006D01*
X0172892Y0087006D01*
X0172614Y0106385D02*
X0171163Y0107836D01*
X0170679Y0107352D02*
X0172614Y0109287D01*
X0170679Y0109287D02*
X0170679Y0106385D01*
X0169667Y0106868D02*
X0169667Y0108803D01*
X0167732Y0106868D01*
X0168216Y0106385D01*
X0169184Y0106385D01*
X0169667Y0106868D01*
X0167732Y0106868D02*
X0167732Y0108803D01*
X0168216Y0109287D01*
X0169184Y0109287D01*
X0169667Y0108803D01*
X0166721Y0106385D02*
X0164786Y0106385D01*
X0165753Y0106385D02*
X0165753Y0109287D01*
X0164786Y0108320D01*
X0164786Y0118589D02*
X0166721Y0118589D01*
X0165753Y0118589D02*
X0165753Y0121492D01*
X0164786Y0120524D01*
X0167732Y0121008D02*
X0168216Y0121492D01*
X0169184Y0121492D01*
X0169667Y0121008D01*
X0167732Y0119073D01*
X0168216Y0118589D01*
X0169184Y0118589D01*
X0169667Y0119073D01*
X0169667Y0121008D01*
X0170679Y0121492D02*
X0170679Y0118589D01*
X0170679Y0119557D02*
X0172614Y0121492D01*
X0171163Y0120041D02*
X0172614Y0118589D01*
X0167732Y0119073D02*
X0167732Y0121008D01*
X0167305Y0129413D02*
X0166337Y0129413D01*
X0165853Y0129897D01*
X0167788Y0131832D01*
X0167788Y0129897D01*
X0167305Y0129413D01*
X0168800Y0129413D02*
X0168800Y0132315D01*
X0167788Y0131832D02*
X0167305Y0132315D01*
X0166337Y0132315D01*
X0165853Y0131832D01*
X0165853Y0129897D01*
X0164842Y0129413D02*
X0162907Y0129413D01*
X0163874Y0129413D02*
X0163874Y0132315D01*
X0162907Y0131348D01*
X0168800Y0130380D02*
X0170735Y0132315D01*
X0169284Y0130864D02*
X0170735Y0129413D01*
X0169196Y0197673D02*
X0169680Y0198157D01*
X0169680Y0200092D01*
X0169196Y0200575D01*
X0167745Y0200575D01*
X0167745Y0197673D01*
X0169196Y0197673D01*
X0166733Y0197673D02*
X0164798Y0197673D01*
X0164798Y0200575D01*
X0166733Y0200575D01*
X0165766Y0199124D02*
X0164798Y0199124D01*
X0163787Y0197673D02*
X0161852Y0197673D01*
X0161852Y0200575D01*
X0148738Y0202841D02*
X0148738Y0204776D01*
X0148738Y0203809D02*
X0145835Y0203809D01*
X0146803Y0202841D01*
X0147770Y0205788D02*
X0145835Y0207723D01*
X0145835Y0205788D02*
X0148738Y0205788D01*
X0147287Y0206272D02*
X0148738Y0207723D01*
X0060155Y0179173D02*
X0058704Y0177722D01*
X0059188Y0177238D02*
X0057253Y0179173D01*
X0057253Y0177238D02*
X0060155Y0177238D01*
X0059671Y0176227D02*
X0057736Y0176227D01*
X0059671Y0174292D01*
X0060155Y0174776D01*
X0060155Y0175743D01*
X0059671Y0176227D01*
X0057736Y0176227D02*
X0057253Y0175743D01*
X0057253Y0174776D01*
X0057736Y0174292D01*
X0059671Y0174292D01*
X0060155Y0173280D02*
X0060155Y0171345D01*
X0060155Y0172313D02*
X0057253Y0172313D01*
X0058220Y0171345D01*
X0057056Y0145901D02*
X0055121Y0145901D01*
X0055121Y0142999D01*
X0054110Y0142999D02*
X0054110Y0144934D01*
X0055121Y0144450D02*
X0056089Y0144450D01*
X0054110Y0142999D02*
X0052659Y0142999D01*
X0052175Y0143483D01*
X0052175Y0144934D01*
X0051163Y0144934D02*
X0051163Y0145418D01*
X0050680Y0145901D01*
X0049712Y0145901D01*
X0049228Y0145418D01*
X0048217Y0145418D02*
X0047733Y0145901D01*
X0046766Y0145901D01*
X0046282Y0145418D01*
X0048217Y0145418D02*
X0048217Y0144934D01*
X0046282Y0142999D01*
X0048217Y0142999D01*
X0049228Y0142999D02*
X0051163Y0144934D01*
X0051163Y0142999D02*
X0049228Y0142999D01*
X0049318Y0134090D02*
X0050286Y0134090D01*
X0050770Y0133607D01*
X0048835Y0131672D01*
X0049318Y0131188D01*
X0050286Y0131188D01*
X0050770Y0131672D01*
X0050770Y0133607D01*
X0051781Y0133123D02*
X0051781Y0131672D01*
X0052265Y0131188D01*
X0053716Y0131188D01*
X0053716Y0133123D01*
X0054728Y0132639D02*
X0055695Y0132639D01*
X0054728Y0131188D02*
X0054728Y0134090D01*
X0056663Y0134090D01*
X0049318Y0134090D02*
X0048835Y0133607D01*
X0048835Y0131672D01*
X0047823Y0131188D02*
X0045888Y0131188D01*
X0046856Y0131188D02*
X0046856Y0134090D01*
X0045888Y0133123D01*
X0028156Y0155987D02*
X0025254Y0155987D01*
X0028156Y0155987D02*
X0028156Y0157922D01*
X0028156Y0158934D02*
X0025254Y0158934D01*
X0026221Y0159901D01*
X0025254Y0160869D01*
X0028156Y0160869D01*
X0028156Y0161880D02*
X0028156Y0163815D01*
X0028156Y0162848D02*
X0025254Y0162848D01*
X0026221Y0161880D01*
X0026221Y0164827D02*
X0025254Y0165794D01*
X0028156Y0165794D01*
X0028156Y0164827D02*
X0028156Y0166762D01*
X0028156Y0167773D02*
X0028156Y0169708D01*
X0028156Y0168741D02*
X0025254Y0168741D01*
X0026221Y0167773D01*
X0025254Y0170720D02*
X0025254Y0172655D01*
X0025738Y0172655D01*
X0027673Y0170720D01*
X0028156Y0170720D01*
X0028310Y0091531D02*
X0028310Y0088629D01*
X0029761Y0088629D01*
X0030245Y0089112D01*
X0030245Y0090080D01*
X0029761Y0090564D01*
X0028310Y0090564D01*
X0027298Y0090564D02*
X0025847Y0090564D01*
X0025363Y0090080D01*
X0025847Y0089596D01*
X0026815Y0089596D01*
X0027298Y0089112D01*
X0026815Y0088629D01*
X0025363Y0088629D01*
X0024352Y0088629D02*
X0024352Y0090564D01*
X0022417Y0090564D02*
X0022417Y0089112D01*
X0022901Y0088629D01*
X0024352Y0088629D01*
X0018459Y0089112D02*
X0018459Y0090080D01*
X0017975Y0090564D01*
X0017008Y0090564D01*
X0016524Y0090080D01*
X0016524Y0089112D01*
X0017008Y0088629D01*
X0017975Y0088629D01*
X0018459Y0089112D01*
X0015520Y0090564D02*
X0015036Y0090564D01*
X0014068Y0089596D01*
X0014068Y0088629D02*
X0014068Y0090564D01*
X0013057Y0090564D02*
X0011606Y0090564D01*
X0011122Y0090080D01*
X0011122Y0089112D01*
X0011606Y0088629D01*
X0013057Y0088629D01*
X0010125Y0088629D02*
X0009158Y0088629D01*
X0009641Y0088629D02*
X0009641Y0090564D01*
X0009158Y0090564D01*
X0009641Y0091531D02*
X0009641Y0092015D01*
X0008146Y0090080D02*
X0008146Y0088629D01*
X0007179Y0088629D02*
X0007179Y0090080D01*
X0007662Y0090564D01*
X0008146Y0090080D01*
X0007179Y0090080D02*
X0006695Y0090564D01*
X0006211Y0090564D01*
X0006211Y0088629D01*
X0094085Y0082869D02*
X0094085Y0081018D01*
D12*
X0084971Y0087283D02*
X0084538Y0086850D01*
X0083670Y0086850D01*
X0083237Y0087283D01*
X0084104Y0088151D02*
X0084538Y0088151D01*
X0084971Y0087717D01*
X0084971Y0087283D01*
X0084538Y0088151D02*
X0084971Y0088584D01*
X0084971Y0089018D01*
X0084538Y0089452D01*
X0083670Y0089452D01*
X0083237Y0089018D01*
X0082025Y0089018D02*
X0082025Y0088151D01*
X0081591Y0087717D01*
X0080290Y0087717D01*
X0080290Y0086850D02*
X0080290Y0089452D01*
X0081591Y0089452D01*
X0082025Y0089018D01*
X0081158Y0087717D02*
X0082025Y0086850D01*
X0035325Y0069767D02*
X0035325Y0067165D01*
X0035759Y0068466D02*
X0034024Y0068466D01*
X0035325Y0069767D01*
X0032812Y0069333D02*
X0032812Y0068466D01*
X0032379Y0068032D01*
X0031078Y0068032D01*
X0031945Y0068032D02*
X0032812Y0067165D01*
X0031078Y0067165D02*
X0031078Y0069767D01*
X0032379Y0069767D01*
X0032812Y0069333D01*
X0033099Y0027901D02*
X0029896Y0027901D01*
X0029896Y0021495D01*
X0029896Y0023630D02*
X0033099Y0023630D01*
X0034167Y0024698D01*
X0034167Y0026833D01*
X0033099Y0027901D01*
X0036342Y0027901D02*
X0036342Y0021495D01*
X0040612Y0021495D01*
X0042787Y0022563D02*
X0043855Y0021495D01*
X0045990Y0021495D01*
X0047058Y0022563D01*
X0047058Y0023630D01*
X0045990Y0024698D01*
X0043855Y0024698D01*
X0042787Y0025766D01*
X0042787Y0026833D01*
X0043855Y0027901D01*
X0045990Y0027901D01*
X0047058Y0026833D01*
X0049233Y0027901D02*
X0049233Y0021495D01*
X0053503Y0021495D01*
X0051368Y0024698D02*
X0049233Y0024698D01*
X0049233Y0027901D02*
X0053503Y0027901D01*
X0055678Y0027901D02*
X0059949Y0027901D01*
X0057814Y0027901D02*
X0057814Y0021495D01*
X0040612Y0027901D02*
X0036342Y0027901D01*
X0036342Y0024698D02*
X0038477Y0024698D01*
X0034167Y0021495D02*
X0032032Y0023630D01*
X0031898Y0115516D02*
X0029296Y0117250D01*
X0029730Y0118462D02*
X0029296Y0118896D01*
X0029296Y0119763D01*
X0029730Y0120197D01*
X0030163Y0120197D01*
X0031898Y0118462D01*
X0031898Y0120197D01*
X0031898Y0117250D02*
X0029296Y0115516D01*
X0030127Y0130550D02*
X0029693Y0130984D01*
X0030127Y0130550D02*
X0030994Y0130550D01*
X0031428Y0130984D01*
X0031428Y0131418D01*
X0030994Y0131852D01*
X0030561Y0131852D01*
X0030994Y0131852D02*
X0031428Y0132285D01*
X0031428Y0132719D01*
X0030994Y0133153D01*
X0030127Y0133153D01*
X0029693Y0132719D01*
X0028482Y0132719D02*
X0028048Y0133153D01*
X0027181Y0133153D01*
X0026747Y0132719D01*
X0026747Y0130984D01*
X0027181Y0130550D01*
X0028048Y0130550D01*
X0028482Y0130984D01*
X0028048Y0142755D02*
X0028482Y0143189D01*
X0028048Y0142755D02*
X0027181Y0142755D01*
X0026747Y0143189D01*
X0026747Y0144924D01*
X0027181Y0145357D01*
X0028048Y0145357D01*
X0028482Y0144924D01*
X0029693Y0144056D02*
X0031428Y0144056D01*
X0030994Y0142755D02*
X0030994Y0145357D01*
X0029693Y0144056D01*
X0057403Y0151810D02*
X0057403Y0153111D01*
X0057837Y0153545D01*
X0058704Y0153545D01*
X0059138Y0153111D01*
X0059138Y0151810D01*
X0060005Y0151810D02*
X0057403Y0151810D01*
X0059138Y0152678D02*
X0060005Y0153545D01*
X0060005Y0154757D02*
X0060005Y0156492D01*
X0060005Y0155624D02*
X0057403Y0155624D01*
X0058270Y0154757D01*
X0086755Y0189743D02*
X0086755Y0192679D01*
X0088223Y0194147D01*
X0089691Y0192679D01*
X0089691Y0189743D01*
X0091359Y0189743D02*
X0091359Y0192679D01*
X0093561Y0192679D01*
X0094295Y0191945D01*
X0094295Y0189743D01*
X0096697Y0190477D02*
X0097430Y0189743D01*
X0096697Y0190477D02*
X0096697Y0193413D01*
X0097430Y0192679D02*
X0095963Y0192679D01*
X0099032Y0191945D02*
X0099032Y0190477D01*
X0099766Y0189743D01*
X0101234Y0189743D01*
X0101968Y0191211D02*
X0099032Y0191211D01*
X0099032Y0191945D02*
X0099766Y0192679D01*
X0101234Y0192679D01*
X0101968Y0191945D01*
X0101968Y0191211D01*
X0103636Y0189743D02*
X0103636Y0192679D01*
X0105838Y0192679D01*
X0106572Y0191945D01*
X0106572Y0189743D01*
X0108240Y0189743D02*
X0108240Y0192679D01*
X0110442Y0192679D01*
X0111176Y0191945D01*
X0111176Y0189743D01*
X0112844Y0190477D02*
X0113578Y0191211D01*
X0115779Y0191211D01*
X0115779Y0191945D02*
X0115779Y0189743D01*
X0113578Y0189743D01*
X0112844Y0190477D01*
X0113578Y0192679D02*
X0115046Y0192679D01*
X0115779Y0191945D01*
X0089691Y0191945D02*
X0086755Y0191945D01*
X0145777Y0185003D02*
X0145777Y0184135D01*
X0146211Y0183702D01*
X0146211Y0182490D02*
X0147078Y0182490D01*
X0147512Y0182056D01*
X0147512Y0180755D01*
X0148379Y0180755D02*
X0145777Y0180755D01*
X0145777Y0182056D01*
X0146211Y0182490D01*
X0147512Y0181623D02*
X0148379Y0182490D01*
X0148379Y0183702D02*
X0146644Y0185436D01*
X0146211Y0185436D01*
X0145777Y0185003D01*
X0148379Y0185436D02*
X0148379Y0183702D01*
X0154350Y0202720D02*
X0155651Y0202720D01*
X0156085Y0203154D01*
X0156085Y0204889D01*
X0155651Y0205323D01*
X0154350Y0205323D01*
X0154350Y0202720D01*
X0157296Y0203154D02*
X0157730Y0202720D01*
X0158598Y0202720D01*
X0159031Y0203154D01*
X0159031Y0203588D01*
X0158598Y0204022D01*
X0158164Y0204022D01*
X0158598Y0204022D02*
X0159031Y0204455D01*
X0159031Y0204889D01*
X0158598Y0205323D01*
X0157730Y0205323D01*
X0157296Y0204889D01*
X0166116Y0204109D02*
X0168116Y0205609D01*
X0168116Y0202609D01*
X0166116Y0204109D01*
X0166206Y0204042D02*
X0168116Y0204042D01*
X0168116Y0204640D02*
X0166825Y0204640D01*
X0167623Y0205239D02*
X0168116Y0205239D01*
X0168116Y0203443D02*
X0167004Y0203443D01*
X0167802Y0202845D02*
X0168116Y0202845D01*
X0170773Y0155066D02*
X0169705Y0153999D01*
X0169705Y0152931D01*
X0170773Y0151863D01*
X0172908Y0151863D01*
X0173976Y0150796D01*
X0173976Y0149728D01*
X0172908Y0148661D01*
X0170773Y0148661D01*
X0169705Y0149728D01*
X0167530Y0148661D02*
X0167530Y0152931D01*
X0165395Y0155066D01*
X0163260Y0152931D01*
X0163260Y0148661D01*
X0161085Y0148661D02*
X0156814Y0148661D01*
X0156814Y0155066D01*
X0154639Y0155066D02*
X0150369Y0155066D01*
X0150369Y0148661D01*
X0150369Y0151863D02*
X0152504Y0151863D01*
X0163260Y0151863D02*
X0167530Y0151863D01*
X0170773Y0155066D02*
X0172908Y0155066D01*
X0173976Y0153999D01*
X0176151Y0155066D02*
X0176151Y0148661D01*
X0176151Y0151863D02*
X0180421Y0151863D01*
X0180421Y0148661D02*
X0180421Y0155066D01*
X0147850Y0131634D02*
X0146115Y0131634D01*
X0146115Y0130333D01*
X0146983Y0130766D01*
X0147416Y0130766D01*
X0147850Y0130333D01*
X0147850Y0129465D01*
X0147416Y0129031D01*
X0146549Y0129031D01*
X0146115Y0129465D01*
X0144904Y0129031D02*
X0144036Y0129899D01*
X0144470Y0129899D02*
X0143169Y0129899D01*
X0143169Y0129031D02*
X0143169Y0131634D01*
X0144470Y0131634D01*
X0144904Y0131200D01*
X0144904Y0130333D01*
X0144470Y0129899D01*
X0144583Y0120948D02*
X0145017Y0120514D01*
X0145017Y0119647D01*
X0144583Y0119213D01*
X0143282Y0119213D01*
X0143282Y0118346D02*
X0143282Y0120948D01*
X0144583Y0120948D01*
X0144150Y0119213D02*
X0145017Y0118346D01*
X0146229Y0118779D02*
X0146229Y0119647D01*
X0147530Y0119647D01*
X0147964Y0119213D01*
X0147964Y0118779D01*
X0147530Y0118346D01*
X0146663Y0118346D01*
X0146229Y0118779D01*
X0146229Y0119647D02*
X0147096Y0120514D01*
X0147964Y0120948D01*
X0147964Y0109137D02*
X0146229Y0109137D01*
X0145017Y0108703D02*
X0145017Y0107836D01*
X0144583Y0107402D01*
X0143282Y0107402D01*
X0143282Y0106535D02*
X0143282Y0109137D01*
X0144583Y0109137D01*
X0145017Y0108703D01*
X0144150Y0107402D02*
X0145017Y0106535D01*
X0146229Y0106535D02*
X0146229Y0106968D01*
X0147964Y0108703D01*
X0147964Y0109137D01*
D13*
X0156762Y0110203D02*
X0156762Y0106203D01*
X0156762Y0118014D02*
X0156762Y0122014D01*
X0156762Y0129431D02*
X0156762Y0133431D01*
X0150179Y0194109D02*
X0146179Y0194109D01*
X0059628Y0163991D02*
X0055628Y0163991D01*
X0038652Y0145636D02*
X0038652Y0141636D01*
X0038652Y0133825D02*
X0038652Y0129825D01*
X0093770Y0090518D02*
X0093770Y0086518D01*
X0044518Y0070794D02*
X0044518Y0066794D01*
D14*
X0166188Y0204109D03*
D15*
X0180384Y0198754D02*
X0180386Y0198947D01*
X0180393Y0199140D01*
X0180405Y0199333D01*
X0180422Y0199526D01*
X0180443Y0199718D01*
X0180469Y0199909D01*
X0180500Y0200100D01*
X0180535Y0200290D01*
X0180575Y0200479D01*
X0180620Y0200667D01*
X0180669Y0200854D01*
X0180723Y0201040D01*
X0180781Y0201224D01*
X0180844Y0201407D01*
X0180912Y0201588D01*
X0180983Y0201767D01*
X0181060Y0201945D01*
X0181140Y0202121D01*
X0181225Y0202294D01*
X0181314Y0202466D01*
X0181407Y0202635D01*
X0181504Y0202802D01*
X0181606Y0202967D01*
X0181711Y0203129D01*
X0181820Y0203288D01*
X0181934Y0203445D01*
X0182051Y0203598D01*
X0182171Y0203749D01*
X0182296Y0203897D01*
X0182424Y0204042D01*
X0182555Y0204183D01*
X0182690Y0204322D01*
X0182829Y0204457D01*
X0182970Y0204588D01*
X0183115Y0204716D01*
X0183263Y0204841D01*
X0183414Y0204961D01*
X0183567Y0205078D01*
X0183724Y0205192D01*
X0183883Y0205301D01*
X0184045Y0205406D01*
X0184210Y0205508D01*
X0184377Y0205605D01*
X0184546Y0205698D01*
X0184718Y0205787D01*
X0184891Y0205872D01*
X0185067Y0205952D01*
X0185245Y0206029D01*
X0185424Y0206100D01*
X0185605Y0206168D01*
X0185788Y0206231D01*
X0185972Y0206289D01*
X0186158Y0206343D01*
X0186345Y0206392D01*
X0186533Y0206437D01*
X0186722Y0206477D01*
X0186912Y0206512D01*
X0187103Y0206543D01*
X0187294Y0206569D01*
X0187486Y0206590D01*
X0187679Y0206607D01*
X0187872Y0206619D01*
X0188065Y0206626D01*
X0188258Y0206628D01*
X0188451Y0206626D01*
X0188644Y0206619D01*
X0188837Y0206607D01*
X0189030Y0206590D01*
X0189222Y0206569D01*
X0189413Y0206543D01*
X0189604Y0206512D01*
X0189794Y0206477D01*
X0189983Y0206437D01*
X0190171Y0206392D01*
X0190358Y0206343D01*
X0190544Y0206289D01*
X0190728Y0206231D01*
X0190911Y0206168D01*
X0191092Y0206100D01*
X0191271Y0206029D01*
X0191449Y0205952D01*
X0191625Y0205872D01*
X0191798Y0205787D01*
X0191970Y0205698D01*
X0192139Y0205605D01*
X0192306Y0205508D01*
X0192471Y0205406D01*
X0192633Y0205301D01*
X0192792Y0205192D01*
X0192949Y0205078D01*
X0193102Y0204961D01*
X0193253Y0204841D01*
X0193401Y0204716D01*
X0193546Y0204588D01*
X0193687Y0204457D01*
X0193826Y0204322D01*
X0193961Y0204183D01*
X0194092Y0204042D01*
X0194220Y0203897D01*
X0194345Y0203749D01*
X0194465Y0203598D01*
X0194582Y0203445D01*
X0194696Y0203288D01*
X0194805Y0203129D01*
X0194910Y0202967D01*
X0195012Y0202802D01*
X0195109Y0202635D01*
X0195202Y0202466D01*
X0195291Y0202294D01*
X0195376Y0202121D01*
X0195456Y0201945D01*
X0195533Y0201767D01*
X0195604Y0201588D01*
X0195672Y0201407D01*
X0195735Y0201224D01*
X0195793Y0201040D01*
X0195847Y0200854D01*
X0195896Y0200667D01*
X0195941Y0200479D01*
X0195981Y0200290D01*
X0196016Y0200100D01*
X0196047Y0199909D01*
X0196073Y0199718D01*
X0196094Y0199526D01*
X0196111Y0199333D01*
X0196123Y0199140D01*
X0196130Y0198947D01*
X0196132Y0198754D01*
X0196130Y0198561D01*
X0196123Y0198368D01*
X0196111Y0198175D01*
X0196094Y0197982D01*
X0196073Y0197790D01*
X0196047Y0197599D01*
X0196016Y0197408D01*
X0195981Y0197218D01*
X0195941Y0197029D01*
X0195896Y0196841D01*
X0195847Y0196654D01*
X0195793Y0196468D01*
X0195735Y0196284D01*
X0195672Y0196101D01*
X0195604Y0195920D01*
X0195533Y0195741D01*
X0195456Y0195563D01*
X0195376Y0195387D01*
X0195291Y0195214D01*
X0195202Y0195042D01*
X0195109Y0194873D01*
X0195012Y0194706D01*
X0194910Y0194541D01*
X0194805Y0194379D01*
X0194696Y0194220D01*
X0194582Y0194063D01*
X0194465Y0193910D01*
X0194345Y0193759D01*
X0194220Y0193611D01*
X0194092Y0193466D01*
X0193961Y0193325D01*
X0193826Y0193186D01*
X0193687Y0193051D01*
X0193546Y0192920D01*
X0193401Y0192792D01*
X0193253Y0192667D01*
X0193102Y0192547D01*
X0192949Y0192430D01*
X0192792Y0192316D01*
X0192633Y0192207D01*
X0192471Y0192102D01*
X0192306Y0192000D01*
X0192139Y0191903D01*
X0191970Y0191810D01*
X0191798Y0191721D01*
X0191625Y0191636D01*
X0191449Y0191556D01*
X0191271Y0191479D01*
X0191092Y0191408D01*
X0190911Y0191340D01*
X0190728Y0191277D01*
X0190544Y0191219D01*
X0190358Y0191165D01*
X0190171Y0191116D01*
X0189983Y0191071D01*
X0189794Y0191031D01*
X0189604Y0190996D01*
X0189413Y0190965D01*
X0189222Y0190939D01*
X0189030Y0190918D01*
X0188837Y0190901D01*
X0188644Y0190889D01*
X0188451Y0190882D01*
X0188258Y0190880D01*
X0188065Y0190882D01*
X0187872Y0190889D01*
X0187679Y0190901D01*
X0187486Y0190918D01*
X0187294Y0190939D01*
X0187103Y0190965D01*
X0186912Y0190996D01*
X0186722Y0191031D01*
X0186533Y0191071D01*
X0186345Y0191116D01*
X0186158Y0191165D01*
X0185972Y0191219D01*
X0185788Y0191277D01*
X0185605Y0191340D01*
X0185424Y0191408D01*
X0185245Y0191479D01*
X0185067Y0191556D01*
X0184891Y0191636D01*
X0184718Y0191721D01*
X0184546Y0191810D01*
X0184377Y0191903D01*
X0184210Y0192000D01*
X0184045Y0192102D01*
X0183883Y0192207D01*
X0183724Y0192316D01*
X0183567Y0192430D01*
X0183414Y0192547D01*
X0183263Y0192667D01*
X0183115Y0192792D01*
X0182970Y0192920D01*
X0182829Y0193051D01*
X0182690Y0193186D01*
X0182555Y0193325D01*
X0182424Y0193466D01*
X0182296Y0193611D01*
X0182171Y0193759D01*
X0182051Y0193910D01*
X0181934Y0194063D01*
X0181820Y0194220D01*
X0181711Y0194379D01*
X0181606Y0194541D01*
X0181504Y0194706D01*
X0181407Y0194873D01*
X0181314Y0195042D01*
X0181225Y0195214D01*
X0181140Y0195387D01*
X0181060Y0195563D01*
X0180983Y0195741D01*
X0180912Y0195920D01*
X0180844Y0196101D01*
X0180781Y0196284D01*
X0180723Y0196468D01*
X0180669Y0196654D01*
X0180620Y0196841D01*
X0180575Y0197029D01*
X0180535Y0197218D01*
X0180500Y0197408D01*
X0180469Y0197599D01*
X0180443Y0197790D01*
X0180422Y0197982D01*
X0180405Y0198175D01*
X0180393Y0198368D01*
X0180386Y0198561D01*
X0180384Y0198754D01*
X0175970Y0181306D02*
X0158970Y0181306D01*
X0155470Y0173306D02*
X0155470Y0165376D01*
X0158970Y0157306D02*
X0175970Y0157306D01*
X0179470Y0165258D02*
X0179470Y0173306D01*
X0160470Y0169306D02*
X0160472Y0169478D01*
X0160478Y0169649D01*
X0160489Y0169821D01*
X0160504Y0169992D01*
X0160523Y0170163D01*
X0160546Y0170333D01*
X0160573Y0170503D01*
X0160605Y0170672D01*
X0160640Y0170840D01*
X0160680Y0171007D01*
X0160724Y0171173D01*
X0160771Y0171338D01*
X0160823Y0171502D01*
X0160879Y0171664D01*
X0160939Y0171825D01*
X0161003Y0171985D01*
X0161071Y0172143D01*
X0161142Y0172299D01*
X0161217Y0172453D01*
X0161297Y0172606D01*
X0161379Y0172756D01*
X0161466Y0172905D01*
X0161556Y0173051D01*
X0161650Y0173195D01*
X0161747Y0173337D01*
X0161848Y0173476D01*
X0161952Y0173613D01*
X0162059Y0173747D01*
X0162170Y0173878D01*
X0162283Y0174007D01*
X0162400Y0174133D01*
X0162520Y0174256D01*
X0162643Y0174376D01*
X0162769Y0174493D01*
X0162898Y0174606D01*
X0163029Y0174717D01*
X0163163Y0174824D01*
X0163300Y0174928D01*
X0163439Y0175029D01*
X0163581Y0175126D01*
X0163725Y0175220D01*
X0163871Y0175310D01*
X0164020Y0175397D01*
X0164170Y0175479D01*
X0164323Y0175559D01*
X0164477Y0175634D01*
X0164633Y0175705D01*
X0164791Y0175773D01*
X0164951Y0175837D01*
X0165112Y0175897D01*
X0165274Y0175953D01*
X0165438Y0176005D01*
X0165603Y0176052D01*
X0165769Y0176096D01*
X0165936Y0176136D01*
X0166104Y0176171D01*
X0166273Y0176203D01*
X0166443Y0176230D01*
X0166613Y0176253D01*
X0166784Y0176272D01*
X0166955Y0176287D01*
X0167127Y0176298D01*
X0167298Y0176304D01*
X0167470Y0176306D01*
X0167642Y0176304D01*
X0167813Y0176298D01*
X0167985Y0176287D01*
X0168156Y0176272D01*
X0168327Y0176253D01*
X0168497Y0176230D01*
X0168667Y0176203D01*
X0168836Y0176171D01*
X0169004Y0176136D01*
X0169171Y0176096D01*
X0169337Y0176052D01*
X0169502Y0176005D01*
X0169666Y0175953D01*
X0169828Y0175897D01*
X0169989Y0175837D01*
X0170149Y0175773D01*
X0170307Y0175705D01*
X0170463Y0175634D01*
X0170617Y0175559D01*
X0170770Y0175479D01*
X0170920Y0175397D01*
X0171069Y0175310D01*
X0171215Y0175220D01*
X0171359Y0175126D01*
X0171501Y0175029D01*
X0171640Y0174928D01*
X0171777Y0174824D01*
X0171911Y0174717D01*
X0172042Y0174606D01*
X0172171Y0174493D01*
X0172297Y0174376D01*
X0172420Y0174256D01*
X0172540Y0174133D01*
X0172657Y0174007D01*
X0172770Y0173878D01*
X0172881Y0173747D01*
X0172988Y0173613D01*
X0173092Y0173476D01*
X0173193Y0173337D01*
X0173290Y0173195D01*
X0173384Y0173051D01*
X0173474Y0172905D01*
X0173561Y0172756D01*
X0173643Y0172606D01*
X0173723Y0172453D01*
X0173798Y0172299D01*
X0173869Y0172143D01*
X0173937Y0171985D01*
X0174001Y0171825D01*
X0174061Y0171664D01*
X0174117Y0171502D01*
X0174169Y0171338D01*
X0174216Y0171173D01*
X0174260Y0171007D01*
X0174300Y0170840D01*
X0174335Y0170672D01*
X0174367Y0170503D01*
X0174394Y0170333D01*
X0174417Y0170163D01*
X0174436Y0169992D01*
X0174451Y0169821D01*
X0174462Y0169649D01*
X0174468Y0169478D01*
X0174470Y0169306D01*
X0174468Y0169134D01*
X0174462Y0168963D01*
X0174451Y0168791D01*
X0174436Y0168620D01*
X0174417Y0168449D01*
X0174394Y0168279D01*
X0174367Y0168109D01*
X0174335Y0167940D01*
X0174300Y0167772D01*
X0174260Y0167605D01*
X0174216Y0167439D01*
X0174169Y0167274D01*
X0174117Y0167110D01*
X0174061Y0166948D01*
X0174001Y0166787D01*
X0173937Y0166627D01*
X0173869Y0166469D01*
X0173798Y0166313D01*
X0173723Y0166159D01*
X0173643Y0166006D01*
X0173561Y0165856D01*
X0173474Y0165707D01*
X0173384Y0165561D01*
X0173290Y0165417D01*
X0173193Y0165275D01*
X0173092Y0165136D01*
X0172988Y0164999D01*
X0172881Y0164865D01*
X0172770Y0164734D01*
X0172657Y0164605D01*
X0172540Y0164479D01*
X0172420Y0164356D01*
X0172297Y0164236D01*
X0172171Y0164119D01*
X0172042Y0164006D01*
X0171911Y0163895D01*
X0171777Y0163788D01*
X0171640Y0163684D01*
X0171501Y0163583D01*
X0171359Y0163486D01*
X0171215Y0163392D01*
X0171069Y0163302D01*
X0170920Y0163215D01*
X0170770Y0163133D01*
X0170617Y0163053D01*
X0170463Y0162978D01*
X0170307Y0162907D01*
X0170149Y0162839D01*
X0169989Y0162775D01*
X0169828Y0162715D01*
X0169666Y0162659D01*
X0169502Y0162607D01*
X0169337Y0162560D01*
X0169171Y0162516D01*
X0169004Y0162476D01*
X0168836Y0162441D01*
X0168667Y0162409D01*
X0168497Y0162382D01*
X0168327Y0162359D01*
X0168156Y0162340D01*
X0167985Y0162325D01*
X0167813Y0162314D01*
X0167642Y0162308D01*
X0167470Y0162306D01*
X0167298Y0162308D01*
X0167127Y0162314D01*
X0166955Y0162325D01*
X0166784Y0162340D01*
X0166613Y0162359D01*
X0166443Y0162382D01*
X0166273Y0162409D01*
X0166104Y0162441D01*
X0165936Y0162476D01*
X0165769Y0162516D01*
X0165603Y0162560D01*
X0165438Y0162607D01*
X0165274Y0162659D01*
X0165112Y0162715D01*
X0164951Y0162775D01*
X0164791Y0162839D01*
X0164633Y0162907D01*
X0164477Y0162978D01*
X0164323Y0163053D01*
X0164170Y0163133D01*
X0164020Y0163215D01*
X0163871Y0163302D01*
X0163725Y0163392D01*
X0163581Y0163486D01*
X0163439Y0163583D01*
X0163300Y0163684D01*
X0163163Y0163788D01*
X0163029Y0163895D01*
X0162898Y0164006D01*
X0162769Y0164119D01*
X0162643Y0164236D01*
X0162520Y0164356D01*
X0162400Y0164479D01*
X0162283Y0164605D01*
X0162170Y0164734D01*
X0162059Y0164865D01*
X0161952Y0164999D01*
X0161848Y0165136D01*
X0161747Y0165275D01*
X0161650Y0165417D01*
X0161556Y0165561D01*
X0161466Y0165707D01*
X0161379Y0165856D01*
X0161297Y0166006D01*
X0161217Y0166159D01*
X0161142Y0166313D01*
X0161071Y0166469D01*
X0161003Y0166627D01*
X0160939Y0166787D01*
X0160879Y0166948D01*
X0160823Y0167110D01*
X0160771Y0167274D01*
X0160724Y0167439D01*
X0160680Y0167605D01*
X0160640Y0167772D01*
X0160605Y0167940D01*
X0160573Y0168109D01*
X0160546Y0168279D01*
X0160523Y0168449D01*
X0160504Y0168620D01*
X0160489Y0168791D01*
X0160478Y0168963D01*
X0160472Y0169134D01*
X0160470Y0169306D01*
X0184252Y0147744D02*
X0184252Y0143540D01*
X0186353Y0143540D01*
X0187054Y0144241D01*
X0187054Y0144941D01*
X0186353Y0145642D01*
X0184252Y0145642D01*
X0186353Y0145642D02*
X0187054Y0146343D01*
X0187054Y0147043D01*
X0186353Y0147744D01*
X0184252Y0147744D01*
X0188856Y0147744D02*
X0188856Y0143540D01*
X0191658Y0143540D01*
X0193459Y0143540D02*
X0193459Y0147744D01*
X0194160Y0145642D02*
X0196262Y0143540D01*
X0193459Y0144941D02*
X0196262Y0147744D01*
X0152825Y0092849D02*
X0149675Y0092849D01*
X0149675Y0091668D01*
X0149675Y0085369D02*
X0149675Y0084187D01*
X0152825Y0084187D01*
X0134360Y0097829D02*
X0134360Y0102829D01*
X0131860Y0105329D01*
X0126860Y0105329D01*
X0124360Y0102829D01*
X0121860Y0105329D01*
X0116860Y0105329D01*
X0114360Y0102829D01*
X0114360Y0097829D01*
X0116860Y0095329D01*
X0121860Y0095329D01*
X0124360Y0097829D01*
X0126860Y0095329D01*
X0131860Y0095329D01*
X0134360Y0097829D01*
X0128644Y0074400D02*
X0074644Y0074400D01*
X0074644Y0012900D01*
X0128644Y0012900D01*
X0128644Y0074400D01*
X0184252Y0077241D02*
X0184952Y0076540D01*
X0186353Y0076540D01*
X0187054Y0077241D01*
X0187054Y0078642D01*
X0185653Y0078642D01*
X0187054Y0080043D02*
X0186353Y0080744D01*
X0184952Y0080744D01*
X0184252Y0080043D01*
X0184252Y0077241D01*
X0188856Y0077941D02*
X0190957Y0077941D01*
X0191658Y0078642D01*
X0191658Y0080043D01*
X0190957Y0080744D01*
X0188856Y0080744D01*
X0188856Y0076540D01*
X0190257Y0077941D02*
X0191658Y0076540D01*
X0193459Y0076540D02*
X0193459Y0080744D01*
X0196262Y0076540D01*
X0196262Y0080744D01*
X0180384Y0025526D02*
X0180386Y0025719D01*
X0180393Y0025912D01*
X0180405Y0026105D01*
X0180422Y0026298D01*
X0180443Y0026490D01*
X0180469Y0026681D01*
X0180500Y0026872D01*
X0180535Y0027062D01*
X0180575Y0027251D01*
X0180620Y0027439D01*
X0180669Y0027626D01*
X0180723Y0027812D01*
X0180781Y0027996D01*
X0180844Y0028179D01*
X0180912Y0028360D01*
X0180983Y0028539D01*
X0181060Y0028717D01*
X0181140Y0028893D01*
X0181225Y0029066D01*
X0181314Y0029238D01*
X0181407Y0029407D01*
X0181504Y0029574D01*
X0181606Y0029739D01*
X0181711Y0029901D01*
X0181820Y0030060D01*
X0181934Y0030217D01*
X0182051Y0030370D01*
X0182171Y0030521D01*
X0182296Y0030669D01*
X0182424Y0030814D01*
X0182555Y0030955D01*
X0182690Y0031094D01*
X0182829Y0031229D01*
X0182970Y0031360D01*
X0183115Y0031488D01*
X0183263Y0031613D01*
X0183414Y0031733D01*
X0183567Y0031850D01*
X0183724Y0031964D01*
X0183883Y0032073D01*
X0184045Y0032178D01*
X0184210Y0032280D01*
X0184377Y0032377D01*
X0184546Y0032470D01*
X0184718Y0032559D01*
X0184891Y0032644D01*
X0185067Y0032724D01*
X0185245Y0032801D01*
X0185424Y0032872D01*
X0185605Y0032940D01*
X0185788Y0033003D01*
X0185972Y0033061D01*
X0186158Y0033115D01*
X0186345Y0033164D01*
X0186533Y0033209D01*
X0186722Y0033249D01*
X0186912Y0033284D01*
X0187103Y0033315D01*
X0187294Y0033341D01*
X0187486Y0033362D01*
X0187679Y0033379D01*
X0187872Y0033391D01*
X0188065Y0033398D01*
X0188258Y0033400D01*
X0188451Y0033398D01*
X0188644Y0033391D01*
X0188837Y0033379D01*
X0189030Y0033362D01*
X0189222Y0033341D01*
X0189413Y0033315D01*
X0189604Y0033284D01*
X0189794Y0033249D01*
X0189983Y0033209D01*
X0190171Y0033164D01*
X0190358Y0033115D01*
X0190544Y0033061D01*
X0190728Y0033003D01*
X0190911Y0032940D01*
X0191092Y0032872D01*
X0191271Y0032801D01*
X0191449Y0032724D01*
X0191625Y0032644D01*
X0191798Y0032559D01*
X0191970Y0032470D01*
X0192139Y0032377D01*
X0192306Y0032280D01*
X0192471Y0032178D01*
X0192633Y0032073D01*
X0192792Y0031964D01*
X0192949Y0031850D01*
X0193102Y0031733D01*
X0193253Y0031613D01*
X0193401Y0031488D01*
X0193546Y0031360D01*
X0193687Y0031229D01*
X0193826Y0031094D01*
X0193961Y0030955D01*
X0194092Y0030814D01*
X0194220Y0030669D01*
X0194345Y0030521D01*
X0194465Y0030370D01*
X0194582Y0030217D01*
X0194696Y0030060D01*
X0194805Y0029901D01*
X0194910Y0029739D01*
X0195012Y0029574D01*
X0195109Y0029407D01*
X0195202Y0029238D01*
X0195291Y0029066D01*
X0195376Y0028893D01*
X0195456Y0028717D01*
X0195533Y0028539D01*
X0195604Y0028360D01*
X0195672Y0028179D01*
X0195735Y0027996D01*
X0195793Y0027812D01*
X0195847Y0027626D01*
X0195896Y0027439D01*
X0195941Y0027251D01*
X0195981Y0027062D01*
X0196016Y0026872D01*
X0196047Y0026681D01*
X0196073Y0026490D01*
X0196094Y0026298D01*
X0196111Y0026105D01*
X0196123Y0025912D01*
X0196130Y0025719D01*
X0196132Y0025526D01*
X0196130Y0025333D01*
X0196123Y0025140D01*
X0196111Y0024947D01*
X0196094Y0024754D01*
X0196073Y0024562D01*
X0196047Y0024371D01*
X0196016Y0024180D01*
X0195981Y0023990D01*
X0195941Y0023801D01*
X0195896Y0023613D01*
X0195847Y0023426D01*
X0195793Y0023240D01*
X0195735Y0023056D01*
X0195672Y0022873D01*
X0195604Y0022692D01*
X0195533Y0022513D01*
X0195456Y0022335D01*
X0195376Y0022159D01*
X0195291Y0021986D01*
X0195202Y0021814D01*
X0195109Y0021645D01*
X0195012Y0021478D01*
X0194910Y0021313D01*
X0194805Y0021151D01*
X0194696Y0020992D01*
X0194582Y0020835D01*
X0194465Y0020682D01*
X0194345Y0020531D01*
X0194220Y0020383D01*
X0194092Y0020238D01*
X0193961Y0020097D01*
X0193826Y0019958D01*
X0193687Y0019823D01*
X0193546Y0019692D01*
X0193401Y0019564D01*
X0193253Y0019439D01*
X0193102Y0019319D01*
X0192949Y0019202D01*
X0192792Y0019088D01*
X0192633Y0018979D01*
X0192471Y0018874D01*
X0192306Y0018772D01*
X0192139Y0018675D01*
X0191970Y0018582D01*
X0191798Y0018493D01*
X0191625Y0018408D01*
X0191449Y0018328D01*
X0191271Y0018251D01*
X0191092Y0018180D01*
X0190911Y0018112D01*
X0190728Y0018049D01*
X0190544Y0017991D01*
X0190358Y0017937D01*
X0190171Y0017888D01*
X0189983Y0017843D01*
X0189794Y0017803D01*
X0189604Y0017768D01*
X0189413Y0017737D01*
X0189222Y0017711D01*
X0189030Y0017690D01*
X0188837Y0017673D01*
X0188644Y0017661D01*
X0188451Y0017654D01*
X0188258Y0017652D01*
X0188065Y0017654D01*
X0187872Y0017661D01*
X0187679Y0017673D01*
X0187486Y0017690D01*
X0187294Y0017711D01*
X0187103Y0017737D01*
X0186912Y0017768D01*
X0186722Y0017803D01*
X0186533Y0017843D01*
X0186345Y0017888D01*
X0186158Y0017937D01*
X0185972Y0017991D01*
X0185788Y0018049D01*
X0185605Y0018112D01*
X0185424Y0018180D01*
X0185245Y0018251D01*
X0185067Y0018328D01*
X0184891Y0018408D01*
X0184718Y0018493D01*
X0184546Y0018582D01*
X0184377Y0018675D01*
X0184210Y0018772D01*
X0184045Y0018874D01*
X0183883Y0018979D01*
X0183724Y0019088D01*
X0183567Y0019202D01*
X0183414Y0019319D01*
X0183263Y0019439D01*
X0183115Y0019564D01*
X0182970Y0019692D01*
X0182829Y0019823D01*
X0182690Y0019958D01*
X0182555Y0020097D01*
X0182424Y0020238D01*
X0182296Y0020383D01*
X0182171Y0020531D01*
X0182051Y0020682D01*
X0181934Y0020835D01*
X0181820Y0020992D01*
X0181711Y0021151D01*
X0181606Y0021313D01*
X0181504Y0021478D01*
X0181407Y0021645D01*
X0181314Y0021814D01*
X0181225Y0021986D01*
X0181140Y0022159D01*
X0181060Y0022335D01*
X0180983Y0022513D01*
X0180912Y0022692D01*
X0180844Y0022873D01*
X0180781Y0023056D01*
X0180723Y0023240D01*
X0180669Y0023426D01*
X0180620Y0023613D01*
X0180575Y0023801D01*
X0180535Y0023990D01*
X0180500Y0024180D01*
X0180469Y0024371D01*
X0180443Y0024562D01*
X0180422Y0024754D01*
X0180405Y0024947D01*
X0180393Y0025140D01*
X0180386Y0025333D01*
X0180384Y0025526D01*
X0057069Y0039164D02*
X0057069Y0047093D01*
X0053569Y0055164D02*
X0036569Y0055164D01*
X0033069Y0047211D02*
X0033069Y0039164D01*
X0036569Y0031164D02*
X0053569Y0031164D01*
X0038069Y0043164D02*
X0038071Y0043336D01*
X0038077Y0043507D01*
X0038088Y0043679D01*
X0038103Y0043850D01*
X0038122Y0044021D01*
X0038145Y0044191D01*
X0038172Y0044361D01*
X0038204Y0044530D01*
X0038239Y0044698D01*
X0038279Y0044865D01*
X0038323Y0045031D01*
X0038370Y0045196D01*
X0038422Y0045360D01*
X0038478Y0045522D01*
X0038538Y0045683D01*
X0038602Y0045843D01*
X0038670Y0046001D01*
X0038741Y0046157D01*
X0038816Y0046311D01*
X0038896Y0046464D01*
X0038978Y0046614D01*
X0039065Y0046763D01*
X0039155Y0046909D01*
X0039249Y0047053D01*
X0039346Y0047195D01*
X0039447Y0047334D01*
X0039551Y0047471D01*
X0039658Y0047605D01*
X0039769Y0047736D01*
X0039882Y0047865D01*
X0039999Y0047991D01*
X0040119Y0048114D01*
X0040242Y0048234D01*
X0040368Y0048351D01*
X0040497Y0048464D01*
X0040628Y0048575D01*
X0040762Y0048682D01*
X0040899Y0048786D01*
X0041038Y0048887D01*
X0041180Y0048984D01*
X0041324Y0049078D01*
X0041470Y0049168D01*
X0041619Y0049255D01*
X0041769Y0049337D01*
X0041922Y0049417D01*
X0042076Y0049492D01*
X0042232Y0049563D01*
X0042390Y0049631D01*
X0042550Y0049695D01*
X0042711Y0049755D01*
X0042873Y0049811D01*
X0043037Y0049863D01*
X0043202Y0049910D01*
X0043368Y0049954D01*
X0043535Y0049994D01*
X0043703Y0050029D01*
X0043872Y0050061D01*
X0044042Y0050088D01*
X0044212Y0050111D01*
X0044383Y0050130D01*
X0044554Y0050145D01*
X0044726Y0050156D01*
X0044897Y0050162D01*
X0045069Y0050164D01*
X0045241Y0050162D01*
X0045412Y0050156D01*
X0045584Y0050145D01*
X0045755Y0050130D01*
X0045926Y0050111D01*
X0046096Y0050088D01*
X0046266Y0050061D01*
X0046435Y0050029D01*
X0046603Y0049994D01*
X0046770Y0049954D01*
X0046936Y0049910D01*
X0047101Y0049863D01*
X0047265Y0049811D01*
X0047427Y0049755D01*
X0047588Y0049695D01*
X0047748Y0049631D01*
X0047906Y0049563D01*
X0048062Y0049492D01*
X0048216Y0049417D01*
X0048369Y0049337D01*
X0048519Y0049255D01*
X0048668Y0049168D01*
X0048814Y0049078D01*
X0048958Y0048984D01*
X0049100Y0048887D01*
X0049239Y0048786D01*
X0049376Y0048682D01*
X0049510Y0048575D01*
X0049641Y0048464D01*
X0049770Y0048351D01*
X0049896Y0048234D01*
X0050019Y0048114D01*
X0050139Y0047991D01*
X0050256Y0047865D01*
X0050369Y0047736D01*
X0050480Y0047605D01*
X0050587Y0047471D01*
X0050691Y0047334D01*
X0050792Y0047195D01*
X0050889Y0047053D01*
X0050983Y0046909D01*
X0051073Y0046763D01*
X0051160Y0046614D01*
X0051242Y0046464D01*
X0051322Y0046311D01*
X0051397Y0046157D01*
X0051468Y0046001D01*
X0051536Y0045843D01*
X0051600Y0045683D01*
X0051660Y0045522D01*
X0051716Y0045360D01*
X0051768Y0045196D01*
X0051815Y0045031D01*
X0051859Y0044865D01*
X0051899Y0044698D01*
X0051934Y0044530D01*
X0051966Y0044361D01*
X0051993Y0044191D01*
X0052016Y0044021D01*
X0052035Y0043850D01*
X0052050Y0043679D01*
X0052061Y0043507D01*
X0052067Y0043336D01*
X0052069Y0043164D01*
X0052067Y0042992D01*
X0052061Y0042821D01*
X0052050Y0042649D01*
X0052035Y0042478D01*
X0052016Y0042307D01*
X0051993Y0042137D01*
X0051966Y0041967D01*
X0051934Y0041798D01*
X0051899Y0041630D01*
X0051859Y0041463D01*
X0051815Y0041297D01*
X0051768Y0041132D01*
X0051716Y0040968D01*
X0051660Y0040806D01*
X0051600Y0040645D01*
X0051536Y0040485D01*
X0051468Y0040327D01*
X0051397Y0040171D01*
X0051322Y0040017D01*
X0051242Y0039864D01*
X0051160Y0039714D01*
X0051073Y0039565D01*
X0050983Y0039419D01*
X0050889Y0039275D01*
X0050792Y0039133D01*
X0050691Y0038994D01*
X0050587Y0038857D01*
X0050480Y0038723D01*
X0050369Y0038592D01*
X0050256Y0038463D01*
X0050139Y0038337D01*
X0050019Y0038214D01*
X0049896Y0038094D01*
X0049770Y0037977D01*
X0049641Y0037864D01*
X0049510Y0037753D01*
X0049376Y0037646D01*
X0049239Y0037542D01*
X0049100Y0037441D01*
X0048958Y0037344D01*
X0048814Y0037250D01*
X0048668Y0037160D01*
X0048519Y0037073D01*
X0048369Y0036991D01*
X0048216Y0036911D01*
X0048062Y0036836D01*
X0047906Y0036765D01*
X0047748Y0036697D01*
X0047588Y0036633D01*
X0047427Y0036573D01*
X0047265Y0036517D01*
X0047101Y0036465D01*
X0046936Y0036418D01*
X0046770Y0036374D01*
X0046603Y0036334D01*
X0046435Y0036299D01*
X0046266Y0036267D01*
X0046096Y0036240D01*
X0045926Y0036217D01*
X0045755Y0036198D01*
X0045584Y0036183D01*
X0045412Y0036172D01*
X0045241Y0036166D01*
X0045069Y0036164D01*
X0044897Y0036166D01*
X0044726Y0036172D01*
X0044554Y0036183D01*
X0044383Y0036198D01*
X0044212Y0036217D01*
X0044042Y0036240D01*
X0043872Y0036267D01*
X0043703Y0036299D01*
X0043535Y0036334D01*
X0043368Y0036374D01*
X0043202Y0036418D01*
X0043037Y0036465D01*
X0042873Y0036517D01*
X0042711Y0036573D01*
X0042550Y0036633D01*
X0042390Y0036697D01*
X0042232Y0036765D01*
X0042076Y0036836D01*
X0041922Y0036911D01*
X0041769Y0036991D01*
X0041619Y0037073D01*
X0041470Y0037160D01*
X0041324Y0037250D01*
X0041180Y0037344D01*
X0041038Y0037441D01*
X0040899Y0037542D01*
X0040762Y0037646D01*
X0040628Y0037753D01*
X0040497Y0037864D01*
X0040368Y0037977D01*
X0040242Y0038094D01*
X0040119Y0038214D01*
X0039999Y0038337D01*
X0039882Y0038463D01*
X0039769Y0038592D01*
X0039658Y0038723D01*
X0039551Y0038857D01*
X0039447Y0038994D01*
X0039346Y0039133D01*
X0039249Y0039275D01*
X0039155Y0039419D01*
X0039065Y0039565D01*
X0038978Y0039714D01*
X0038896Y0039864D01*
X0038816Y0040017D01*
X0038741Y0040171D01*
X0038670Y0040327D01*
X0038602Y0040485D01*
X0038538Y0040645D01*
X0038478Y0040806D01*
X0038422Y0040968D01*
X0038370Y0041132D01*
X0038323Y0041297D01*
X0038279Y0041463D01*
X0038239Y0041630D01*
X0038204Y0041798D01*
X0038172Y0041967D01*
X0038145Y0042137D01*
X0038122Y0042307D01*
X0038103Y0042478D01*
X0038088Y0042649D01*
X0038077Y0042821D01*
X0038071Y0042992D01*
X0038069Y0043164D01*
X0007156Y0025526D02*
X0007158Y0025719D01*
X0007165Y0025912D01*
X0007177Y0026105D01*
X0007194Y0026298D01*
X0007215Y0026490D01*
X0007241Y0026681D01*
X0007272Y0026872D01*
X0007307Y0027062D01*
X0007347Y0027251D01*
X0007392Y0027439D01*
X0007441Y0027626D01*
X0007495Y0027812D01*
X0007553Y0027996D01*
X0007616Y0028179D01*
X0007684Y0028360D01*
X0007755Y0028539D01*
X0007832Y0028717D01*
X0007912Y0028893D01*
X0007997Y0029066D01*
X0008086Y0029238D01*
X0008179Y0029407D01*
X0008276Y0029574D01*
X0008378Y0029739D01*
X0008483Y0029901D01*
X0008592Y0030060D01*
X0008706Y0030217D01*
X0008823Y0030370D01*
X0008943Y0030521D01*
X0009068Y0030669D01*
X0009196Y0030814D01*
X0009327Y0030955D01*
X0009462Y0031094D01*
X0009601Y0031229D01*
X0009742Y0031360D01*
X0009887Y0031488D01*
X0010035Y0031613D01*
X0010186Y0031733D01*
X0010339Y0031850D01*
X0010496Y0031964D01*
X0010655Y0032073D01*
X0010817Y0032178D01*
X0010982Y0032280D01*
X0011149Y0032377D01*
X0011318Y0032470D01*
X0011490Y0032559D01*
X0011663Y0032644D01*
X0011839Y0032724D01*
X0012017Y0032801D01*
X0012196Y0032872D01*
X0012377Y0032940D01*
X0012560Y0033003D01*
X0012744Y0033061D01*
X0012930Y0033115D01*
X0013117Y0033164D01*
X0013305Y0033209D01*
X0013494Y0033249D01*
X0013684Y0033284D01*
X0013875Y0033315D01*
X0014066Y0033341D01*
X0014258Y0033362D01*
X0014451Y0033379D01*
X0014644Y0033391D01*
X0014837Y0033398D01*
X0015030Y0033400D01*
X0015223Y0033398D01*
X0015416Y0033391D01*
X0015609Y0033379D01*
X0015802Y0033362D01*
X0015994Y0033341D01*
X0016185Y0033315D01*
X0016376Y0033284D01*
X0016566Y0033249D01*
X0016755Y0033209D01*
X0016943Y0033164D01*
X0017130Y0033115D01*
X0017316Y0033061D01*
X0017500Y0033003D01*
X0017683Y0032940D01*
X0017864Y0032872D01*
X0018043Y0032801D01*
X0018221Y0032724D01*
X0018397Y0032644D01*
X0018570Y0032559D01*
X0018742Y0032470D01*
X0018911Y0032377D01*
X0019078Y0032280D01*
X0019243Y0032178D01*
X0019405Y0032073D01*
X0019564Y0031964D01*
X0019721Y0031850D01*
X0019874Y0031733D01*
X0020025Y0031613D01*
X0020173Y0031488D01*
X0020318Y0031360D01*
X0020459Y0031229D01*
X0020598Y0031094D01*
X0020733Y0030955D01*
X0020864Y0030814D01*
X0020992Y0030669D01*
X0021117Y0030521D01*
X0021237Y0030370D01*
X0021354Y0030217D01*
X0021468Y0030060D01*
X0021577Y0029901D01*
X0021682Y0029739D01*
X0021784Y0029574D01*
X0021881Y0029407D01*
X0021974Y0029238D01*
X0022063Y0029066D01*
X0022148Y0028893D01*
X0022228Y0028717D01*
X0022305Y0028539D01*
X0022376Y0028360D01*
X0022444Y0028179D01*
X0022507Y0027996D01*
X0022565Y0027812D01*
X0022619Y0027626D01*
X0022668Y0027439D01*
X0022713Y0027251D01*
X0022753Y0027062D01*
X0022788Y0026872D01*
X0022819Y0026681D01*
X0022845Y0026490D01*
X0022866Y0026298D01*
X0022883Y0026105D01*
X0022895Y0025912D01*
X0022902Y0025719D01*
X0022904Y0025526D01*
X0022902Y0025333D01*
X0022895Y0025140D01*
X0022883Y0024947D01*
X0022866Y0024754D01*
X0022845Y0024562D01*
X0022819Y0024371D01*
X0022788Y0024180D01*
X0022753Y0023990D01*
X0022713Y0023801D01*
X0022668Y0023613D01*
X0022619Y0023426D01*
X0022565Y0023240D01*
X0022507Y0023056D01*
X0022444Y0022873D01*
X0022376Y0022692D01*
X0022305Y0022513D01*
X0022228Y0022335D01*
X0022148Y0022159D01*
X0022063Y0021986D01*
X0021974Y0021814D01*
X0021881Y0021645D01*
X0021784Y0021478D01*
X0021682Y0021313D01*
X0021577Y0021151D01*
X0021468Y0020992D01*
X0021354Y0020835D01*
X0021237Y0020682D01*
X0021117Y0020531D01*
X0020992Y0020383D01*
X0020864Y0020238D01*
X0020733Y0020097D01*
X0020598Y0019958D01*
X0020459Y0019823D01*
X0020318Y0019692D01*
X0020173Y0019564D01*
X0020025Y0019439D01*
X0019874Y0019319D01*
X0019721Y0019202D01*
X0019564Y0019088D01*
X0019405Y0018979D01*
X0019243Y0018874D01*
X0019078Y0018772D01*
X0018911Y0018675D01*
X0018742Y0018582D01*
X0018570Y0018493D01*
X0018397Y0018408D01*
X0018221Y0018328D01*
X0018043Y0018251D01*
X0017864Y0018180D01*
X0017683Y0018112D01*
X0017500Y0018049D01*
X0017316Y0017991D01*
X0017130Y0017937D01*
X0016943Y0017888D01*
X0016755Y0017843D01*
X0016566Y0017803D01*
X0016376Y0017768D01*
X0016185Y0017737D01*
X0015994Y0017711D01*
X0015802Y0017690D01*
X0015609Y0017673D01*
X0015416Y0017661D01*
X0015223Y0017654D01*
X0015030Y0017652D01*
X0014837Y0017654D01*
X0014644Y0017661D01*
X0014451Y0017673D01*
X0014258Y0017690D01*
X0014066Y0017711D01*
X0013875Y0017737D01*
X0013684Y0017768D01*
X0013494Y0017803D01*
X0013305Y0017843D01*
X0013117Y0017888D01*
X0012930Y0017937D01*
X0012744Y0017991D01*
X0012560Y0018049D01*
X0012377Y0018112D01*
X0012196Y0018180D01*
X0012017Y0018251D01*
X0011839Y0018328D01*
X0011663Y0018408D01*
X0011490Y0018493D01*
X0011318Y0018582D01*
X0011149Y0018675D01*
X0010982Y0018772D01*
X0010817Y0018874D01*
X0010655Y0018979D01*
X0010496Y0019088D01*
X0010339Y0019202D01*
X0010186Y0019319D01*
X0010035Y0019439D01*
X0009887Y0019564D01*
X0009742Y0019692D01*
X0009601Y0019823D01*
X0009462Y0019958D01*
X0009327Y0020097D01*
X0009196Y0020238D01*
X0009068Y0020383D01*
X0008943Y0020531D01*
X0008823Y0020682D01*
X0008706Y0020835D01*
X0008592Y0020992D01*
X0008483Y0021151D01*
X0008378Y0021313D01*
X0008276Y0021478D01*
X0008179Y0021645D01*
X0008086Y0021814D01*
X0007997Y0021986D01*
X0007912Y0022159D01*
X0007832Y0022335D01*
X0007755Y0022513D01*
X0007684Y0022692D01*
X0007616Y0022873D01*
X0007553Y0023056D01*
X0007495Y0023240D01*
X0007441Y0023426D01*
X0007392Y0023613D01*
X0007347Y0023801D01*
X0007307Y0023990D01*
X0007272Y0024180D01*
X0007241Y0024371D01*
X0007215Y0024562D01*
X0007194Y0024754D01*
X0007177Y0024947D01*
X0007165Y0025140D01*
X0007158Y0025333D01*
X0007156Y0025526D01*
X0019356Y0152429D02*
X0019356Y0178229D01*
X0032356Y0178229D01*
X0032356Y0152429D01*
X0019356Y0152429D01*
X0007156Y0198754D02*
X0007158Y0198947D01*
X0007165Y0199140D01*
X0007177Y0199333D01*
X0007194Y0199526D01*
X0007215Y0199718D01*
X0007241Y0199909D01*
X0007272Y0200100D01*
X0007307Y0200290D01*
X0007347Y0200479D01*
X0007392Y0200667D01*
X0007441Y0200854D01*
X0007495Y0201040D01*
X0007553Y0201224D01*
X0007616Y0201407D01*
X0007684Y0201588D01*
X0007755Y0201767D01*
X0007832Y0201945D01*
X0007912Y0202121D01*
X0007997Y0202294D01*
X0008086Y0202466D01*
X0008179Y0202635D01*
X0008276Y0202802D01*
X0008378Y0202967D01*
X0008483Y0203129D01*
X0008592Y0203288D01*
X0008706Y0203445D01*
X0008823Y0203598D01*
X0008943Y0203749D01*
X0009068Y0203897D01*
X0009196Y0204042D01*
X0009327Y0204183D01*
X0009462Y0204322D01*
X0009601Y0204457D01*
X0009742Y0204588D01*
X0009887Y0204716D01*
X0010035Y0204841D01*
X0010186Y0204961D01*
X0010339Y0205078D01*
X0010496Y0205192D01*
X0010655Y0205301D01*
X0010817Y0205406D01*
X0010982Y0205508D01*
X0011149Y0205605D01*
X0011318Y0205698D01*
X0011490Y0205787D01*
X0011663Y0205872D01*
X0011839Y0205952D01*
X0012017Y0206029D01*
X0012196Y0206100D01*
X0012377Y0206168D01*
X0012560Y0206231D01*
X0012744Y0206289D01*
X0012930Y0206343D01*
X0013117Y0206392D01*
X0013305Y0206437D01*
X0013494Y0206477D01*
X0013684Y0206512D01*
X0013875Y0206543D01*
X0014066Y0206569D01*
X0014258Y0206590D01*
X0014451Y0206607D01*
X0014644Y0206619D01*
X0014837Y0206626D01*
X0015030Y0206628D01*
X0015223Y0206626D01*
X0015416Y0206619D01*
X0015609Y0206607D01*
X0015802Y0206590D01*
X0015994Y0206569D01*
X0016185Y0206543D01*
X0016376Y0206512D01*
X0016566Y0206477D01*
X0016755Y0206437D01*
X0016943Y0206392D01*
X0017130Y0206343D01*
X0017316Y0206289D01*
X0017500Y0206231D01*
X0017683Y0206168D01*
X0017864Y0206100D01*
X0018043Y0206029D01*
X0018221Y0205952D01*
X0018397Y0205872D01*
X0018570Y0205787D01*
X0018742Y0205698D01*
X0018911Y0205605D01*
X0019078Y0205508D01*
X0019243Y0205406D01*
X0019405Y0205301D01*
X0019564Y0205192D01*
X0019721Y0205078D01*
X0019874Y0204961D01*
X0020025Y0204841D01*
X0020173Y0204716D01*
X0020318Y0204588D01*
X0020459Y0204457D01*
X0020598Y0204322D01*
X0020733Y0204183D01*
X0020864Y0204042D01*
X0020992Y0203897D01*
X0021117Y0203749D01*
X0021237Y0203598D01*
X0021354Y0203445D01*
X0021468Y0203288D01*
X0021577Y0203129D01*
X0021682Y0202967D01*
X0021784Y0202802D01*
X0021881Y0202635D01*
X0021974Y0202466D01*
X0022063Y0202294D01*
X0022148Y0202121D01*
X0022228Y0201945D01*
X0022305Y0201767D01*
X0022376Y0201588D01*
X0022444Y0201407D01*
X0022507Y0201224D01*
X0022565Y0201040D01*
X0022619Y0200854D01*
X0022668Y0200667D01*
X0022713Y0200479D01*
X0022753Y0200290D01*
X0022788Y0200100D01*
X0022819Y0199909D01*
X0022845Y0199718D01*
X0022866Y0199526D01*
X0022883Y0199333D01*
X0022895Y0199140D01*
X0022902Y0198947D01*
X0022904Y0198754D01*
X0022902Y0198561D01*
X0022895Y0198368D01*
X0022883Y0198175D01*
X0022866Y0197982D01*
X0022845Y0197790D01*
X0022819Y0197599D01*
X0022788Y0197408D01*
X0022753Y0197218D01*
X0022713Y0197029D01*
X0022668Y0196841D01*
X0022619Y0196654D01*
X0022565Y0196468D01*
X0022507Y0196284D01*
X0022444Y0196101D01*
X0022376Y0195920D01*
X0022305Y0195741D01*
X0022228Y0195563D01*
X0022148Y0195387D01*
X0022063Y0195214D01*
X0021974Y0195042D01*
X0021881Y0194873D01*
X0021784Y0194706D01*
X0021682Y0194541D01*
X0021577Y0194379D01*
X0021468Y0194220D01*
X0021354Y0194063D01*
X0021237Y0193910D01*
X0021117Y0193759D01*
X0020992Y0193611D01*
X0020864Y0193466D01*
X0020733Y0193325D01*
X0020598Y0193186D01*
X0020459Y0193051D01*
X0020318Y0192920D01*
X0020173Y0192792D01*
X0020025Y0192667D01*
X0019874Y0192547D01*
X0019721Y0192430D01*
X0019564Y0192316D01*
X0019405Y0192207D01*
X0019243Y0192102D01*
X0019078Y0192000D01*
X0018911Y0191903D01*
X0018742Y0191810D01*
X0018570Y0191721D01*
X0018397Y0191636D01*
X0018221Y0191556D01*
X0018043Y0191479D01*
X0017864Y0191408D01*
X0017683Y0191340D01*
X0017500Y0191277D01*
X0017316Y0191219D01*
X0017130Y0191165D01*
X0016943Y0191116D01*
X0016755Y0191071D01*
X0016566Y0191031D01*
X0016376Y0190996D01*
X0016185Y0190965D01*
X0015994Y0190939D01*
X0015802Y0190918D01*
X0015609Y0190901D01*
X0015416Y0190889D01*
X0015223Y0190882D01*
X0015030Y0190880D01*
X0014837Y0190882D01*
X0014644Y0190889D01*
X0014451Y0190901D01*
X0014258Y0190918D01*
X0014066Y0190939D01*
X0013875Y0190965D01*
X0013684Y0190996D01*
X0013494Y0191031D01*
X0013305Y0191071D01*
X0013117Y0191116D01*
X0012930Y0191165D01*
X0012744Y0191219D01*
X0012560Y0191277D01*
X0012377Y0191340D01*
X0012196Y0191408D01*
X0012017Y0191479D01*
X0011839Y0191556D01*
X0011663Y0191636D01*
X0011490Y0191721D01*
X0011318Y0191810D01*
X0011149Y0191903D01*
X0010982Y0192000D01*
X0010817Y0192102D01*
X0010655Y0192207D01*
X0010496Y0192316D01*
X0010339Y0192430D01*
X0010186Y0192547D01*
X0010035Y0192667D01*
X0009887Y0192792D01*
X0009742Y0192920D01*
X0009601Y0193051D01*
X0009462Y0193186D01*
X0009327Y0193325D01*
X0009196Y0193466D01*
X0009068Y0193611D01*
X0008943Y0193759D01*
X0008823Y0193910D01*
X0008706Y0194063D01*
X0008592Y0194220D01*
X0008483Y0194379D01*
X0008378Y0194541D01*
X0008276Y0194706D01*
X0008179Y0194873D01*
X0008086Y0195042D01*
X0007997Y0195214D01*
X0007912Y0195387D01*
X0007832Y0195563D01*
X0007755Y0195741D01*
X0007684Y0195920D01*
X0007616Y0196101D01*
X0007553Y0196284D01*
X0007495Y0196468D01*
X0007441Y0196654D01*
X0007392Y0196841D01*
X0007347Y0197029D01*
X0007307Y0197218D01*
X0007272Y0197408D01*
X0007241Y0197599D01*
X0007215Y0197790D01*
X0007194Y0197982D01*
X0007177Y0198175D01*
X0007165Y0198368D01*
X0007158Y0198561D01*
X0007156Y0198754D01*
D16*
X0011880Y0127494D02*
X0014242Y0127494D01*
X0014242Y0127495D02*
X0014305Y0127487D01*
X0014367Y0127476D01*
X0014429Y0127461D01*
X0014489Y0127443D01*
X0014549Y0127421D01*
X0014607Y0127396D01*
X0014663Y0127367D01*
X0014718Y0127335D01*
X0014770Y0127300D01*
X0014821Y0127262D01*
X0014869Y0127222D01*
X0014915Y0127178D01*
X0014958Y0127132D01*
X0014999Y0127083D01*
X0015037Y0127032D01*
X0015071Y0126980D01*
X0015103Y0126925D01*
X0015131Y0126868D01*
X0015156Y0126810D01*
X0015177Y0126750D01*
X0015195Y0126690D01*
X0015209Y0126628D01*
X0015220Y0126566D01*
X0015227Y0126503D01*
X0015231Y0126440D01*
X0015230Y0126377D01*
X0015227Y0126314D01*
X0015227Y0126313D02*
X0015230Y0126250D01*
X0015231Y0126187D01*
X0015227Y0126124D01*
X0015220Y0126061D01*
X0015209Y0125999D01*
X0015195Y0125937D01*
X0015177Y0125877D01*
X0015156Y0125817D01*
X0015131Y0125759D01*
X0015103Y0125702D01*
X0015071Y0125647D01*
X0015037Y0125595D01*
X0014999Y0125544D01*
X0014958Y0125495D01*
X0014915Y0125449D01*
X0014869Y0125405D01*
X0014821Y0125365D01*
X0014770Y0125327D01*
X0014718Y0125292D01*
X0014663Y0125260D01*
X0014607Y0125231D01*
X0014549Y0125206D01*
X0014489Y0125184D01*
X0014429Y0125166D01*
X0014367Y0125151D01*
X0014305Y0125140D01*
X0014242Y0125132D01*
X0011880Y0125132D01*
X0011814Y0125140D01*
X0011750Y0125152D01*
X0011686Y0125168D01*
X0011623Y0125187D01*
X0011562Y0125211D01*
X0011502Y0125238D01*
X0011444Y0125268D01*
X0011388Y0125302D01*
X0011334Y0125339D01*
X0011282Y0125380D01*
X0011233Y0125424D01*
X0011186Y0125470D01*
X0011143Y0125519D01*
X0011102Y0125571D01*
X0011065Y0125625D01*
X0011031Y0125681D01*
X0011001Y0125739D01*
X0010974Y0125799D01*
X0010950Y0125860D01*
X0010931Y0125923D01*
X0010915Y0125987D01*
X0010903Y0126051D01*
X0010895Y0126117D01*
X0010891Y0126182D01*
X0010891Y0126248D01*
X0010895Y0126313D01*
X0010895Y0126314D02*
X0010891Y0126379D01*
X0010891Y0126445D01*
X0010895Y0126510D01*
X0010903Y0126576D01*
X0010915Y0126640D01*
X0010931Y0126704D01*
X0010950Y0126767D01*
X0010974Y0126828D01*
X0011001Y0126888D01*
X0011031Y0126946D01*
X0011065Y0127002D01*
X0011102Y0127056D01*
X0011143Y0127108D01*
X0011186Y0127157D01*
X0011233Y0127203D01*
X0011282Y0127247D01*
X0011334Y0127288D01*
X0011388Y0127325D01*
X0011444Y0127359D01*
X0011502Y0127389D01*
X0011562Y0127416D01*
X0011623Y0127440D01*
X0011686Y0127459D01*
X0011750Y0127475D01*
X0011814Y0127487D01*
X0011880Y0127495D01*
X0019163Y0119817D02*
X0019165Y0119891D01*
X0019171Y0119965D01*
X0019181Y0120038D01*
X0019195Y0120111D01*
X0019212Y0120183D01*
X0019234Y0120253D01*
X0019259Y0120323D01*
X0019288Y0120391D01*
X0019321Y0120457D01*
X0019357Y0120522D01*
X0019397Y0120584D01*
X0019439Y0120645D01*
X0019485Y0120703D01*
X0019534Y0120758D01*
X0019586Y0120811D01*
X0019641Y0120861D01*
X0019698Y0120907D01*
X0019758Y0120951D01*
X0019820Y0120991D01*
X0019884Y0121028D01*
X0019950Y0121062D01*
X0020018Y0121092D01*
X0020087Y0121118D01*
X0020158Y0121141D01*
X0020229Y0121159D01*
X0020302Y0121174D01*
X0020375Y0121185D01*
X0020449Y0121192D01*
X0020523Y0121195D01*
X0020596Y0121194D01*
X0020670Y0121189D01*
X0020744Y0121180D01*
X0020817Y0121167D01*
X0020889Y0121150D01*
X0020960Y0121130D01*
X0021030Y0121105D01*
X0021098Y0121077D01*
X0021165Y0121046D01*
X0021230Y0121010D01*
X0021293Y0120972D01*
X0021354Y0120930D01*
X0021413Y0120884D01*
X0021469Y0120836D01*
X0021522Y0120785D01*
X0021572Y0120731D01*
X0021620Y0120674D01*
X0021664Y0120615D01*
X0021706Y0120553D01*
X0021744Y0120490D01*
X0021778Y0120424D01*
X0021809Y0120357D01*
X0021836Y0120288D01*
X0021859Y0120218D01*
X0021879Y0120147D01*
X0021895Y0120074D01*
X0021907Y0120001D01*
X0021915Y0119928D01*
X0021919Y0119854D01*
X0021919Y0119780D01*
X0021915Y0119706D01*
X0021907Y0119633D01*
X0021895Y0119560D01*
X0021879Y0119487D01*
X0021859Y0119416D01*
X0021836Y0119346D01*
X0021809Y0119277D01*
X0021778Y0119210D01*
X0021744Y0119144D01*
X0021706Y0119081D01*
X0021664Y0119019D01*
X0021620Y0118960D01*
X0021572Y0118903D01*
X0021522Y0118849D01*
X0021469Y0118798D01*
X0021413Y0118750D01*
X0021354Y0118704D01*
X0021293Y0118662D01*
X0021230Y0118624D01*
X0021165Y0118588D01*
X0021098Y0118557D01*
X0021030Y0118529D01*
X0020960Y0118504D01*
X0020889Y0118484D01*
X0020817Y0118467D01*
X0020744Y0118454D01*
X0020670Y0118445D01*
X0020596Y0118440D01*
X0020523Y0118439D01*
X0020449Y0118442D01*
X0020375Y0118449D01*
X0020302Y0118460D01*
X0020229Y0118475D01*
X0020158Y0118493D01*
X0020087Y0118516D01*
X0020018Y0118542D01*
X0019950Y0118572D01*
X0019884Y0118606D01*
X0019820Y0118643D01*
X0019758Y0118683D01*
X0019698Y0118727D01*
X0019641Y0118773D01*
X0019586Y0118823D01*
X0019534Y0118876D01*
X0019485Y0118931D01*
X0019439Y0118989D01*
X0019397Y0119050D01*
X0019357Y0119112D01*
X0019321Y0119177D01*
X0019288Y0119243D01*
X0019259Y0119311D01*
X0019234Y0119381D01*
X0019212Y0119451D01*
X0019195Y0119523D01*
X0019181Y0119596D01*
X0019171Y0119669D01*
X0019165Y0119743D01*
X0019163Y0119817D01*
X0019163Y0104463D02*
X0019165Y0104537D01*
X0019171Y0104611D01*
X0019181Y0104684D01*
X0019195Y0104757D01*
X0019212Y0104829D01*
X0019234Y0104899D01*
X0019259Y0104969D01*
X0019288Y0105037D01*
X0019321Y0105103D01*
X0019357Y0105168D01*
X0019397Y0105230D01*
X0019439Y0105291D01*
X0019485Y0105349D01*
X0019534Y0105404D01*
X0019586Y0105457D01*
X0019641Y0105507D01*
X0019698Y0105553D01*
X0019758Y0105597D01*
X0019820Y0105637D01*
X0019884Y0105674D01*
X0019950Y0105708D01*
X0020018Y0105738D01*
X0020087Y0105764D01*
X0020158Y0105787D01*
X0020229Y0105805D01*
X0020302Y0105820D01*
X0020375Y0105831D01*
X0020449Y0105838D01*
X0020523Y0105841D01*
X0020596Y0105840D01*
X0020670Y0105835D01*
X0020744Y0105826D01*
X0020817Y0105813D01*
X0020889Y0105796D01*
X0020960Y0105776D01*
X0021030Y0105751D01*
X0021098Y0105723D01*
X0021165Y0105692D01*
X0021230Y0105656D01*
X0021293Y0105618D01*
X0021354Y0105576D01*
X0021413Y0105530D01*
X0021469Y0105482D01*
X0021522Y0105431D01*
X0021572Y0105377D01*
X0021620Y0105320D01*
X0021664Y0105261D01*
X0021706Y0105199D01*
X0021744Y0105136D01*
X0021778Y0105070D01*
X0021809Y0105003D01*
X0021836Y0104934D01*
X0021859Y0104864D01*
X0021879Y0104793D01*
X0021895Y0104720D01*
X0021907Y0104647D01*
X0021915Y0104574D01*
X0021919Y0104500D01*
X0021919Y0104426D01*
X0021915Y0104352D01*
X0021907Y0104279D01*
X0021895Y0104206D01*
X0021879Y0104133D01*
X0021859Y0104062D01*
X0021836Y0103992D01*
X0021809Y0103923D01*
X0021778Y0103856D01*
X0021744Y0103790D01*
X0021706Y0103727D01*
X0021664Y0103665D01*
X0021620Y0103606D01*
X0021572Y0103549D01*
X0021522Y0103495D01*
X0021469Y0103444D01*
X0021413Y0103396D01*
X0021354Y0103350D01*
X0021293Y0103308D01*
X0021230Y0103270D01*
X0021165Y0103234D01*
X0021098Y0103203D01*
X0021030Y0103175D01*
X0020960Y0103150D01*
X0020889Y0103130D01*
X0020817Y0103113D01*
X0020744Y0103100D01*
X0020670Y0103091D01*
X0020596Y0103086D01*
X0020523Y0103085D01*
X0020449Y0103088D01*
X0020375Y0103095D01*
X0020302Y0103106D01*
X0020229Y0103121D01*
X0020158Y0103139D01*
X0020087Y0103162D01*
X0020018Y0103188D01*
X0019950Y0103218D01*
X0019884Y0103252D01*
X0019820Y0103289D01*
X0019758Y0103329D01*
X0019698Y0103373D01*
X0019641Y0103419D01*
X0019586Y0103469D01*
X0019534Y0103522D01*
X0019485Y0103577D01*
X0019439Y0103635D01*
X0019397Y0103696D01*
X0019357Y0103758D01*
X0019321Y0103823D01*
X0019288Y0103889D01*
X0019259Y0103957D01*
X0019234Y0104027D01*
X0019212Y0104097D01*
X0019195Y0104169D01*
X0019181Y0104242D01*
X0019171Y0104315D01*
X0019165Y0104389D01*
X0019163Y0104463D01*
X0014242Y0099148D02*
X0011880Y0099148D01*
X0011814Y0099140D01*
X0011750Y0099128D01*
X0011686Y0099112D01*
X0011623Y0099093D01*
X0011562Y0099069D01*
X0011502Y0099042D01*
X0011444Y0099012D01*
X0011388Y0098978D01*
X0011334Y0098941D01*
X0011282Y0098900D01*
X0011233Y0098856D01*
X0011186Y0098810D01*
X0011143Y0098761D01*
X0011102Y0098709D01*
X0011065Y0098655D01*
X0011031Y0098599D01*
X0011001Y0098541D01*
X0010974Y0098481D01*
X0010950Y0098420D01*
X0010931Y0098357D01*
X0010915Y0098293D01*
X0010903Y0098229D01*
X0010895Y0098163D01*
X0010891Y0098098D01*
X0010891Y0098032D01*
X0010895Y0097967D01*
X0010891Y0097902D01*
X0010891Y0097836D01*
X0010895Y0097771D01*
X0010903Y0097705D01*
X0010915Y0097641D01*
X0010931Y0097577D01*
X0010950Y0097514D01*
X0010974Y0097453D01*
X0011001Y0097393D01*
X0011031Y0097335D01*
X0011065Y0097279D01*
X0011102Y0097225D01*
X0011143Y0097173D01*
X0011186Y0097124D01*
X0011233Y0097078D01*
X0011282Y0097034D01*
X0011334Y0096993D01*
X0011388Y0096956D01*
X0011444Y0096922D01*
X0011502Y0096892D01*
X0011562Y0096865D01*
X0011623Y0096841D01*
X0011686Y0096822D01*
X0011750Y0096806D01*
X0011814Y0096794D01*
X0011880Y0096786D01*
X0014242Y0096786D01*
X0014305Y0096794D01*
X0014367Y0096805D01*
X0014429Y0096820D01*
X0014489Y0096838D01*
X0014549Y0096860D01*
X0014607Y0096885D01*
X0014663Y0096914D01*
X0014718Y0096946D01*
X0014770Y0096981D01*
X0014821Y0097019D01*
X0014869Y0097059D01*
X0014915Y0097103D01*
X0014958Y0097149D01*
X0014999Y0097198D01*
X0015037Y0097249D01*
X0015071Y0097301D01*
X0015103Y0097356D01*
X0015131Y0097413D01*
X0015156Y0097471D01*
X0015177Y0097531D01*
X0015195Y0097591D01*
X0015209Y0097653D01*
X0015220Y0097715D01*
X0015227Y0097778D01*
X0015231Y0097841D01*
X0015230Y0097904D01*
X0015227Y0097967D01*
X0015230Y0098030D01*
X0015231Y0098093D01*
X0015227Y0098156D01*
X0015220Y0098219D01*
X0015209Y0098281D01*
X0015195Y0098343D01*
X0015177Y0098403D01*
X0015156Y0098463D01*
X0015131Y0098521D01*
X0015103Y0098578D01*
X0015071Y0098633D01*
X0015037Y0098685D01*
X0014999Y0098736D01*
X0014958Y0098785D01*
X0014915Y0098831D01*
X0014869Y0098875D01*
X0014821Y0098915D01*
X0014770Y0098953D01*
X0014718Y0098988D01*
X0014663Y0099020D01*
X0014607Y0099049D01*
X0014549Y0099074D01*
X0014489Y0099096D01*
X0014429Y0099114D01*
X0014367Y0099129D01*
X0014305Y0099140D01*
X0014242Y0099148D01*
X0075244Y0033400D02*
X0075246Y0033560D01*
X0075252Y0033719D01*
X0075262Y0033878D01*
X0075276Y0034037D01*
X0075294Y0034196D01*
X0075315Y0034354D01*
X0075341Y0034511D01*
X0075371Y0034668D01*
X0075404Y0034824D01*
X0075442Y0034979D01*
X0075483Y0035133D01*
X0075528Y0035286D01*
X0075577Y0035438D01*
X0075630Y0035589D01*
X0075686Y0035738D01*
X0075747Y0035886D01*
X0075810Y0036032D01*
X0075878Y0036177D01*
X0075949Y0036320D01*
X0076023Y0036461D01*
X0076101Y0036600D01*
X0076183Y0036737D01*
X0076268Y0036872D01*
X0076356Y0037005D01*
X0076448Y0037136D01*
X0076542Y0037264D01*
X0076640Y0037390D01*
X0076741Y0037514D01*
X0076845Y0037635D01*
X0076952Y0037753D01*
X0077062Y0037869D01*
X0077175Y0037982D01*
X0077291Y0038092D01*
X0077409Y0038199D01*
X0077530Y0038303D01*
X0077654Y0038404D01*
X0077780Y0038502D01*
X0077908Y0038596D01*
X0078039Y0038688D01*
X0078172Y0038776D01*
X0078307Y0038861D01*
X0078444Y0038943D01*
X0078583Y0039021D01*
X0078724Y0039095D01*
X0078867Y0039166D01*
X0079012Y0039234D01*
X0079158Y0039297D01*
X0079306Y0039358D01*
X0079455Y0039414D01*
X0079606Y0039467D01*
X0079758Y0039516D01*
X0079911Y0039561D01*
X0080065Y0039602D01*
X0080220Y0039640D01*
X0080376Y0039673D01*
X0080533Y0039703D01*
X0080690Y0039729D01*
X0080848Y0039750D01*
X0081007Y0039768D01*
X0081166Y0039782D01*
X0081325Y0039792D01*
X0081484Y0039798D01*
X0081644Y0039800D01*
X0081804Y0039798D01*
X0081963Y0039792D01*
X0082122Y0039782D01*
X0082281Y0039768D01*
X0082440Y0039750D01*
X0082598Y0039729D01*
X0082755Y0039703D01*
X0082912Y0039673D01*
X0083068Y0039640D01*
X0083223Y0039602D01*
X0083377Y0039561D01*
X0083530Y0039516D01*
X0083682Y0039467D01*
X0083833Y0039414D01*
X0083982Y0039358D01*
X0084130Y0039297D01*
X0084276Y0039234D01*
X0084421Y0039166D01*
X0084564Y0039095D01*
X0084705Y0039021D01*
X0084844Y0038943D01*
X0084981Y0038861D01*
X0085116Y0038776D01*
X0085249Y0038688D01*
X0085380Y0038596D01*
X0085508Y0038502D01*
X0085634Y0038404D01*
X0085758Y0038303D01*
X0085879Y0038199D01*
X0085997Y0038092D01*
X0086113Y0037982D01*
X0086226Y0037869D01*
X0086336Y0037753D01*
X0086443Y0037635D01*
X0086547Y0037514D01*
X0086648Y0037390D01*
X0086746Y0037264D01*
X0086840Y0037136D01*
X0086932Y0037005D01*
X0087020Y0036872D01*
X0087105Y0036737D01*
X0087187Y0036600D01*
X0087265Y0036461D01*
X0087339Y0036320D01*
X0087410Y0036177D01*
X0087478Y0036032D01*
X0087541Y0035886D01*
X0087602Y0035738D01*
X0087658Y0035589D01*
X0087711Y0035438D01*
X0087760Y0035286D01*
X0087805Y0035133D01*
X0087846Y0034979D01*
X0087884Y0034824D01*
X0087917Y0034668D01*
X0087947Y0034511D01*
X0087973Y0034354D01*
X0087994Y0034196D01*
X0088012Y0034037D01*
X0088026Y0033878D01*
X0088036Y0033719D01*
X0088042Y0033560D01*
X0088044Y0033400D01*
X0088042Y0033240D01*
X0088036Y0033081D01*
X0088026Y0032922D01*
X0088012Y0032763D01*
X0087994Y0032604D01*
X0087973Y0032446D01*
X0087947Y0032289D01*
X0087917Y0032132D01*
X0087884Y0031976D01*
X0087846Y0031821D01*
X0087805Y0031667D01*
X0087760Y0031514D01*
X0087711Y0031362D01*
X0087658Y0031211D01*
X0087602Y0031062D01*
X0087541Y0030914D01*
X0087478Y0030768D01*
X0087410Y0030623D01*
X0087339Y0030480D01*
X0087265Y0030339D01*
X0087187Y0030200D01*
X0087105Y0030063D01*
X0087020Y0029928D01*
X0086932Y0029795D01*
X0086840Y0029664D01*
X0086746Y0029536D01*
X0086648Y0029410D01*
X0086547Y0029286D01*
X0086443Y0029165D01*
X0086336Y0029047D01*
X0086226Y0028931D01*
X0086113Y0028818D01*
X0085997Y0028708D01*
X0085879Y0028601D01*
X0085758Y0028497D01*
X0085634Y0028396D01*
X0085508Y0028298D01*
X0085380Y0028204D01*
X0085249Y0028112D01*
X0085116Y0028024D01*
X0084981Y0027939D01*
X0084844Y0027857D01*
X0084705Y0027779D01*
X0084564Y0027705D01*
X0084421Y0027634D01*
X0084276Y0027566D01*
X0084130Y0027503D01*
X0083982Y0027442D01*
X0083833Y0027386D01*
X0083682Y0027333D01*
X0083530Y0027284D01*
X0083377Y0027239D01*
X0083223Y0027198D01*
X0083068Y0027160D01*
X0082912Y0027127D01*
X0082755Y0027097D01*
X0082598Y0027071D01*
X0082440Y0027050D01*
X0082281Y0027032D01*
X0082122Y0027018D01*
X0081963Y0027008D01*
X0081804Y0027002D01*
X0081644Y0027000D01*
X0081484Y0027002D01*
X0081325Y0027008D01*
X0081166Y0027018D01*
X0081007Y0027032D01*
X0080848Y0027050D01*
X0080690Y0027071D01*
X0080533Y0027097D01*
X0080376Y0027127D01*
X0080220Y0027160D01*
X0080065Y0027198D01*
X0079911Y0027239D01*
X0079758Y0027284D01*
X0079606Y0027333D01*
X0079455Y0027386D01*
X0079306Y0027442D01*
X0079158Y0027503D01*
X0079012Y0027566D01*
X0078867Y0027634D01*
X0078724Y0027705D01*
X0078583Y0027779D01*
X0078444Y0027857D01*
X0078307Y0027939D01*
X0078172Y0028024D01*
X0078039Y0028112D01*
X0077908Y0028204D01*
X0077780Y0028298D01*
X0077654Y0028396D01*
X0077530Y0028497D01*
X0077409Y0028601D01*
X0077291Y0028708D01*
X0077175Y0028818D01*
X0077062Y0028931D01*
X0076952Y0029047D01*
X0076845Y0029165D01*
X0076741Y0029286D01*
X0076640Y0029410D01*
X0076542Y0029536D01*
X0076448Y0029664D01*
X0076356Y0029795D01*
X0076268Y0029928D01*
X0076183Y0030063D01*
X0076101Y0030200D01*
X0076023Y0030339D01*
X0075949Y0030480D01*
X0075878Y0030623D01*
X0075810Y0030768D01*
X0075747Y0030914D01*
X0075686Y0031062D01*
X0075630Y0031211D01*
X0075577Y0031362D01*
X0075528Y0031514D01*
X0075483Y0031667D01*
X0075442Y0031821D01*
X0075404Y0031976D01*
X0075371Y0032132D01*
X0075341Y0032289D01*
X0075315Y0032446D01*
X0075294Y0032604D01*
X0075276Y0032763D01*
X0075262Y0032922D01*
X0075252Y0033081D01*
X0075246Y0033240D01*
X0075244Y0033400D01*
X0115244Y0033400D02*
X0115246Y0033560D01*
X0115252Y0033719D01*
X0115262Y0033878D01*
X0115276Y0034037D01*
X0115294Y0034196D01*
X0115315Y0034354D01*
X0115341Y0034511D01*
X0115371Y0034668D01*
X0115404Y0034824D01*
X0115442Y0034979D01*
X0115483Y0035133D01*
X0115528Y0035286D01*
X0115577Y0035438D01*
X0115630Y0035589D01*
X0115686Y0035738D01*
X0115747Y0035886D01*
X0115810Y0036032D01*
X0115878Y0036177D01*
X0115949Y0036320D01*
X0116023Y0036461D01*
X0116101Y0036600D01*
X0116183Y0036737D01*
X0116268Y0036872D01*
X0116356Y0037005D01*
X0116448Y0037136D01*
X0116542Y0037264D01*
X0116640Y0037390D01*
X0116741Y0037514D01*
X0116845Y0037635D01*
X0116952Y0037753D01*
X0117062Y0037869D01*
X0117175Y0037982D01*
X0117291Y0038092D01*
X0117409Y0038199D01*
X0117530Y0038303D01*
X0117654Y0038404D01*
X0117780Y0038502D01*
X0117908Y0038596D01*
X0118039Y0038688D01*
X0118172Y0038776D01*
X0118307Y0038861D01*
X0118444Y0038943D01*
X0118583Y0039021D01*
X0118724Y0039095D01*
X0118867Y0039166D01*
X0119012Y0039234D01*
X0119158Y0039297D01*
X0119306Y0039358D01*
X0119455Y0039414D01*
X0119606Y0039467D01*
X0119758Y0039516D01*
X0119911Y0039561D01*
X0120065Y0039602D01*
X0120220Y0039640D01*
X0120376Y0039673D01*
X0120533Y0039703D01*
X0120690Y0039729D01*
X0120848Y0039750D01*
X0121007Y0039768D01*
X0121166Y0039782D01*
X0121325Y0039792D01*
X0121484Y0039798D01*
X0121644Y0039800D01*
X0121804Y0039798D01*
X0121963Y0039792D01*
X0122122Y0039782D01*
X0122281Y0039768D01*
X0122440Y0039750D01*
X0122598Y0039729D01*
X0122755Y0039703D01*
X0122912Y0039673D01*
X0123068Y0039640D01*
X0123223Y0039602D01*
X0123377Y0039561D01*
X0123530Y0039516D01*
X0123682Y0039467D01*
X0123833Y0039414D01*
X0123982Y0039358D01*
X0124130Y0039297D01*
X0124276Y0039234D01*
X0124421Y0039166D01*
X0124564Y0039095D01*
X0124705Y0039021D01*
X0124844Y0038943D01*
X0124981Y0038861D01*
X0125116Y0038776D01*
X0125249Y0038688D01*
X0125380Y0038596D01*
X0125508Y0038502D01*
X0125634Y0038404D01*
X0125758Y0038303D01*
X0125879Y0038199D01*
X0125997Y0038092D01*
X0126113Y0037982D01*
X0126226Y0037869D01*
X0126336Y0037753D01*
X0126443Y0037635D01*
X0126547Y0037514D01*
X0126648Y0037390D01*
X0126746Y0037264D01*
X0126840Y0037136D01*
X0126932Y0037005D01*
X0127020Y0036872D01*
X0127105Y0036737D01*
X0127187Y0036600D01*
X0127265Y0036461D01*
X0127339Y0036320D01*
X0127410Y0036177D01*
X0127478Y0036032D01*
X0127541Y0035886D01*
X0127602Y0035738D01*
X0127658Y0035589D01*
X0127711Y0035438D01*
X0127760Y0035286D01*
X0127805Y0035133D01*
X0127846Y0034979D01*
X0127884Y0034824D01*
X0127917Y0034668D01*
X0127947Y0034511D01*
X0127973Y0034354D01*
X0127994Y0034196D01*
X0128012Y0034037D01*
X0128026Y0033878D01*
X0128036Y0033719D01*
X0128042Y0033560D01*
X0128044Y0033400D01*
X0128042Y0033240D01*
X0128036Y0033081D01*
X0128026Y0032922D01*
X0128012Y0032763D01*
X0127994Y0032604D01*
X0127973Y0032446D01*
X0127947Y0032289D01*
X0127917Y0032132D01*
X0127884Y0031976D01*
X0127846Y0031821D01*
X0127805Y0031667D01*
X0127760Y0031514D01*
X0127711Y0031362D01*
X0127658Y0031211D01*
X0127602Y0031062D01*
X0127541Y0030914D01*
X0127478Y0030768D01*
X0127410Y0030623D01*
X0127339Y0030480D01*
X0127265Y0030339D01*
X0127187Y0030200D01*
X0127105Y0030063D01*
X0127020Y0029928D01*
X0126932Y0029795D01*
X0126840Y0029664D01*
X0126746Y0029536D01*
X0126648Y0029410D01*
X0126547Y0029286D01*
X0126443Y0029165D01*
X0126336Y0029047D01*
X0126226Y0028931D01*
X0126113Y0028818D01*
X0125997Y0028708D01*
X0125879Y0028601D01*
X0125758Y0028497D01*
X0125634Y0028396D01*
X0125508Y0028298D01*
X0125380Y0028204D01*
X0125249Y0028112D01*
X0125116Y0028024D01*
X0124981Y0027939D01*
X0124844Y0027857D01*
X0124705Y0027779D01*
X0124564Y0027705D01*
X0124421Y0027634D01*
X0124276Y0027566D01*
X0124130Y0027503D01*
X0123982Y0027442D01*
X0123833Y0027386D01*
X0123682Y0027333D01*
X0123530Y0027284D01*
X0123377Y0027239D01*
X0123223Y0027198D01*
X0123068Y0027160D01*
X0122912Y0027127D01*
X0122755Y0027097D01*
X0122598Y0027071D01*
X0122440Y0027050D01*
X0122281Y0027032D01*
X0122122Y0027018D01*
X0121963Y0027008D01*
X0121804Y0027002D01*
X0121644Y0027000D01*
X0121484Y0027002D01*
X0121325Y0027008D01*
X0121166Y0027018D01*
X0121007Y0027032D01*
X0120848Y0027050D01*
X0120690Y0027071D01*
X0120533Y0027097D01*
X0120376Y0027127D01*
X0120220Y0027160D01*
X0120065Y0027198D01*
X0119911Y0027239D01*
X0119758Y0027284D01*
X0119606Y0027333D01*
X0119455Y0027386D01*
X0119306Y0027442D01*
X0119158Y0027503D01*
X0119012Y0027566D01*
X0118867Y0027634D01*
X0118724Y0027705D01*
X0118583Y0027779D01*
X0118444Y0027857D01*
X0118307Y0027939D01*
X0118172Y0028024D01*
X0118039Y0028112D01*
X0117908Y0028204D01*
X0117780Y0028298D01*
X0117654Y0028396D01*
X0117530Y0028497D01*
X0117409Y0028601D01*
X0117291Y0028708D01*
X0117175Y0028818D01*
X0117062Y0028931D01*
X0116952Y0029047D01*
X0116845Y0029165D01*
X0116741Y0029286D01*
X0116640Y0029410D01*
X0116542Y0029536D01*
X0116448Y0029664D01*
X0116356Y0029795D01*
X0116268Y0029928D01*
X0116183Y0030063D01*
X0116101Y0030200D01*
X0116023Y0030339D01*
X0115949Y0030480D01*
X0115878Y0030623D01*
X0115810Y0030768D01*
X0115747Y0030914D01*
X0115686Y0031062D01*
X0115630Y0031211D01*
X0115577Y0031362D01*
X0115528Y0031514D01*
X0115483Y0031667D01*
X0115442Y0031821D01*
X0115404Y0031976D01*
X0115371Y0032132D01*
X0115341Y0032289D01*
X0115315Y0032446D01*
X0115294Y0032604D01*
X0115276Y0032763D01*
X0115262Y0032922D01*
X0115252Y0033081D01*
X0115246Y0033240D01*
X0115244Y0033400D01*
D17*
X0101379Y0039567D02*
X0100378Y0039567D01*
X0100878Y0039567D02*
X0100878Y0041068D01*
X0100378Y0040567D01*
X0099906Y0041068D02*
X0099405Y0041068D01*
X0099655Y0041068D02*
X0099655Y0039817D01*
X0099405Y0039567D01*
X0099155Y0039567D01*
X0098905Y0039817D01*
X0044906Y0165683D02*
X0045156Y0165933D01*
X0045156Y0166433D01*
X0044906Y0166683D01*
X0043655Y0166683D01*
X0043905Y0167156D02*
X0043655Y0167406D01*
X0043655Y0167907D01*
X0043905Y0168157D01*
X0044155Y0168157D01*
X0045156Y0167156D01*
X0045156Y0168157D01*
X0044906Y0165683D02*
X0043655Y0165683D01*
D18*
X0078573Y0179739D02*
X0078573Y0120683D01*
X0125817Y0120683D01*
X0125817Y0179739D01*
X0078573Y0179739D01*
X0070699Y0210447D02*
X0070699Y0115959D01*
X0133691Y0115959D01*
X0133691Y0210447D01*
X0070699Y0210447D01*
X0007156Y0127101D02*
X0003612Y0127101D01*
X0003612Y0097180D01*
X0007156Y0097180D01*
X0024872Y0102298D02*
X0024872Y0105447D01*
X0024872Y0118833D02*
X0024872Y0121983D01*
X0040007Y0060949D02*
X0039256Y0060198D01*
X0039256Y0059448D01*
X0040007Y0058697D01*
X0041508Y0058697D01*
X0042258Y0057947D01*
X0042258Y0057196D01*
X0041508Y0056445D01*
X0040007Y0056445D01*
X0039256Y0057196D01*
X0040007Y0060949D02*
X0041508Y0060949D01*
X0042258Y0060198D01*
X0043860Y0060949D02*
X0043860Y0056445D01*
X0045361Y0057947D01*
X0046862Y0056445D01*
X0046862Y0060949D01*
X0048464Y0059448D02*
X0049965Y0060949D01*
X0049965Y0056445D01*
X0048464Y0056445D02*
X0051466Y0056445D01*
X0102893Y0098687D02*
X0103644Y0097937D01*
X0104394Y0097937D01*
X0105145Y0098687D01*
X0105145Y0102440D01*
X0105895Y0102440D02*
X0104394Y0102440D01*
X0107497Y0102440D02*
X0109749Y0102440D01*
X0110499Y0101690D01*
X0110499Y0100189D01*
X0109749Y0099438D01*
X0107497Y0099438D01*
X0107497Y0097937D02*
X0107497Y0102440D01*
X0112101Y0100939D02*
X0113602Y0102440D01*
X0113602Y0097937D01*
X0112101Y0097937D02*
X0115103Y0097937D01*
X0185211Y0098138D02*
X0187913Y0096337D01*
X0187913Y0098138D02*
X0185211Y0096337D01*
X0185211Y0095192D02*
X0185211Y0093390D01*
X0185211Y0094291D02*
X0187913Y0094291D01*
X0187913Y0091085D02*
X0187013Y0090184D01*
X0187013Y0090634D02*
X0187013Y0089283D01*
X0187913Y0089283D02*
X0185211Y0089283D01*
X0185211Y0090634D01*
X0185661Y0091085D01*
X0186562Y0091085D01*
X0187013Y0090634D01*
X0185211Y0088138D02*
X0185211Y0086337D01*
X0185211Y0087237D02*
X0187913Y0087237D01*
X0187463Y0085192D02*
X0185661Y0085192D01*
X0185211Y0084741D01*
X0185211Y0083390D01*
X0187913Y0083390D01*
X0187913Y0084741D01*
X0187463Y0085192D01*
X0189163Y0082140D02*
X0199163Y0082140D01*
X0199163Y0142140D01*
X0189163Y0142140D01*
X0189163Y0082140D01*
X0187463Y0099283D02*
X0185661Y0099283D01*
X0185211Y0099734D01*
X0185211Y0100634D01*
X0185661Y0101085D01*
X0187463Y0101085D01*
X0187913Y0100634D01*
X0187913Y0099734D01*
X0187463Y0099283D01*
X0187913Y0103390D02*
X0185211Y0103390D01*
X0185211Y0104741D01*
X0185661Y0105192D01*
X0186562Y0105192D01*
X0187013Y0104741D01*
X0187013Y0103390D01*
X0187013Y0104291D02*
X0187913Y0105192D01*
X0187913Y0106337D02*
X0185211Y0108138D01*
X0185211Y0109283D02*
X0185211Y0110184D01*
X0185211Y0109734D02*
X0187913Y0109734D01*
X0187913Y0110184D02*
X0187913Y0109283D01*
X0187913Y0108138D02*
X0185211Y0106337D01*
X0185211Y0113390D02*
X0187013Y0113390D01*
X0187913Y0114291D01*
X0187013Y0115192D01*
X0185211Y0115192D01*
X0185661Y0116337D02*
X0187463Y0116337D01*
X0187913Y0116787D01*
X0187913Y0117688D01*
X0187463Y0118138D01*
X0187463Y0119283D02*
X0185661Y0119283D01*
X0185211Y0119734D01*
X0185211Y0120634D01*
X0185661Y0121085D01*
X0187463Y0121085D02*
X0187913Y0120634D01*
X0187913Y0119734D01*
X0187463Y0119283D01*
X0185661Y0118138D02*
X0185211Y0117688D01*
X0185211Y0116787D01*
X0185661Y0116337D01*
X0185661Y0123390D02*
X0187463Y0123390D01*
X0187913Y0123841D01*
X0187913Y0124741D01*
X0187463Y0125192D01*
X0185661Y0125192D02*
X0185211Y0124741D01*
X0185211Y0123841D01*
X0185661Y0123390D01*
X0185211Y0126337D02*
X0185211Y0128138D01*
X0185211Y0127237D02*
X0187913Y0127237D01*
X0187463Y0129283D02*
X0187913Y0129734D01*
X0187913Y0130634D01*
X0187463Y0131085D01*
X0187013Y0131085D01*
X0186562Y0130634D01*
X0186562Y0129734D01*
X0186112Y0129283D01*
X0185661Y0129283D01*
X0185211Y0129734D01*
X0185211Y0130634D01*
X0185661Y0131085D01*
X0185661Y0133390D02*
X0187463Y0133390D01*
X0187913Y0133841D01*
X0187913Y0134741D01*
X0187463Y0135192D01*
X0186562Y0135192D01*
X0186562Y0134291D01*
X0185661Y0135192D02*
X0185211Y0134741D01*
X0185211Y0133841D01*
X0185661Y0133390D01*
X0185211Y0136337D02*
X0187913Y0138138D01*
X0185211Y0138138D01*
X0185211Y0139283D02*
X0185211Y0140634D01*
X0185661Y0141085D01*
X0187463Y0141085D01*
X0187913Y0140634D01*
X0187913Y0139283D01*
X0185211Y0139283D01*
X0185211Y0136337D02*
X0187913Y0136337D01*
X0172182Y0183020D02*
X0169180Y0183020D01*
X0172182Y0186023D01*
X0172182Y0186773D01*
X0171431Y0187524D01*
X0169930Y0187524D01*
X0169180Y0186773D01*
X0167578Y0187524D02*
X0167578Y0183020D01*
X0166077Y0184521D01*
X0164576Y0183020D01*
X0164576Y0187524D01*
X0162974Y0186773D02*
X0162224Y0187524D01*
X0160722Y0187524D01*
X0159972Y0186773D01*
X0159972Y0186023D01*
X0160722Y0185272D01*
X0162224Y0185272D01*
X0162974Y0184521D01*
X0162974Y0183771D01*
X0162224Y0183020D01*
X0160722Y0183020D01*
X0159972Y0183771D01*
D19*
X0105657Y0164415D02*
X0102387Y0164415D01*
X0104022Y0164415D02*
X0104022Y0169319D01*
X0102387Y0167684D01*
X0100500Y0169319D02*
X0097231Y0164415D01*
X0100500Y0164415D02*
X0097231Y0169319D01*
X0097388Y0114476D02*
X0099841Y0114476D01*
X0100658Y0113659D01*
X0100658Y0112024D01*
X0099841Y0111207D01*
X0097388Y0111207D01*
X0097388Y0109572D02*
X0097388Y0114476D01*
X0095502Y0113659D02*
X0094684Y0114476D01*
X0093049Y0114476D01*
X0092232Y0113659D01*
X0092232Y0112841D01*
X0093049Y0112024D01*
X0094684Y0112024D01*
X0095502Y0111207D01*
X0095502Y0110389D01*
X0094684Y0109572D01*
X0093049Y0109572D01*
X0092232Y0110389D01*
X0090345Y0109572D02*
X0087076Y0109572D01*
X0087076Y0114476D01*
X0090345Y0114476D01*
X0088710Y0112024D02*
X0087076Y0112024D01*
X0102545Y0112024D02*
X0105814Y0112024D01*
X0107701Y0112841D02*
X0109336Y0114476D01*
X0109336Y0109572D01*
X0107701Y0109572D02*
X0110971Y0109572D01*
X0112858Y0109572D02*
X0116127Y0112841D01*
X0116127Y0113659D01*
X0115310Y0114476D01*
X0113675Y0114476D01*
X0112858Y0113659D01*
X0112858Y0109572D02*
X0116127Y0109572D01*
M02*
