G75*
%MOIN*%
%OFA0B0*%
%FSLAX25Y25*%
%IPPOS*%
%LPD*%
%AMOC8*
5,1,8,0,0,1.08239X$1,22.5*
%
%ADD10C,0.01600*%
%ADD11C,0.00000*%
D10*
X0011093Y0013715D02*
X0192195Y0013715D01*
X0200069Y0021589D01*
X0200069Y0202691D01*
X0192195Y0210565D01*
X0133140Y0210565D01*
X0133140Y0183006D01*
X0070148Y0183006D01*
X0070148Y0210565D01*
X0011093Y0210565D01*
X0003219Y0202691D01*
X0003219Y0021589D01*
X0011093Y0013715D01*
D11*
X0075244Y0033400D02*
X0075246Y0033560D01*
X0075252Y0033719D01*
X0075262Y0033878D01*
X0075276Y0034037D01*
X0075294Y0034196D01*
X0075315Y0034354D01*
X0075341Y0034511D01*
X0075371Y0034668D01*
X0075404Y0034824D01*
X0075442Y0034979D01*
X0075483Y0035133D01*
X0075528Y0035286D01*
X0075577Y0035438D01*
X0075630Y0035589D01*
X0075686Y0035738D01*
X0075747Y0035886D01*
X0075810Y0036032D01*
X0075878Y0036177D01*
X0075949Y0036320D01*
X0076023Y0036461D01*
X0076101Y0036600D01*
X0076183Y0036737D01*
X0076268Y0036872D01*
X0076356Y0037005D01*
X0076448Y0037136D01*
X0076542Y0037264D01*
X0076640Y0037390D01*
X0076741Y0037514D01*
X0076845Y0037635D01*
X0076952Y0037753D01*
X0077062Y0037869D01*
X0077175Y0037982D01*
X0077291Y0038092D01*
X0077409Y0038199D01*
X0077530Y0038303D01*
X0077654Y0038404D01*
X0077780Y0038502D01*
X0077908Y0038596D01*
X0078039Y0038688D01*
X0078172Y0038776D01*
X0078307Y0038861D01*
X0078444Y0038943D01*
X0078583Y0039021D01*
X0078724Y0039095D01*
X0078867Y0039166D01*
X0079012Y0039234D01*
X0079158Y0039297D01*
X0079306Y0039358D01*
X0079455Y0039414D01*
X0079606Y0039467D01*
X0079758Y0039516D01*
X0079911Y0039561D01*
X0080065Y0039602D01*
X0080220Y0039640D01*
X0080376Y0039673D01*
X0080533Y0039703D01*
X0080690Y0039729D01*
X0080848Y0039750D01*
X0081007Y0039768D01*
X0081166Y0039782D01*
X0081325Y0039792D01*
X0081484Y0039798D01*
X0081644Y0039800D01*
X0081804Y0039798D01*
X0081963Y0039792D01*
X0082122Y0039782D01*
X0082281Y0039768D01*
X0082440Y0039750D01*
X0082598Y0039729D01*
X0082755Y0039703D01*
X0082912Y0039673D01*
X0083068Y0039640D01*
X0083223Y0039602D01*
X0083377Y0039561D01*
X0083530Y0039516D01*
X0083682Y0039467D01*
X0083833Y0039414D01*
X0083982Y0039358D01*
X0084130Y0039297D01*
X0084276Y0039234D01*
X0084421Y0039166D01*
X0084564Y0039095D01*
X0084705Y0039021D01*
X0084844Y0038943D01*
X0084981Y0038861D01*
X0085116Y0038776D01*
X0085249Y0038688D01*
X0085380Y0038596D01*
X0085508Y0038502D01*
X0085634Y0038404D01*
X0085758Y0038303D01*
X0085879Y0038199D01*
X0085997Y0038092D01*
X0086113Y0037982D01*
X0086226Y0037869D01*
X0086336Y0037753D01*
X0086443Y0037635D01*
X0086547Y0037514D01*
X0086648Y0037390D01*
X0086746Y0037264D01*
X0086840Y0037136D01*
X0086932Y0037005D01*
X0087020Y0036872D01*
X0087105Y0036737D01*
X0087187Y0036600D01*
X0087265Y0036461D01*
X0087339Y0036320D01*
X0087410Y0036177D01*
X0087478Y0036032D01*
X0087541Y0035886D01*
X0087602Y0035738D01*
X0087658Y0035589D01*
X0087711Y0035438D01*
X0087760Y0035286D01*
X0087805Y0035133D01*
X0087846Y0034979D01*
X0087884Y0034824D01*
X0087917Y0034668D01*
X0087947Y0034511D01*
X0087973Y0034354D01*
X0087994Y0034196D01*
X0088012Y0034037D01*
X0088026Y0033878D01*
X0088036Y0033719D01*
X0088042Y0033560D01*
X0088044Y0033400D01*
X0088042Y0033240D01*
X0088036Y0033081D01*
X0088026Y0032922D01*
X0088012Y0032763D01*
X0087994Y0032604D01*
X0087973Y0032446D01*
X0087947Y0032289D01*
X0087917Y0032132D01*
X0087884Y0031976D01*
X0087846Y0031821D01*
X0087805Y0031667D01*
X0087760Y0031514D01*
X0087711Y0031362D01*
X0087658Y0031211D01*
X0087602Y0031062D01*
X0087541Y0030914D01*
X0087478Y0030768D01*
X0087410Y0030623D01*
X0087339Y0030480D01*
X0087265Y0030339D01*
X0087187Y0030200D01*
X0087105Y0030063D01*
X0087020Y0029928D01*
X0086932Y0029795D01*
X0086840Y0029664D01*
X0086746Y0029536D01*
X0086648Y0029410D01*
X0086547Y0029286D01*
X0086443Y0029165D01*
X0086336Y0029047D01*
X0086226Y0028931D01*
X0086113Y0028818D01*
X0085997Y0028708D01*
X0085879Y0028601D01*
X0085758Y0028497D01*
X0085634Y0028396D01*
X0085508Y0028298D01*
X0085380Y0028204D01*
X0085249Y0028112D01*
X0085116Y0028024D01*
X0084981Y0027939D01*
X0084844Y0027857D01*
X0084705Y0027779D01*
X0084564Y0027705D01*
X0084421Y0027634D01*
X0084276Y0027566D01*
X0084130Y0027503D01*
X0083982Y0027442D01*
X0083833Y0027386D01*
X0083682Y0027333D01*
X0083530Y0027284D01*
X0083377Y0027239D01*
X0083223Y0027198D01*
X0083068Y0027160D01*
X0082912Y0027127D01*
X0082755Y0027097D01*
X0082598Y0027071D01*
X0082440Y0027050D01*
X0082281Y0027032D01*
X0082122Y0027018D01*
X0081963Y0027008D01*
X0081804Y0027002D01*
X0081644Y0027000D01*
X0081484Y0027002D01*
X0081325Y0027008D01*
X0081166Y0027018D01*
X0081007Y0027032D01*
X0080848Y0027050D01*
X0080690Y0027071D01*
X0080533Y0027097D01*
X0080376Y0027127D01*
X0080220Y0027160D01*
X0080065Y0027198D01*
X0079911Y0027239D01*
X0079758Y0027284D01*
X0079606Y0027333D01*
X0079455Y0027386D01*
X0079306Y0027442D01*
X0079158Y0027503D01*
X0079012Y0027566D01*
X0078867Y0027634D01*
X0078724Y0027705D01*
X0078583Y0027779D01*
X0078444Y0027857D01*
X0078307Y0027939D01*
X0078172Y0028024D01*
X0078039Y0028112D01*
X0077908Y0028204D01*
X0077780Y0028298D01*
X0077654Y0028396D01*
X0077530Y0028497D01*
X0077409Y0028601D01*
X0077291Y0028708D01*
X0077175Y0028818D01*
X0077062Y0028931D01*
X0076952Y0029047D01*
X0076845Y0029165D01*
X0076741Y0029286D01*
X0076640Y0029410D01*
X0076542Y0029536D01*
X0076448Y0029664D01*
X0076356Y0029795D01*
X0076268Y0029928D01*
X0076183Y0030063D01*
X0076101Y0030200D01*
X0076023Y0030339D01*
X0075949Y0030480D01*
X0075878Y0030623D01*
X0075810Y0030768D01*
X0075747Y0030914D01*
X0075686Y0031062D01*
X0075630Y0031211D01*
X0075577Y0031362D01*
X0075528Y0031514D01*
X0075483Y0031667D01*
X0075442Y0031821D01*
X0075404Y0031976D01*
X0075371Y0032132D01*
X0075341Y0032289D01*
X0075315Y0032446D01*
X0075294Y0032604D01*
X0075276Y0032763D01*
X0075262Y0032922D01*
X0075252Y0033081D01*
X0075246Y0033240D01*
X0075244Y0033400D01*
X0115244Y0033400D02*
X0115246Y0033560D01*
X0115252Y0033719D01*
X0115262Y0033878D01*
X0115276Y0034037D01*
X0115294Y0034196D01*
X0115315Y0034354D01*
X0115341Y0034511D01*
X0115371Y0034668D01*
X0115404Y0034824D01*
X0115442Y0034979D01*
X0115483Y0035133D01*
X0115528Y0035286D01*
X0115577Y0035438D01*
X0115630Y0035589D01*
X0115686Y0035738D01*
X0115747Y0035886D01*
X0115810Y0036032D01*
X0115878Y0036177D01*
X0115949Y0036320D01*
X0116023Y0036461D01*
X0116101Y0036600D01*
X0116183Y0036737D01*
X0116268Y0036872D01*
X0116356Y0037005D01*
X0116448Y0037136D01*
X0116542Y0037264D01*
X0116640Y0037390D01*
X0116741Y0037514D01*
X0116845Y0037635D01*
X0116952Y0037753D01*
X0117062Y0037869D01*
X0117175Y0037982D01*
X0117291Y0038092D01*
X0117409Y0038199D01*
X0117530Y0038303D01*
X0117654Y0038404D01*
X0117780Y0038502D01*
X0117908Y0038596D01*
X0118039Y0038688D01*
X0118172Y0038776D01*
X0118307Y0038861D01*
X0118444Y0038943D01*
X0118583Y0039021D01*
X0118724Y0039095D01*
X0118867Y0039166D01*
X0119012Y0039234D01*
X0119158Y0039297D01*
X0119306Y0039358D01*
X0119455Y0039414D01*
X0119606Y0039467D01*
X0119758Y0039516D01*
X0119911Y0039561D01*
X0120065Y0039602D01*
X0120220Y0039640D01*
X0120376Y0039673D01*
X0120533Y0039703D01*
X0120690Y0039729D01*
X0120848Y0039750D01*
X0121007Y0039768D01*
X0121166Y0039782D01*
X0121325Y0039792D01*
X0121484Y0039798D01*
X0121644Y0039800D01*
X0121804Y0039798D01*
X0121963Y0039792D01*
X0122122Y0039782D01*
X0122281Y0039768D01*
X0122440Y0039750D01*
X0122598Y0039729D01*
X0122755Y0039703D01*
X0122912Y0039673D01*
X0123068Y0039640D01*
X0123223Y0039602D01*
X0123377Y0039561D01*
X0123530Y0039516D01*
X0123682Y0039467D01*
X0123833Y0039414D01*
X0123982Y0039358D01*
X0124130Y0039297D01*
X0124276Y0039234D01*
X0124421Y0039166D01*
X0124564Y0039095D01*
X0124705Y0039021D01*
X0124844Y0038943D01*
X0124981Y0038861D01*
X0125116Y0038776D01*
X0125249Y0038688D01*
X0125380Y0038596D01*
X0125508Y0038502D01*
X0125634Y0038404D01*
X0125758Y0038303D01*
X0125879Y0038199D01*
X0125997Y0038092D01*
X0126113Y0037982D01*
X0126226Y0037869D01*
X0126336Y0037753D01*
X0126443Y0037635D01*
X0126547Y0037514D01*
X0126648Y0037390D01*
X0126746Y0037264D01*
X0126840Y0037136D01*
X0126932Y0037005D01*
X0127020Y0036872D01*
X0127105Y0036737D01*
X0127187Y0036600D01*
X0127265Y0036461D01*
X0127339Y0036320D01*
X0127410Y0036177D01*
X0127478Y0036032D01*
X0127541Y0035886D01*
X0127602Y0035738D01*
X0127658Y0035589D01*
X0127711Y0035438D01*
X0127760Y0035286D01*
X0127805Y0035133D01*
X0127846Y0034979D01*
X0127884Y0034824D01*
X0127917Y0034668D01*
X0127947Y0034511D01*
X0127973Y0034354D01*
X0127994Y0034196D01*
X0128012Y0034037D01*
X0128026Y0033878D01*
X0128036Y0033719D01*
X0128042Y0033560D01*
X0128044Y0033400D01*
X0128042Y0033240D01*
X0128036Y0033081D01*
X0128026Y0032922D01*
X0128012Y0032763D01*
X0127994Y0032604D01*
X0127973Y0032446D01*
X0127947Y0032289D01*
X0127917Y0032132D01*
X0127884Y0031976D01*
X0127846Y0031821D01*
X0127805Y0031667D01*
X0127760Y0031514D01*
X0127711Y0031362D01*
X0127658Y0031211D01*
X0127602Y0031062D01*
X0127541Y0030914D01*
X0127478Y0030768D01*
X0127410Y0030623D01*
X0127339Y0030480D01*
X0127265Y0030339D01*
X0127187Y0030200D01*
X0127105Y0030063D01*
X0127020Y0029928D01*
X0126932Y0029795D01*
X0126840Y0029664D01*
X0126746Y0029536D01*
X0126648Y0029410D01*
X0126547Y0029286D01*
X0126443Y0029165D01*
X0126336Y0029047D01*
X0126226Y0028931D01*
X0126113Y0028818D01*
X0125997Y0028708D01*
X0125879Y0028601D01*
X0125758Y0028497D01*
X0125634Y0028396D01*
X0125508Y0028298D01*
X0125380Y0028204D01*
X0125249Y0028112D01*
X0125116Y0028024D01*
X0124981Y0027939D01*
X0124844Y0027857D01*
X0124705Y0027779D01*
X0124564Y0027705D01*
X0124421Y0027634D01*
X0124276Y0027566D01*
X0124130Y0027503D01*
X0123982Y0027442D01*
X0123833Y0027386D01*
X0123682Y0027333D01*
X0123530Y0027284D01*
X0123377Y0027239D01*
X0123223Y0027198D01*
X0123068Y0027160D01*
X0122912Y0027127D01*
X0122755Y0027097D01*
X0122598Y0027071D01*
X0122440Y0027050D01*
X0122281Y0027032D01*
X0122122Y0027018D01*
X0121963Y0027008D01*
X0121804Y0027002D01*
X0121644Y0027000D01*
X0121484Y0027002D01*
X0121325Y0027008D01*
X0121166Y0027018D01*
X0121007Y0027032D01*
X0120848Y0027050D01*
X0120690Y0027071D01*
X0120533Y0027097D01*
X0120376Y0027127D01*
X0120220Y0027160D01*
X0120065Y0027198D01*
X0119911Y0027239D01*
X0119758Y0027284D01*
X0119606Y0027333D01*
X0119455Y0027386D01*
X0119306Y0027442D01*
X0119158Y0027503D01*
X0119012Y0027566D01*
X0118867Y0027634D01*
X0118724Y0027705D01*
X0118583Y0027779D01*
X0118444Y0027857D01*
X0118307Y0027939D01*
X0118172Y0028024D01*
X0118039Y0028112D01*
X0117908Y0028204D01*
X0117780Y0028298D01*
X0117654Y0028396D01*
X0117530Y0028497D01*
X0117409Y0028601D01*
X0117291Y0028708D01*
X0117175Y0028818D01*
X0117062Y0028931D01*
X0116952Y0029047D01*
X0116845Y0029165D01*
X0116741Y0029286D01*
X0116640Y0029410D01*
X0116542Y0029536D01*
X0116448Y0029664D01*
X0116356Y0029795D01*
X0116268Y0029928D01*
X0116183Y0030063D01*
X0116101Y0030200D01*
X0116023Y0030339D01*
X0115949Y0030480D01*
X0115878Y0030623D01*
X0115810Y0030768D01*
X0115747Y0030914D01*
X0115686Y0031062D01*
X0115630Y0031211D01*
X0115577Y0031362D01*
X0115528Y0031514D01*
X0115483Y0031667D01*
X0115442Y0031821D01*
X0115404Y0031976D01*
X0115371Y0032132D01*
X0115341Y0032289D01*
X0115315Y0032446D01*
X0115294Y0032604D01*
X0115276Y0032763D01*
X0115262Y0032922D01*
X0115252Y0033081D01*
X0115246Y0033240D01*
X0115244Y0033400D01*
X0019163Y0104463D02*
X0019165Y0104537D01*
X0019171Y0104611D01*
X0019181Y0104684D01*
X0019195Y0104757D01*
X0019212Y0104829D01*
X0019234Y0104899D01*
X0019259Y0104969D01*
X0019288Y0105037D01*
X0019321Y0105103D01*
X0019357Y0105168D01*
X0019397Y0105230D01*
X0019439Y0105291D01*
X0019485Y0105349D01*
X0019534Y0105404D01*
X0019586Y0105457D01*
X0019641Y0105507D01*
X0019698Y0105553D01*
X0019758Y0105597D01*
X0019820Y0105637D01*
X0019884Y0105674D01*
X0019950Y0105708D01*
X0020018Y0105738D01*
X0020087Y0105764D01*
X0020158Y0105787D01*
X0020229Y0105805D01*
X0020302Y0105820D01*
X0020375Y0105831D01*
X0020449Y0105838D01*
X0020523Y0105841D01*
X0020596Y0105840D01*
X0020670Y0105835D01*
X0020744Y0105826D01*
X0020817Y0105813D01*
X0020889Y0105796D01*
X0020960Y0105776D01*
X0021030Y0105751D01*
X0021098Y0105723D01*
X0021165Y0105692D01*
X0021230Y0105656D01*
X0021293Y0105618D01*
X0021354Y0105576D01*
X0021413Y0105530D01*
X0021469Y0105482D01*
X0021522Y0105431D01*
X0021572Y0105377D01*
X0021620Y0105320D01*
X0021664Y0105261D01*
X0021706Y0105199D01*
X0021744Y0105136D01*
X0021778Y0105070D01*
X0021809Y0105003D01*
X0021836Y0104934D01*
X0021859Y0104864D01*
X0021879Y0104793D01*
X0021895Y0104720D01*
X0021907Y0104647D01*
X0021915Y0104574D01*
X0021919Y0104500D01*
X0021919Y0104426D01*
X0021915Y0104352D01*
X0021907Y0104279D01*
X0021895Y0104206D01*
X0021879Y0104133D01*
X0021859Y0104062D01*
X0021836Y0103992D01*
X0021809Y0103923D01*
X0021778Y0103856D01*
X0021744Y0103790D01*
X0021706Y0103727D01*
X0021664Y0103665D01*
X0021620Y0103606D01*
X0021572Y0103549D01*
X0021522Y0103495D01*
X0021469Y0103444D01*
X0021413Y0103396D01*
X0021354Y0103350D01*
X0021293Y0103308D01*
X0021230Y0103270D01*
X0021165Y0103234D01*
X0021098Y0103203D01*
X0021030Y0103175D01*
X0020960Y0103150D01*
X0020889Y0103130D01*
X0020817Y0103113D01*
X0020744Y0103100D01*
X0020670Y0103091D01*
X0020596Y0103086D01*
X0020523Y0103085D01*
X0020449Y0103088D01*
X0020375Y0103095D01*
X0020302Y0103106D01*
X0020229Y0103121D01*
X0020158Y0103139D01*
X0020087Y0103162D01*
X0020018Y0103188D01*
X0019950Y0103218D01*
X0019884Y0103252D01*
X0019820Y0103289D01*
X0019758Y0103329D01*
X0019698Y0103373D01*
X0019641Y0103419D01*
X0019586Y0103469D01*
X0019534Y0103522D01*
X0019485Y0103577D01*
X0019439Y0103635D01*
X0019397Y0103696D01*
X0019357Y0103758D01*
X0019321Y0103823D01*
X0019288Y0103889D01*
X0019259Y0103957D01*
X0019234Y0104027D01*
X0019212Y0104097D01*
X0019195Y0104169D01*
X0019181Y0104242D01*
X0019171Y0104315D01*
X0019165Y0104389D01*
X0019163Y0104463D01*
X0014242Y0099148D02*
X0011880Y0099148D01*
X0011814Y0099140D01*
X0011750Y0099128D01*
X0011686Y0099112D01*
X0011623Y0099093D01*
X0011562Y0099069D01*
X0011502Y0099042D01*
X0011444Y0099012D01*
X0011388Y0098978D01*
X0011334Y0098941D01*
X0011282Y0098900D01*
X0011233Y0098856D01*
X0011186Y0098810D01*
X0011143Y0098761D01*
X0011102Y0098709D01*
X0011065Y0098655D01*
X0011031Y0098599D01*
X0011001Y0098541D01*
X0010974Y0098481D01*
X0010950Y0098420D01*
X0010931Y0098357D01*
X0010915Y0098293D01*
X0010903Y0098229D01*
X0010895Y0098163D01*
X0010891Y0098098D01*
X0010891Y0098032D01*
X0010895Y0097967D01*
X0010891Y0097902D01*
X0010891Y0097836D01*
X0010895Y0097771D01*
X0010903Y0097705D01*
X0010915Y0097641D01*
X0010931Y0097577D01*
X0010950Y0097514D01*
X0010974Y0097453D01*
X0011001Y0097393D01*
X0011031Y0097335D01*
X0011065Y0097279D01*
X0011102Y0097225D01*
X0011143Y0097173D01*
X0011186Y0097124D01*
X0011233Y0097078D01*
X0011282Y0097034D01*
X0011334Y0096993D01*
X0011388Y0096956D01*
X0011444Y0096922D01*
X0011502Y0096892D01*
X0011562Y0096865D01*
X0011623Y0096841D01*
X0011686Y0096822D01*
X0011750Y0096806D01*
X0011814Y0096794D01*
X0011880Y0096786D01*
X0014242Y0096786D01*
X0014305Y0096794D01*
X0014367Y0096805D01*
X0014429Y0096820D01*
X0014489Y0096838D01*
X0014549Y0096860D01*
X0014607Y0096885D01*
X0014663Y0096914D01*
X0014718Y0096946D01*
X0014770Y0096981D01*
X0014821Y0097019D01*
X0014869Y0097059D01*
X0014915Y0097103D01*
X0014958Y0097149D01*
X0014999Y0097198D01*
X0015037Y0097249D01*
X0015071Y0097301D01*
X0015103Y0097356D01*
X0015131Y0097413D01*
X0015156Y0097471D01*
X0015177Y0097531D01*
X0015195Y0097591D01*
X0015209Y0097653D01*
X0015220Y0097715D01*
X0015227Y0097778D01*
X0015231Y0097841D01*
X0015230Y0097904D01*
X0015227Y0097967D01*
X0015230Y0098030D01*
X0015231Y0098093D01*
X0015227Y0098156D01*
X0015220Y0098219D01*
X0015209Y0098281D01*
X0015195Y0098343D01*
X0015177Y0098403D01*
X0015156Y0098463D01*
X0015131Y0098521D01*
X0015103Y0098578D01*
X0015071Y0098633D01*
X0015037Y0098685D01*
X0014999Y0098736D01*
X0014958Y0098785D01*
X0014915Y0098831D01*
X0014869Y0098875D01*
X0014821Y0098915D01*
X0014770Y0098953D01*
X0014718Y0098988D01*
X0014663Y0099020D01*
X0014607Y0099049D01*
X0014549Y0099074D01*
X0014489Y0099096D01*
X0014429Y0099114D01*
X0014367Y0099129D01*
X0014305Y0099140D01*
X0014242Y0099148D01*
X0019163Y0119817D02*
X0019165Y0119891D01*
X0019171Y0119965D01*
X0019181Y0120038D01*
X0019195Y0120111D01*
X0019212Y0120183D01*
X0019234Y0120253D01*
X0019259Y0120323D01*
X0019288Y0120391D01*
X0019321Y0120457D01*
X0019357Y0120522D01*
X0019397Y0120584D01*
X0019439Y0120645D01*
X0019485Y0120703D01*
X0019534Y0120758D01*
X0019586Y0120811D01*
X0019641Y0120861D01*
X0019698Y0120907D01*
X0019758Y0120951D01*
X0019820Y0120991D01*
X0019884Y0121028D01*
X0019950Y0121062D01*
X0020018Y0121092D01*
X0020087Y0121118D01*
X0020158Y0121141D01*
X0020229Y0121159D01*
X0020302Y0121174D01*
X0020375Y0121185D01*
X0020449Y0121192D01*
X0020523Y0121195D01*
X0020596Y0121194D01*
X0020670Y0121189D01*
X0020744Y0121180D01*
X0020817Y0121167D01*
X0020889Y0121150D01*
X0020960Y0121130D01*
X0021030Y0121105D01*
X0021098Y0121077D01*
X0021165Y0121046D01*
X0021230Y0121010D01*
X0021293Y0120972D01*
X0021354Y0120930D01*
X0021413Y0120884D01*
X0021469Y0120836D01*
X0021522Y0120785D01*
X0021572Y0120731D01*
X0021620Y0120674D01*
X0021664Y0120615D01*
X0021706Y0120553D01*
X0021744Y0120490D01*
X0021778Y0120424D01*
X0021809Y0120357D01*
X0021836Y0120288D01*
X0021859Y0120218D01*
X0021879Y0120147D01*
X0021895Y0120074D01*
X0021907Y0120001D01*
X0021915Y0119928D01*
X0021919Y0119854D01*
X0021919Y0119780D01*
X0021915Y0119706D01*
X0021907Y0119633D01*
X0021895Y0119560D01*
X0021879Y0119487D01*
X0021859Y0119416D01*
X0021836Y0119346D01*
X0021809Y0119277D01*
X0021778Y0119210D01*
X0021744Y0119144D01*
X0021706Y0119081D01*
X0021664Y0119019D01*
X0021620Y0118960D01*
X0021572Y0118903D01*
X0021522Y0118849D01*
X0021469Y0118798D01*
X0021413Y0118750D01*
X0021354Y0118704D01*
X0021293Y0118662D01*
X0021230Y0118624D01*
X0021165Y0118588D01*
X0021098Y0118557D01*
X0021030Y0118529D01*
X0020960Y0118504D01*
X0020889Y0118484D01*
X0020817Y0118467D01*
X0020744Y0118454D01*
X0020670Y0118445D01*
X0020596Y0118440D01*
X0020523Y0118439D01*
X0020449Y0118442D01*
X0020375Y0118449D01*
X0020302Y0118460D01*
X0020229Y0118475D01*
X0020158Y0118493D01*
X0020087Y0118516D01*
X0020018Y0118542D01*
X0019950Y0118572D01*
X0019884Y0118606D01*
X0019820Y0118643D01*
X0019758Y0118683D01*
X0019698Y0118727D01*
X0019641Y0118773D01*
X0019586Y0118823D01*
X0019534Y0118876D01*
X0019485Y0118931D01*
X0019439Y0118989D01*
X0019397Y0119050D01*
X0019357Y0119112D01*
X0019321Y0119177D01*
X0019288Y0119243D01*
X0019259Y0119311D01*
X0019234Y0119381D01*
X0019212Y0119451D01*
X0019195Y0119523D01*
X0019181Y0119596D01*
X0019171Y0119669D01*
X0019165Y0119743D01*
X0019163Y0119817D01*
X0014242Y0125132D02*
X0011880Y0125132D01*
X0011814Y0125140D01*
X0011750Y0125152D01*
X0011686Y0125168D01*
X0011623Y0125187D01*
X0011562Y0125211D01*
X0011502Y0125238D01*
X0011444Y0125268D01*
X0011388Y0125302D01*
X0011334Y0125339D01*
X0011282Y0125380D01*
X0011233Y0125424D01*
X0011186Y0125470D01*
X0011143Y0125519D01*
X0011102Y0125571D01*
X0011065Y0125625D01*
X0011031Y0125681D01*
X0011001Y0125739D01*
X0010974Y0125799D01*
X0010950Y0125860D01*
X0010931Y0125923D01*
X0010915Y0125987D01*
X0010903Y0126051D01*
X0010895Y0126117D01*
X0010891Y0126182D01*
X0010891Y0126248D01*
X0010895Y0126313D01*
X0010895Y0126314D02*
X0010891Y0126379D01*
X0010891Y0126445D01*
X0010895Y0126510D01*
X0010903Y0126576D01*
X0010915Y0126640D01*
X0010931Y0126704D01*
X0010950Y0126767D01*
X0010974Y0126828D01*
X0011001Y0126888D01*
X0011031Y0126946D01*
X0011065Y0127002D01*
X0011102Y0127056D01*
X0011143Y0127108D01*
X0011186Y0127157D01*
X0011233Y0127203D01*
X0011282Y0127247D01*
X0011334Y0127288D01*
X0011388Y0127325D01*
X0011444Y0127359D01*
X0011502Y0127389D01*
X0011562Y0127416D01*
X0011623Y0127440D01*
X0011686Y0127459D01*
X0011750Y0127475D01*
X0011814Y0127487D01*
X0011880Y0127495D01*
X0011880Y0127494D02*
X0014242Y0127494D01*
X0014242Y0127495D02*
X0014305Y0127487D01*
X0014367Y0127476D01*
X0014429Y0127461D01*
X0014489Y0127443D01*
X0014549Y0127421D01*
X0014607Y0127396D01*
X0014663Y0127367D01*
X0014718Y0127335D01*
X0014770Y0127300D01*
X0014821Y0127262D01*
X0014869Y0127222D01*
X0014915Y0127178D01*
X0014958Y0127132D01*
X0014999Y0127083D01*
X0015037Y0127032D01*
X0015071Y0126980D01*
X0015103Y0126925D01*
X0015131Y0126868D01*
X0015156Y0126810D01*
X0015177Y0126750D01*
X0015195Y0126690D01*
X0015209Y0126628D01*
X0015220Y0126566D01*
X0015227Y0126503D01*
X0015231Y0126440D01*
X0015230Y0126377D01*
X0015227Y0126314D01*
X0015227Y0126313D02*
X0015230Y0126250D01*
X0015231Y0126187D01*
X0015227Y0126124D01*
X0015220Y0126061D01*
X0015209Y0125999D01*
X0015195Y0125937D01*
X0015177Y0125877D01*
X0015156Y0125817D01*
X0015131Y0125759D01*
X0015103Y0125702D01*
X0015071Y0125647D01*
X0015037Y0125595D01*
X0014999Y0125544D01*
X0014958Y0125495D01*
X0014915Y0125449D01*
X0014869Y0125405D01*
X0014821Y0125365D01*
X0014770Y0125327D01*
X0014718Y0125292D01*
X0014663Y0125260D01*
X0014607Y0125231D01*
X0014549Y0125206D01*
X0014489Y0125184D01*
X0014429Y0125166D01*
X0014367Y0125151D01*
X0014305Y0125140D01*
X0014242Y0125132D01*
M02*
